<svg width="1440" height="89" viewBox="0 0 1440 89" fill="none" xmlns="http://www.w3.org/2000/svg">
<g clip-path="url(#clip0_326_520)">
<rect width="1440" height="89" fill="black"/>
<path d="M1440 89.5H0V52H462H487H851.411L870.411 8H1273L1304 73H1309L1278 8H1288L1319 73H1324L1293 8H1303L1334 73H1339L1308 8H1318L1349 73H1440V89.5Z" fill="white"/>
<path d="M889.36 61V27.4H895.456V61H889.36ZM895.456 47.224L901.552 41.128H913.744V27.4H919.84V61H913.744V47.224H895.456ZM923.459 61L932.387 27.4H938.723L933.875 45.784H943.619L938.723 27.4H945.059L954.035 61H947.699L945.203 51.88H932.291L929.795 61H923.459ZM957.636 61V27.4H963.732V61H957.636ZM963.732 61L969.828 54.904H975.972V27.4H982.068V54.904H994.26V27.4H1000.36V61H963.732ZM1036.53 61L1027.51 27.4H1033.84L1042.77 61H1036.53ZM1021.51 61V27.4H1027.51V61H1021.51ZM1042.77 61L1051.75 27.4H1058.08L1049.06 61H1042.77ZM1058.08 61V27.4H1064.08V61H1058.08ZM1067.7 61L1076.63 27.4H1082.96L1078.11 45.784H1087.86L1082.96 27.4H1089.3L1098.27 61H1091.94L1089.44 51.88H1076.53L1074.03 61H1067.7ZM1101.88 61V33.4L1107.88 27.4H1129.14V33.4H1107.88V61H1101.88ZM1128.19 61L1137.12 27.4H1143.46L1138.61 45.784H1148.35L1143.46 27.4H1149.79L1158.77 61H1152.43L1149.94 51.88H1137.03L1134.53 61H1128.19ZM1167.51 61L1161.41 54.904H1184.31V45.688H1169.09V39.592H1184.31L1190.4 45.784V61H1167.51ZM1162.95 33.496V27.4H1184.31L1190.4 33.544V39.592H1184.31V33.496H1162.95ZM1201.76 61H1195.67V27.4H1201.76V61ZM1201.76 61L1213.95 27.4H1220.05L1207.86 61H1201.76ZM1220.05 61V27.4H1226.15V61H1220.05ZM1231.44 61V27.4H1237.54V61H1231.44ZM1237.54 47.224L1243.64 41.128H1255.83V27.4H1261.92V61H1255.83V47.224H1237.54Z" fill="black"/>
</g>
<defs>
<clipPath id="clip0_326_520">
<rect width="1440" height="89" fill="white"/>
</clipPath>
</defs>
</svg>
