<svg width="1440" height="92" viewBox="0 0 1440 92" fill="none" xmlns="http://www.w3.org/2000/svg">
<rect width="1440" height="92" fill="black"/>
<path d="M0 0H1440V34H978H953H609L590 78H167L136 13H131L162 78H152L121 13H116L147 78H137L106 13H101L132 78H122L91 13H0V0Z" fill="white"/>
<path d="M210 56L219.68 41.52L210.6 28H216.72L222.72 37L228.72 28H234.84L225.8 41.52L235.44 56H229.32L222.72 46.16L216.12 56H210ZM245.333 56H240.253V28H245.333V56ZM245.333 56L255.493 28H260.573L250.413 56H245.333ZM260.573 56V28H265.653V56H260.573ZM280.189 56V33.08H269.869V28H295.349V33.08H285.269V56H280.189ZM299.55 56V28H304.63V38.16H319.91L324.99 43.24V56H304.63L309.71 50.92H319.91V43.24H304.63V56H299.55ZM327.55 56V28H332.71V56H327.55ZM352.714 56V28H357.794V56H352.714ZM357.794 33.08L362.954 28H378.154V56H373.074V33.08H357.794ZM383.769 56V28H388.849V40.68H404.129V33.08H388.849L393.929 28H409.209V40.68L404.129 45.76H388.849V56H383.769ZM412.011 56V33.08L417.091 28H437.491V50.92L432.411 56H412.011ZM417.091 50.92H432.411V33.08H417.091V50.92ZM440.305 61.08V50.92H445.625L457.505 28H463.225L451.345 50.92H458.145L463.225 56H445.385V61.08H440.305ZM463.225 61.08V28H468.305V61.08H463.225ZM472.486 56L479.926 28H485.206L481.166 43.32H489.286L485.206 28H490.486L497.966 56H492.686L490.606 48.4H479.846L477.766 56H472.486ZM501.367 56L510.527 41.92L501.447 28H507.447L516.527 41.92L507.407 56H501.367ZM516.527 56V28H521.607V56H516.527ZM521.607 41.92L530.727 28H536.727L527.607 41.92L536.847 56H530.767L521.607 41.92Z" fill="black"/>
<path d="M592.282 76.5H617.014L634.718 35.5H609.986L592.282 76.5Z" fill="white" stroke="black" stroke-width="3"/>
<path d="M617.282 76.5H642.014L659.718 35.5H634.986L617.282 76.5Z" fill="white" stroke="black" stroke-width="3"/>
<path d="M641.282 76.5H666.014L683.718 35.5H658.986L641.282 76.5Z" fill="white" stroke="black" stroke-width="3"/>
</svg>
