<svg width="1440" height="79" viewBox="0 0 1440 79" fill="none" xmlns="http://www.w3.org/2000/svg">
<g clip-path="url(#clip0_326_509)">
<rect width="1440" height="79" fill="black"/>
<path d="M0 80.5L1440 80.5V54L1352 54L1332 10L1051 10L1041 31.5H1036L1046 10H1036L1026 31.5H1021L1031 10H1021L1001 54L996 64L991 54L986 44L981 54L507 54L502 44L497 54L492 64L487 54L482.455 44L477.5 54L132.5 54H102L0 54L0 80.5Z" fill="white"/>
<path d="M968.4 23.064C966.608 23.064 965.2 21.656 965.2 19.864C965.2 18.072 966.608 16.664 968.4 16.664C970.192 16.664 971.6 18.072 971.6 19.864C971.6 21.656 970.192 23.064 968.4 23.064ZM981.213 23.064C979.421 23.064 978.013 21.656 978.013 19.864C978.013 18.072 979.421 16.664 981.213 16.664C983.005 16.664 984.413 18.072 984.413 19.864C984.413 21.656 983.005 23.064 981.213 23.064ZM994.025 23.064C992.233 23.064 990.825 21.656 990.825 19.864C990.825 18.072 992.233 16.664 994.025 16.664C995.817 16.664 997.225 18.072 997.225 19.864C997.225 21.656 995.817 23.064 994.025 23.064Z" fill="white"/>
<path d="M1390.5 10V32.5L862 32.5L872 10L950 10L970 54L1251 54L1261 32.5H1266L1256 54H1266L1276 32.5H1281L1271 54H1281L1301 10L1306 0L1311 10L1316 20L1321 10L1390.5 10Z" fill="black"/>
</g>
<defs>
<clipPath id="clip0_326_509">
<rect width="1440" height="79" fill="white"/>
</clipPath>
</defs>
</svg>
