<svg width="91" height="15" viewBox="0 0 91 15" fill="none" xmlns="http://www.w3.org/2000/svg">
<path d="M3.8 2.6C3.268 2.6 2.85 2.182 2.85 1.65C2.85 1.118 3.268 0.699999 3.8 0.699999C4.332 0.699999 4.75 1.118 4.75 1.65C4.75 2.182 4.332 2.6 3.8 2.6ZM5.7 2.6C5.168 2.6 4.75 2.182 4.75 1.65C4.75 1.118 5.168 0.699999 5.7 0.699999C6.232 0.699999 6.65 1.118 6.65 1.65C6.65 2.182 6.232 2.6 5.7 2.6ZM7.6 2.6C7.068 2.6 6.65 2.182 6.65 1.65C6.65 1.118 7.068 0.699999 7.6 0.699999C8.132 0.699999 8.55 1.118 8.55 1.65C8.55 2.182 8.132 2.6 7.6 2.6ZM1.9 5.45C1.368 5.45 0.95 5.032 0.95 4.5C0.95 3.968 1.368 3.55 1.9 3.55C2.432 3.55 2.85 3.968 2.85 4.5C2.85 5.032 2.432 5.45 1.9 5.45ZM9.5 5.45C8.968 5.45 8.55 5.032 8.55 4.5C8.55 3.968 8.968 3.55 9.5 3.55C10.032 3.55 10.45 3.968 10.45 4.5C10.45 5.032 10.032 5.45 9.5 5.45ZM1.9 8.3C1.368 8.3 0.95 7.882 0.95 7.35C0.95 6.818 1.368 6.4 1.9 6.4C2.432 6.4 2.85 6.818 2.85 7.35C2.85 7.882 2.432 8.3 1.9 8.3ZM9.5 8.3C8.968 8.3 8.55 7.882 8.55 7.35C8.55 6.818 8.968 6.4 9.5 6.4C10.032 6.4 10.45 6.818 10.45 7.35C10.45 7.882 10.032 8.3 9.5 8.3ZM1.9 11.15C1.368 11.15 0.95 10.732 0.95 10.2C0.95 9.668 1.368 9.25 1.9 9.25C2.432 9.25 2.85 9.668 2.85 10.2C2.85 10.732 2.432 11.15 1.9 11.15ZM9.5 11.15C8.968 11.15 8.55 10.732 8.55 10.2C8.55 9.668 8.968 9.25 9.5 9.25C10.032 9.25 10.45 9.668 10.45 10.2C10.45 10.732 10.032 11.15 9.5 11.15ZM3.8 14C3.268 14 2.85 13.582 2.85 13.05C2.85 12.518 3.268 12.1 3.8 12.1C4.332 12.1 4.75 12.518 4.75 13.05C4.75 13.582 4.332 14 3.8 14ZM5.7 14C5.168 14 4.75 13.582 4.75 13.05C4.75 12.518 5.168 12.1 5.7 12.1C6.232 12.1 6.65 12.518 6.65 13.05C6.65 13.582 6.232 14 5.7 14ZM7.6 14C7.068 14 6.65 13.582 6.65 13.05C6.65 12.518 7.068 12.1 7.6 12.1C8.132 12.1 8.55 12.518 8.55 13.05C8.55 13.582 8.132 14 7.6 14ZM13.2926 2.6C12.7606 2.6 12.3426 2.182 12.3426 1.65C12.3426 1.118 12.7606 0.699999 13.2926 0.699999C13.8246 0.699999 14.2426 1.118 14.2426 1.65C14.2426 2.182 13.8246 2.6 13.2926 2.6ZM15.1926 2.6C14.6606 2.6 14.2426 2.182 14.2426 1.65C14.2426 1.118 14.6606 0.699999 15.1926 0.699999C15.7246 0.699999 16.1426 1.118 16.1426 1.65C16.1426 2.182 15.7246 2.6 15.1926 2.6ZM17.0926 2.6C16.5606 2.6 16.1426 2.182 16.1426 1.65C16.1426 1.118 16.5606 0.699999 17.0926 0.699999C17.6246 0.699999 18.0426 1.118 18.0426 1.65C18.0426 2.182 17.6246 2.6 17.0926 2.6ZM18.9926 2.6C18.4606 2.6 18.0426 2.182 18.0426 1.65C18.0426 1.118 18.4606 0.699999 18.9926 0.699999C19.5246 0.699999 19.9426 1.118 19.9426 1.65C19.9426 2.182 19.5246 2.6 18.9926 2.6ZM20.8926 2.6C20.3606 2.6 19.9426 2.182 19.9426 1.65C19.9426 1.118 20.3606 0.699999 20.8926 0.699999C21.4246 0.699999 21.8426 1.118 21.8426 1.65C21.8426 2.182 21.4246 2.6 20.8926 2.6ZM17.0926 5.45C16.5606 5.45 16.1426 5.032 16.1426 4.5C16.1426 3.968 16.5606 3.55 17.0926 3.55C17.6246 3.55 18.0426 3.968 18.0426 4.5C18.0426 5.032 17.6246 5.45 17.0926 5.45ZM17.0926 8.3C16.5606 8.3 16.1426 7.882 16.1426 7.35C16.1426 6.818 16.5606 6.4 17.0926 6.4C17.6246 6.4 18.0426 6.818 18.0426 7.35C18.0426 7.882 17.6246 8.3 17.0926 8.3ZM17.0926 11.15C16.5606 11.15 16.1426 10.732 16.1426 10.2C16.1426 9.668 16.5606 9.25 17.0926 9.25C17.6246 9.25 18.0426 9.668 18.0426 10.2C18.0426 10.732 17.6246 11.15 17.0926 11.15ZM17.0926 14C16.5606 14 16.1426 13.582 16.1426 13.05C16.1426 12.518 16.5606 12.1 17.0926 12.1C17.6246 12.1 18.0426 12.518 18.0426 13.05C18.0426 13.582 17.6246 14 17.0926 14ZM28.4852 2.6C27.9532 2.6 27.5352 2.182 27.5352 1.65C27.5352 1.118 27.9532 0.699999 28.4852 0.699999C29.0172 0.699999 29.4352 1.118 29.4352 1.65C29.4352 2.182 29.0172 2.6 28.4852 2.6ZM26.5852 5.45C26.0532 5.45 25.6352 5.032 25.6352 4.5C25.6352 3.968 26.0532 3.55 26.5852 3.55C27.1172 3.55 27.5352 3.968 27.5352 4.5C27.5352 5.032 27.1172 5.45 26.5852 5.45ZM30.3852 5.45C29.8532 5.45 29.4352 5.032 29.4352 4.5C29.4352 3.968 29.8532 3.55 30.3852 3.55C30.9172 3.55 31.3352 3.968 31.3352 4.5C31.3352 5.032 30.9172 5.45 30.3852 5.45ZM24.6852 8.3C24.1532 8.3 23.7352 7.882 23.7352 7.35C23.7352 6.818 24.1532 6.4 24.6852 6.4C25.2172 6.4 25.6352 6.818 25.6352 7.35C25.6352 7.882 25.2172 8.3 24.6852 8.3ZM32.2852 8.3C31.7532 8.3 31.3352 7.882 31.3352 7.35C31.3352 6.818 31.7532 6.4 32.2852 6.4C32.8172 6.4 33.2352 6.818 33.2352 7.35C33.2352 7.882 32.8172 8.3 32.2852 8.3ZM24.6852 11.15C24.1532 11.15 23.7352 10.732 23.7352 10.2C23.7352 9.668 24.1532 9.25 24.6852 9.25C25.2172 9.25 25.6352 9.668 25.6352 10.2C25.6352 10.732 25.2172 11.15 24.6852 11.15ZM26.5852 11.15C26.0532 11.15 25.6352 10.732 25.6352 10.2C25.6352 9.668 26.0532 9.25 26.5852 9.25C27.1172 9.25 27.5352 9.668 27.5352 10.2C27.5352 10.732 27.1172 11.15 26.5852 11.15ZM28.4852 11.15C27.9532 11.15 27.5352 10.732 27.5352 10.2C27.5352 9.668 27.9532 9.25 28.4852 9.25C29.0172 9.25 29.4352 9.668 29.4352 10.2C29.4352 10.732 29.0172 11.15 28.4852 11.15ZM30.3852 11.15C29.8532 11.15 29.4352 10.732 29.4352 10.2C29.4352 9.668 29.8532 9.25 30.3852 9.25C30.9172 9.25 31.3352 9.668 31.3352 10.2C31.3352 10.732 30.9172 11.15 30.3852 11.15ZM32.2852 11.15C31.7532 11.15 31.3352 10.732 31.3352 10.2C31.3352 9.668 31.7532 9.25 32.2852 9.25C32.8172 9.25 33.2352 9.668 33.2352 10.2C33.2352 10.732 32.8172 11.15 32.2852 11.15ZM24.6852 14C24.1532 14 23.7352 13.582 23.7352 13.05C23.7352 12.518 24.1532 12.1 24.6852 12.1C25.2172 12.1 25.6352 12.518 25.6352 13.05C25.6352 13.582 25.2172 14 24.6852 14ZM32.2852 14C31.7532 14 31.3352 13.582 31.3352 13.05C31.3352 12.518 31.7532 12.1 32.2852 12.1C32.8172 12.1 33.2352 12.518 33.2352 13.05C33.2352 13.582 32.8172 14 32.2852 14ZM36.0777 2.6C35.5457 2.6 35.1277 2.182 35.1277 1.65C35.1277 1.118 35.5457 0.699999 36.0777 0.699999C36.6097 0.699999 37.0277 1.118 37.0277 1.65C37.0277 2.182 36.6097 2.6 36.0777 2.6ZM43.6777 2.6C43.1457 2.6 42.7277 2.182 42.7277 1.65C42.7277 1.118 43.1457 0.699999 43.6777 0.699999C44.2097 0.699999 44.6277 1.118 44.6277 1.65C44.6277 2.182 44.2097 2.6 43.6777 2.6ZM36.0777 5.45C35.5457 5.45 35.1277 5.032 35.1277 4.5C35.1277 3.968 35.5457 3.55 36.0777 3.55C36.6097 3.55 37.0277 3.968 37.0277 4.5C37.0277 5.032 36.6097 5.45 36.0777 5.45ZM41.7777 5.45C41.2457 5.45 40.8277 5.032 40.8277 4.5C40.8277 3.968 41.2457 3.55 41.7777 3.55C42.3097 3.55 42.7277 3.968 42.7277 4.5C42.7277 5.032 42.3097 5.45 41.7777 5.45ZM36.0777 8.3C35.5457 8.3 35.1277 7.882 35.1277 7.35C35.1277 6.818 35.5457 6.4 36.0777 6.4C36.6097 6.4 37.0277 6.818 37.0277 7.35C37.0277 7.882 36.6097 8.3 36.0777 8.3ZM37.9777 8.3C37.4457 8.3 37.0277 7.882 37.0277 7.35C37.0277 6.818 37.4457 6.4 37.9777 6.4C38.5097 6.4 38.9277 6.818 38.9277 7.35C38.9277 7.882 38.5097 8.3 37.9777 8.3ZM39.8777 8.3C39.3457 8.3 38.9277 7.882 38.9277 7.35C38.9277 6.818 39.3457 6.4 39.8777 6.4C40.4097 6.4 40.8277 6.818 40.8277 7.35C40.8277 7.882 40.4097 8.3 39.8777 8.3ZM36.0777 11.15C35.5457 11.15 35.1277 10.732 35.1277 10.2C35.1277 9.668 35.5457 9.25 36.0777 9.25C36.6097 9.25 37.0277 9.668 37.0277 10.2C37.0277 10.732 36.6097 11.15 36.0777 11.15ZM41.7777 11.15C41.2457 11.15 40.8277 10.732 40.8277 10.2C40.8277 9.668 41.2457 9.25 41.7777 9.25C42.3097 9.25 42.7277 9.668 42.7277 10.2C42.7277 10.732 42.3097 11.15 41.7777 11.15ZM36.0777 14C35.5457 14 35.1277 13.582 35.1277 13.05C35.1277 12.518 35.5457 12.1 36.0777 12.1C36.6097 12.1 37.0277 12.518 37.0277 13.05C37.0277 13.582 36.6097 14 36.0777 14ZM43.6777 14C43.1457 14 42.7277 13.582 42.7277 13.05C42.7277 12.518 43.1457 12.1 43.6777 12.1C44.2097 12.1 44.6277 12.518 44.6277 13.05C44.6277 13.582 44.2097 14 43.6777 14ZM47.4703 2.6C46.9383 2.6 46.5203 2.182 46.5203 1.65C46.5203 1.118 46.9383 0.699999 47.4703 0.699999C48.0023 0.699999 48.4203 1.118 48.4203 1.65C48.4203 2.182 48.0023 2.6 47.4703 2.6ZM55.0703 2.6C54.5383 2.6 54.1203 2.182 54.1203 1.65C54.1203 1.118 54.5383 0.699999 55.0703 0.699999C55.6023 0.699999 56.0203 1.118 56.0203 1.65C56.0203 2.182 55.6023 2.6 55.0703 2.6ZM47.4703 5.45C46.9383 5.45 46.5203 5.032 46.5203 4.5C46.5203 3.968 46.9383 3.55 47.4703 3.55C48.0023 3.55 48.4203 3.968 48.4203 4.5C48.4203 5.032 48.0023 5.45 47.4703 5.45ZM55.0703 5.45C54.5383 5.45 54.1203 5.032 54.1203 4.5C54.1203 3.968 54.5383 3.55 55.0703 3.55C55.6023 3.55 56.0203 3.968 56.0203 4.5C56.0203 5.032 55.6023 5.45 55.0703 5.45ZM47.4703 8.3C46.9383 8.3 46.5203 7.882 46.5203 7.35C46.5203 6.818 46.9383 6.4 47.4703 6.4C48.0023 6.4 48.4203 6.818 48.4203 7.35C48.4203 7.882 48.0023 8.3 47.4703 8.3ZM55.0703 8.3C54.5383 8.3 54.1203 7.882 54.1203 7.35C54.1203 6.818 54.5383 6.4 55.0703 6.4C55.6023 6.4 56.0203 6.818 56.0203 7.35C56.0203 7.882 55.6023 8.3 55.0703 8.3ZM47.4703 11.15C46.9383 11.15 46.5203 10.732 46.5203 10.2C46.5203 9.668 46.9383 9.25 47.4703 9.25C48.0023 9.25 48.4203 9.668 48.4203 10.2C48.4203 10.732 48.0023 11.15 47.4703 11.15ZM55.0703 11.15C54.5383 11.15 54.1203 10.732 54.1203 10.2C54.1203 9.668 54.5383 9.25 55.0703 9.25C55.6023 9.25 56.0203 9.668 56.0203 10.2C56.0203 10.732 55.6023 11.15 55.0703 11.15ZM49.3703 14C48.8383 14 48.4203 13.582 48.4203 13.05C48.4203 12.518 48.8383 12.1 49.3703 12.1C49.9023 12.1 50.3203 12.518 50.3203 13.05C50.3203 13.582 49.9023 14 49.3703 14ZM51.2703 14C50.7383 14 50.3203 13.582 50.3203 13.05C50.3203 12.518 50.7383 12.1 51.2703 12.1C51.8023 12.1 52.2203 12.518 52.2203 13.05C52.2203 13.582 51.8023 14 51.2703 14ZM53.1703 14C52.6383 14 52.2203 13.582 52.2203 13.05C52.2203 12.518 52.6383 12.1 53.1703 12.1C53.7023 12.1 54.1203 12.518 54.1203 13.05C54.1203 13.582 53.7023 14 53.1703 14ZM64.5666 2.6C64.0346 2.6 63.6166 2.182 63.6166 1.65C63.6166 1.118 64.0346 0.699999 64.5666 0.699999C65.0986 0.699999 65.5166 1.118 65.5166 1.65C65.5166 2.182 65.0986 2.6 64.5666 2.6ZM62.6666 5.45C62.1346 5.45 61.7166 5.032 61.7166 4.5C61.7166 3.968 62.1346 3.55 62.6666 3.55C63.1986 3.55 63.6166 3.968 63.6166 4.5C63.6166 5.032 63.1986 5.45 62.6666 5.45ZM64.5666 5.45C64.0346 5.45 63.6166 5.032 63.6166 4.5C63.6166 3.968 64.0346 3.55 64.5666 3.55C65.0986 3.55 65.5166 3.968 65.5166 4.5C65.5166 5.032 65.0986 5.45 64.5666 5.45ZM64.5666 8.3C64.0346 8.3 63.6166 7.882 63.6166 7.35C63.6166 6.818 64.0346 6.4 64.5666 6.4C65.0986 6.4 65.5166 6.818 65.5166 7.35C65.5166 7.882 65.0986 8.3 64.5666 8.3ZM64.5666 11.15C64.0346 11.15 63.6166 10.732 63.6166 10.2C63.6166 9.668 64.0346 9.25 64.5666 9.25C65.0986 9.25 65.5166 9.668 65.5166 10.2C65.5166 10.732 65.0986 11.15 64.5666 11.15ZM64.5666 14C64.0346 14 63.6166 13.582 63.6166 13.05C63.6166 12.518 64.0346 12.1 64.5666 12.1C65.0986 12.1 65.5166 12.518 65.5166 13.05C65.5166 13.582 65.0986 14 64.5666 14ZM66.4666 14C65.9346 14 65.5166 13.582 65.5166 13.05C65.5166 12.518 65.9346 12.1 66.4666 12.1C66.9986 12.1 67.4166 12.518 67.4166 13.05C67.4166 13.582 66.9986 14 66.4666 14ZM70.274 5.45C69.742 5.45 69.324 5.032 69.324 4.5C69.324 3.968 69.742 3.55 70.274 3.55C70.806 3.55 71.224 3.968 71.224 4.5C71.224 5.032 70.806 5.45 70.274 5.45ZM74.074 5.45C73.542 5.45 73.124 5.032 73.124 4.5C73.124 3.968 73.542 3.55 74.074 3.55C74.606 3.55 75.024 3.968 75.024 4.5C75.024 5.032 74.606 5.45 74.074 5.45ZM70.274 8.3C69.742 8.3 69.324 7.882 69.324 7.35C69.324 6.818 69.742 6.4 70.274 6.4C70.806 6.4 71.224 6.818 71.224 7.35C71.224 7.882 70.806 8.3 70.274 8.3ZM72.174 8.3C71.642 8.3 71.224 7.882 71.224 7.35C71.224 6.818 71.642 6.4 72.174 6.4C72.706 6.4 73.124 6.818 73.124 7.35C73.124 7.882 72.706 8.3 72.174 8.3ZM75.974 8.3C75.442 8.3 75.024 7.882 75.024 7.35C75.024 6.818 75.442 6.4 75.974 6.4C76.506 6.4 76.924 6.818 76.924 7.35C76.924 7.882 76.506 8.3 75.974 8.3ZM70.274 11.15C69.742 11.15 69.324 10.732 69.324 10.2C69.324 9.668 69.742 9.25 70.274 9.25C70.806 9.25 71.224 9.668 71.224 10.2C71.224 10.732 70.806 11.15 70.274 11.15ZM75.974 11.15C75.442 11.15 75.024 10.732 75.024 10.2C75.024 9.668 75.442 9.25 75.974 9.25C76.506 9.25 76.924 9.668 76.924 10.2C76.924 10.732 76.506 11.15 75.974 11.15ZM70.274 14C69.742 14 69.324 13.582 69.324 13.05C69.324 12.518 69.742 12.1 70.274 12.1C70.806 12.1 71.224 12.518 71.224 13.05C71.224 13.582 70.806 14 70.274 14ZM75.974 14C75.442 14 75.024 13.582 75.024 13.05C75.024 12.518 75.442 12.1 75.974 12.1C76.506 12.1 76.924 12.518 76.924 13.05C76.924 13.582 76.506 14 75.974 14ZM81.674 5.45C81.142 5.45 80.724 5.032 80.724 4.5C80.724 3.968 81.142 3.55 81.674 3.55C82.206 3.55 82.624 3.968 82.624 4.5C82.624 5.032 82.206 5.45 81.674 5.45ZM83.574 5.45C83.042 5.45 82.624 5.032 82.624 4.5C82.624 3.968 83.042 3.55 83.574 3.55C84.106 3.55 84.524 3.968 84.524 4.5C84.524 5.032 84.106 5.45 83.574 5.45ZM85.474 5.45C84.942 5.45 84.524 5.032 84.524 4.5C84.524 3.968 84.942 3.55 85.474 3.55C86.006 3.55 86.424 3.968 86.424 4.5C86.424 5.032 86.006 5.45 85.474 5.45ZM79.774 8.3C79.242 8.3 78.824 7.882 78.824 7.35C78.824 6.818 79.242 6.4 79.774 6.4C80.306 6.4 80.724 6.818 80.724 7.35C80.724 7.882 80.306 8.3 79.774 8.3ZM79.774 11.15C79.242 11.15 78.824 10.732 78.824 10.2C78.824 9.668 79.242 9.25 79.774 9.25C80.306 9.25 80.724 9.668 80.724 10.2C80.724 10.732 80.306 11.15 79.774 11.15ZM81.674 14C81.142 14 80.724 13.582 80.724 13.05C80.724 12.518 81.142 12.1 81.674 12.1C82.206 12.1 82.624 12.518 82.624 13.05C82.624 13.582 82.206 14 81.674 14ZM83.574 14C83.042 14 82.624 13.582 82.624 13.05C82.624 12.518 83.042 12.1 83.574 12.1C84.106 12.1 84.524 12.518 84.524 13.05C84.524 13.582 84.106 14 83.574 14ZM85.474 14C84.942 14 84.524 13.582 84.524 13.05C84.524 12.518 84.942 12.1 85.474 12.1C86.006 12.1 86.424 12.518 86.424 13.05C86.424 13.582 86.006 14 85.474 14ZM89.274 14.019C88.742 14.019 88.324 13.601 88.324 13.069C88.324 12.537 88.742 12.119 89.274 12.119C89.806 12.119 90.224 12.537 90.224 13.069C90.224 13.601 89.806 14.019 89.274 14.019Z" fill="#DD2C40"/>
</svg>
