<svg width="480" height="490" viewBox="0 0 480 490" fill="none" xmlns="http://www.w3.org/2000/svg">
<mask id="path-1-inside-1_86_84" fill="white">
<path d="M205.714 0C210.308 1.11663 214.899 2.24263 219.49 3.37239C223.325 4.31139 223.325 4.31139 227.239 5.26936C232.328 6.62103 237.378 8.13274 242.363 9.82974C250.443 12.475 258.457 14.2464 266.786 15.9422C278.444 18.3762 289.851 21.0008 301.224 24.5265C297.123 36.4963 290.528 46.5795 283.776 57.1773C282.057 59.9018 282.057 59.9018 280.303 62.6814C277.49 67.1373 274.665 71.5854 271.837 76.032C286.689 76.1542 301.542 76.2427 316.395 76.3015C321.437 76.326 326.479 76.3593 331.522 76.4021C338.811 76.4622 346.1 76.4895 353.39 76.511C355.608 76.5364 357.826 76.5617 360.111 76.5878C371.806 76.5898 382.385 75.6209 393.837 73.1542C404.847 70.9747 410.665 71.018 420.325 77.4499C422.548 78.8821 424.77 80.3144 427.06 81.79C429.276 83.3297 431.492 84.8694 433.776 86.4557C436.086 87.9575 438.397 89.4593 440.778 91.0066C457.458 102.007 457.458 102.007 460.408 107.916C465.05 109.057 465.05 109.057 470.357 109.449C475.13 109.905 475.13 109.905 480 110.369C480 112.797 480 115.225 480 117.727C478.494 117.733 476.988 117.74 475.437 117.746C469.294 118.04 463.886 118.506 457.959 120.18C452.663 127.298 452.663 127.298 450.612 134.895C456.269 135.705 461.927 136.514 467.755 137.348C467.755 139.776 467.755 142.204 467.755 144.706C466.221 144.826 464.687 144.946 463.106 145.07C461.104 145.254 459.103 145.437 457.041 145.626C455.052 145.797 453.063 145.967 451.014 146.143C445.216 146.739 445.216 146.739 440.816 152.064C439.901 156.952 439.084 161.859 438.367 166.78C437.559 168.399 436.751 170.017 435.918 171.685C430.261 171.685 424.604 171.685 418.776 171.685C418.776 173.304 418.776 174.923 418.776 176.59C422.816 177.4 426.857 178.209 431.02 179.043C426.034 195.79 419.217 211.027 411.276 226.563C410.182 228.741 409.088 230.92 407.961 233.164C403.699 241.599 399.528 249.652 394.286 257.528C396.71 257.528 399.135 257.528 401.633 257.528C397.215 269.879 390.283 279.808 382.93 290.581C381.829 292.623 380.727 294.666 379.592 296.77C382.3 304.907 383.556 305.861 390.316 310.49C391.965 311.65 393.615 312.81 395.314 314.006C398.819 316.418 402.326 318.826 405.837 321.229C407.483 322.39 409.13 323.55 410.826 324.746C412.349 325.79 413.873 326.835 415.442 327.912C417.092 329.494 417.092 329.494 418.776 331.107C418.776 333.535 418.776 335.963 418.776 338.465C423.036 342.732 429.046 341.83 434.847 342.297C437.325 342.503 439.803 342.708 442.357 342.92C444.273 343.069 446.189 343.217 448.163 343.37C444.824 350.709 440.941 356.345 435.612 362.378C434.293 363.883 432.973 365.388 431.614 366.939C430.108 368.627 430.108 368.627 428.571 370.349C431.804 371.159 435.037 371.968 438.367 372.802C436.99 377.554 436.99 377.554 433.469 382.613C430.796 382.84 428.122 383.068 425.367 383.302C411.483 386.01 407.814 395.029 400.179 406.229C394.286 412.044 394.286 412.044 385.896 413.625C374.968 411.652 370.98 407.92 363.214 400.088C349.551 386.116 349.551 386.116 331.224 382.306C319.431 384.069 313.467 391.139 305.778 399.762C298.375 407.768 294.322 411.662 283.23 413.127C280.228 413.225 277.226 413.323 274.133 413.424C261.124 413.635 261.124 413.635 249.796 419.402C257.878 420.212 265.959 421.021 274.286 421.855C267.973 428.348 262.245 433.982 254.694 439.023C256.31 439.833 257.927 440.642 259.592 441.476C259.592 443.095 259.592 444.714 259.592 446.381C249.29 455.112 243.24 456.326 229.668 457.141C216.625 460.021 205.376 467.486 193.862 474.06C186.122 478.266 186.122 478.266 181.224 478.266C181.224 479.885 181.224 481.503 181.224 483.171C178.177 484.482 175.113 485.752 172.041 487.003C169.484 488.07 169.484 488.07 166.875 489.159C159.131 491.183 154.384 489.349 147.369 485.844C133.664 477.355 121.97 467.185 110.204 456.192C115.053 453.764 115.053 453.764 120 451.287C113.038 445.744 113.038 445.744 104.847 445.922C94.9293 443.805 92.8629 442.116 85.8673 435.345C76.1055 425.989 69.6865 424.547 56.3265 424.308C56.3265 422.689 56.3265 421.07 56.3265 419.402C72.0668 413.091 85.6721 409.229 102.704 409.285C125.825 408.466 159.626 396.886 176.327 380.16C180.036 379.591 183.765 379.149 187.5 378.78C189.524 378.575 191.547 378.369 193.632 378.158C195.195 378.009 196.757 377.86 198.367 377.707C194.731 375.279 194.731 375.279 191.02 372.802C202.335 364.708 213.649 356.615 225.306 348.276C219.649 347.466 213.992 346.657 208.163 345.823C211.518 338.07 213.034 336.03 220.408 331.107C224.045 330.045 224.045 330.045 227.755 328.961C235.906 325.9 237.698 323.387 242.449 316.391C228.191 306.341 213.91 296.324 199.604 286.343C194.454 282.742 189.32 279.12 184.19 275.491C181.696 273.762 179.202 272.033 176.633 270.251C174.518 268.768 172.402 267.285 170.223 265.758C163.243 261.979 157.23 260.862 149.388 259.98C155 246.621 166.037 237.396 176.09 227.289C179.695 223.649 183.253 219.965 186.811 216.278C189.078 213.991 191.345 211.703 193.68 209.347C195.752 207.238 197.824 205.13 199.959 202.958C205.714 198.664 205.714 198.664 210.694 198.843C216.074 201.383 221.145 204.101 226.234 207.191C228.277 208.425 230.321 209.659 232.426 210.93C234.572 212.244 236.718 213.559 238.929 214.913C241.116 216.24 243.302 217.567 245.556 218.935C260.98 228.322 276.305 237.851 291.429 247.717C299.9 237.803 306.148 227.355 312.398 215.986C313.343 214.293 314.289 212.6 315.263 210.856C320.634 201.187 325.751 191.434 330.612 181.496C325.763 181.496 320.914 181.496 315.918 181.496C317.535 177.449 319.151 173.402 320.816 169.233C326.473 169.233 332.131 169.233 337.959 169.233C338.767 164.376 339.576 159.52 340.408 154.517C321.797 154.494 303.19 154.586 284.58 154.756C278.249 154.801 271.919 154.819 265.588 154.811C256.486 154.804 247.389 154.891 238.288 154.996C235.458 154.973 232.629 154.951 229.713 154.928C215.927 154.69 215.927 154.69 203.903 160.306C200.292 164.762 200.292 164.762 195.918 171.685C186.735 173.678 186.735 173.678 178.776 174.138C177.967 174.947 177.159 175.757 176.327 176.59C181.176 177.805 181.176 177.805 186.122 179.043C182.064 189.094 174.918 196.269 167.602 204.029C166.29 205.435 164.978 206.84 163.626 208.288C148.2 224.736 132.768 241.012 115.102 255.075C115.91 257.503 116.718 259.931 117.551 262.433C105.429 271.336 93.3061 280.239 80.8163 289.412C59.1691 275.288 59.1691 275.288 51.1224 267.952C44.254 262.568 40.2904 261.481 32.0281 259.655C19.782 254.537 9.87544 244.146 0 235.454C8.58115 226.366 17.2359 219.416 27.7041 212.46C40.5344 203.807 52.3964 194.56 63.6735 183.948C60.0367 182.734 60.0367 182.734 56.3265 181.496C56.3265 176.59 56.3265 176.59 60.1531 172.758C66.1225 169.233 66.1225 169.233 74.6939 168.16C84.3028 166.613 87.0757 164.402 93.0612 156.969C89.8286 155.351 86.5959 153.732 83.2653 152.064C84.4776 149.636 84.4776 149.636 85.7143 147.159C90.5947 146.528 95.4816 145.912 100.389 145.549C106.065 144.919 106.065 144.919 112.653 139.801C113.36 138.384 114.067 136.968 114.796 135.509C119.264 126.559 125.64 117.355 134.694 112.822C135.502 110.394 136.31 107.965 137.143 105.464C138.92 105.391 140.698 105.318 142.529 105.243C152.344 102.049 155.928 95.296 161.173 86.9156C162.227 85.2981 163.28 83.6805 164.366 82.0139C173.036 68.3748 180.265 54.1215 186.671 39.2848C188.849 34.5095 188.849 34.5095 193.469 26.9791C200.156 24.6606 200.156 24.6606 205.714 24.5265C206.522 22.0983 207.331 19.6702 208.163 17.1685C204.931 16.3591 201.698 15.5498 198.367 14.7159C200.792 9.85963 203.216 5.0034 205.714 0ZM345.306 375.255C344.498 376.873 343.69 378.492 342.857 380.16C346.898 380.16 350.939 380.16 355.102 380.16C354.294 378.541 353.486 376.923 352.653 375.255C350.229 375.255 347.804 375.255 345.306 375.255Z"/>
</mask>
<path d="M205.714 0C210.308 1.11663 214.899 2.24263 219.49 3.37239C223.325 4.31139 223.325 4.31139 227.239 5.26936C232.328 6.62103 237.378 8.13274 242.363 9.82974C250.443 12.475 258.457 14.2464 266.786 15.9422C278.444 18.3762 289.851 21.0008 301.224 24.5265C297.123 36.4963 290.528 46.5795 283.776 57.1773C282.057 59.9018 282.057 59.9018 280.303 62.6814C277.49 67.1373 274.665 71.5854 271.837 76.032C286.689 76.1542 301.542 76.2427 316.395 76.3015C321.437 76.326 326.479 76.3593 331.522 76.4021C338.811 76.4622 346.1 76.4895 353.39 76.511C355.608 76.5364 357.826 76.5617 360.111 76.5878C371.806 76.5898 382.385 75.6209 393.837 73.1542C404.847 70.9747 410.665 71.018 420.325 77.4499C422.548 78.8821 424.77 80.3144 427.06 81.79C429.276 83.3297 431.492 84.8694 433.776 86.4557C436.086 87.9575 438.397 89.4593 440.778 91.0066C457.458 102.007 457.458 102.007 460.408 107.916C465.05 109.057 465.05 109.057 470.357 109.449C475.13 109.905 475.13 109.905 480 110.369C480 112.797 480 115.225 480 117.727C478.494 117.733 476.988 117.74 475.437 117.746C469.294 118.04 463.886 118.506 457.959 120.18C452.663 127.298 452.663 127.298 450.612 134.895C456.269 135.705 461.927 136.514 467.755 137.348C467.755 139.776 467.755 142.204 467.755 144.706C466.221 144.826 464.687 144.946 463.106 145.07C461.104 145.254 459.103 145.437 457.041 145.626C455.052 145.797 453.063 145.967 451.014 146.143C445.216 146.739 445.216 146.739 440.816 152.064C439.901 156.952 439.084 161.859 438.367 166.78C437.559 168.399 436.751 170.017 435.918 171.685C430.261 171.685 424.604 171.685 418.776 171.685C418.776 173.304 418.776 174.923 418.776 176.59C422.816 177.4 426.857 178.209 431.02 179.043C426.034 195.79 419.217 211.027 411.276 226.563C410.182 228.741 409.088 230.92 407.961 233.164C403.699 241.599 399.528 249.652 394.286 257.528C396.71 257.528 399.135 257.528 401.633 257.528C397.215 269.879 390.283 279.808 382.93 290.581C381.829 292.623 380.727 294.666 379.592 296.77C382.3 304.907 383.556 305.861 390.316 310.49C391.965 311.65 393.615 312.81 395.314 314.006C398.819 316.418 402.326 318.826 405.837 321.229C407.483 322.39 409.13 323.55 410.826 324.746C412.349 325.79 413.873 326.835 415.442 327.912C417.092 329.494 417.092 329.494 418.776 331.107C418.776 333.535 418.776 335.963 418.776 338.465C423.036 342.732 429.046 341.83 434.847 342.297C437.325 342.503 439.803 342.708 442.357 342.92C444.273 343.069 446.189 343.217 448.163 343.37C444.824 350.709 440.941 356.345 435.612 362.378C434.293 363.883 432.973 365.388 431.614 366.939C430.108 368.627 430.108 368.627 428.571 370.349C431.804 371.159 435.037 371.968 438.367 372.802C436.99 377.554 436.99 377.554 433.469 382.613C430.796 382.84 428.122 383.068 425.367 383.302C411.483 386.01 407.814 395.029 400.179 406.229C394.286 412.044 394.286 412.044 385.896 413.625C374.968 411.652 370.98 407.92 363.214 400.088C349.551 386.116 349.551 386.116 331.224 382.306C319.431 384.069 313.467 391.139 305.778 399.762C298.375 407.768 294.322 411.662 283.23 413.127C280.228 413.225 277.226 413.323 274.133 413.424C261.124 413.635 261.124 413.635 249.796 419.402C257.878 420.212 265.959 421.021 274.286 421.855C267.973 428.348 262.245 433.982 254.694 439.023C256.31 439.833 257.927 440.642 259.592 441.476C259.592 443.095 259.592 444.714 259.592 446.381C249.29 455.112 243.24 456.326 229.668 457.141C216.625 460.021 205.376 467.486 193.862 474.06C186.122 478.266 186.122 478.266 181.224 478.266C181.224 479.885 181.224 481.503 181.224 483.171C178.177 484.482 175.113 485.752 172.041 487.003C169.484 488.07 169.484 488.07 166.875 489.159C159.131 491.183 154.384 489.349 147.369 485.844C133.664 477.355 121.97 467.185 110.204 456.192C115.053 453.764 115.053 453.764 120 451.287C113.038 445.744 113.038 445.744 104.847 445.922C94.9293 443.805 92.8629 442.116 85.8673 435.345C76.1055 425.989 69.6865 424.547 56.3265 424.308C56.3265 422.689 56.3265 421.07 56.3265 419.402C72.0668 413.091 85.6721 409.229 102.704 409.285C125.825 408.466 159.626 396.886 176.327 380.16C180.036 379.591 183.765 379.149 187.5 378.78C189.524 378.575 191.547 378.369 193.632 378.158C195.195 378.009 196.757 377.86 198.367 377.707C194.731 375.279 194.731 375.279 191.02 372.802C202.335 364.708 213.649 356.615 225.306 348.276C219.649 347.466 213.992 346.657 208.163 345.823C211.518 338.07 213.034 336.03 220.408 331.107C224.045 330.045 224.045 330.045 227.755 328.961C235.906 325.9 237.698 323.387 242.449 316.391C228.191 306.341 213.91 296.324 199.604 286.343C194.454 282.742 189.32 279.12 184.19 275.491C181.696 273.762 179.202 272.033 176.633 270.251C174.518 268.768 172.402 267.285 170.223 265.758C163.243 261.979 157.23 260.862 149.388 259.98C155 246.621 166.037 237.396 176.09 227.289C179.695 223.649 183.253 219.965 186.811 216.278C189.078 213.991 191.345 211.703 193.68 209.347C195.752 207.238 197.824 205.13 199.959 202.958C205.714 198.664 205.714 198.664 210.694 198.843C216.074 201.383 221.145 204.101 226.234 207.191C228.277 208.425 230.321 209.659 232.426 210.93C234.572 212.244 236.718 213.559 238.929 214.913C241.116 216.24 243.302 217.567 245.556 218.935C260.98 228.322 276.305 237.851 291.429 247.717C299.9 237.803 306.148 227.355 312.398 215.986C313.343 214.293 314.289 212.6 315.263 210.856C320.634 201.187 325.751 191.434 330.612 181.496C325.763 181.496 320.914 181.496 315.918 181.496C317.535 177.449 319.151 173.402 320.816 169.233C326.473 169.233 332.131 169.233 337.959 169.233C338.767 164.376 339.576 159.52 340.408 154.517C321.797 154.494 303.19 154.586 284.58 154.756C278.249 154.801 271.919 154.819 265.588 154.811C256.486 154.804 247.389 154.891 238.288 154.996C235.458 154.973 232.629 154.951 229.713 154.928C215.927 154.69 215.927 154.69 203.903 160.306C200.292 164.762 200.292 164.762 195.918 171.685C186.735 173.678 186.735 173.678 178.776 174.138C177.967 174.947 177.159 175.757 176.327 176.59C181.176 177.805 181.176 177.805 186.122 179.043C182.064 189.094 174.918 196.269 167.602 204.029C166.29 205.435 164.978 206.84 163.626 208.288C148.2 224.736 132.768 241.012 115.102 255.075C115.91 257.503 116.718 259.931 117.551 262.433C105.429 271.336 93.3061 280.239 80.8163 289.412C59.1691 275.288 59.1691 275.288 51.1224 267.952C44.254 262.568 40.2904 261.481 32.0281 259.655C19.782 254.537 9.87544 244.146 0 235.454C8.58115 226.366 17.2359 219.416 27.7041 212.46C40.5344 203.807 52.3964 194.56 63.6735 183.948C60.0367 182.734 60.0367 182.734 56.3265 181.496C56.3265 176.59 56.3265 176.59 60.1531 172.758C66.1225 169.233 66.1225 169.233 74.6939 168.16C84.3028 166.613 87.0757 164.402 93.0612 156.969C89.8286 155.351 86.5959 153.732 83.2653 152.064C84.4776 149.636 84.4776 149.636 85.7143 147.159C90.5947 146.528 95.4816 145.912 100.389 145.549C106.065 144.919 106.065 144.919 112.653 139.801C113.36 138.384 114.067 136.968 114.796 135.509C119.264 126.559 125.64 117.355 134.694 112.822C135.502 110.394 136.31 107.965 137.143 105.464C138.92 105.391 140.698 105.318 142.529 105.243C152.344 102.049 155.928 95.296 161.173 86.9156C162.227 85.2981 163.28 83.6805 164.366 82.0139C173.036 68.3748 180.265 54.1215 186.671 39.2848C188.849 34.5095 188.849 34.5095 193.469 26.9791C200.156 24.6606 200.156 24.6606 205.714 24.5265C206.522 22.0983 207.331 19.6702 208.163 17.1685C204.931 16.3591 201.698 15.5498 198.367 14.7159C200.792 9.85963 203.216 5.0034 205.714 0ZM345.306 375.255C344.498 376.873 343.69 378.492 342.857 380.16C346.898 380.16 350.939 380.16 355.102 380.16C354.294 378.541 353.486 376.923 352.653 375.255C350.229 375.255 347.804 375.255 345.306 375.255Z" fill="black" stroke="white" stroke-width="6" mask="url(#path-1-inside-1_86_84)"/>
</svg>
