<svg width="95" height="24" viewBox="0 0 95 24" fill="none" xmlns="http://www.w3.org/2000/svg">
<path d="M0 23.6V0H3.6V23.6H0ZM4.8 23.6V0H6V23.6H4.8ZM7.2 23.6V0H10.8V23.6H7.2ZM12 23.6V0H13.2V23.6H12ZM16.8 23.6V0H18V23.6H16.8Z" fill="#DD2C40"/>
<path d="M19.2188 23.6V0H20.4188V23.6H19.2188ZM21.6187 23.6V0H22.8188V23.6H21.6187ZM24.0187 23.6V0H27.6187V23.6H24.0187ZM28.8188 23.6V0H32.4188V23.6H28.8188ZM36.0187 23.6V0H37.2188V23.6H36.0187Z" fill="#DD2C40"/>
<path d="M38.4375 23.6V0H42.0375V23.6H38.4375ZM43.2375 23.6V0H44.4375V23.6H43.2375ZM45.6375 23.6V0H46.8375V23.6H45.6375ZM50.4375 23.6V0H51.6375V23.6H50.4375ZM52.8375 23.6V0H56.4375V23.6H52.8375Z" fill="#DD2C40"/>
<path d="M57.6562 23.6V0H61.2562V23.6H57.6562ZM62.4562 23.6V0H63.6562V23.6H62.4562ZM64.8562 23.6V0H66.0563V23.6H64.8562ZM67.2562 23.6V0H68.4563V23.6H67.2562ZM72.0563 23.6V0H75.6562V23.6H72.0563Z" fill="#DD2C40"/>
<path d="M76.875 23.6V0H80.475V23.6H76.875ZM84.075 23.6V0H85.275V23.6H84.075ZM86.475 23.6V0H87.675V23.6H86.475ZM88.875 23.6V0H90.075V23.6H88.875ZM91.275 23.6V0H94.875V23.6H91.275Z" fill="#DD2C40"/>
</svg>
