<svg width="220" height="13" viewBox="0 0 220 13" fill="none" xmlns="http://www.w3.org/2000/svg">
<path d="M1.6 2.4C1.152 2.4 0.8 2.048 0.8 1.6C0.8 1.152 1.152 0.799999 1.6 0.799999C2.048 0.799999 2.4 1.152 2.4 1.6C2.4 2.048 2.048 2.4 1.6 2.4ZM3.2 2.4C2.752 2.4 2.4 2.048 2.4 1.6C2.4 1.152 2.752 0.799999 3.2 0.799999C3.648 0.799999 4 1.152 4 1.6C4 2.048 3.648 2.4 3.2 2.4ZM4.8 2.4C4.352 2.4 4 2.048 4 1.6C4 1.152 4.352 0.799999 4.8 0.799999C5.248 0.799999 5.6 1.152 5.6 1.6C5.6 2.048 5.248 2.4 4.8 2.4ZM6.4 2.4C5.952 2.4 5.6 2.048 5.6 1.6C5.6 1.152 5.952 0.799999 6.4 0.799999C6.848 0.799999 7.2 1.152 7.2 1.6C7.2 2.048 6.848 2.4 6.4 2.4ZM1.6 4.8C1.152 4.8 0.8 4.448 0.8 4C0.8 3.552 1.152 3.2 1.6 3.2C2.048 3.2 2.4 3.552 2.4 4C2.4 4.448 2.048 4.8 1.6 4.8ZM8 4.8C7.552 4.8 7.2 4.448 7.2 4C7.2 3.552 7.552 3.2 8 3.2C8.448 3.2 8.8 3.552 8.8 4C8.8 4.448 8.448 4.8 8 4.8ZM1.6 7.2C1.152 7.2 0.8 6.848 0.8 6.4C0.8 5.952 1.152 5.6 1.6 5.6C2.048 5.6 2.4 5.952 2.4 6.4C2.4 6.848 2.048 7.2 1.6 7.2ZM3.2 7.2C2.752 7.2 2.4 6.848 2.4 6.4C2.4 5.952 2.752 5.6 3.2 5.6C3.648 5.6 4 5.952 4 6.4C4 6.848 3.648 7.2 3.2 7.2ZM4.8 7.2C4.352 7.2 4 6.848 4 6.4C4 5.952 4.352 5.6 4.8 5.6C5.248 5.6 5.6 5.952 5.6 6.4C5.6 6.848 5.248 7.2 4.8 7.2ZM6.4 7.2C5.952 7.2 5.6 6.848 5.6 6.4C5.6 5.952 5.952 5.6 6.4 5.6C6.848 5.6 7.2 5.952 7.2 6.4C7.2 6.848 6.848 7.2 6.4 7.2ZM1.6 9.6C1.152 9.6 0.8 9.248 0.8 8.8C0.8 8.352 1.152 8 1.6 8C2.048 8 2.4 8.352 2.4 8.8C2.4 9.248 2.048 9.6 1.6 9.6ZM8 9.6C7.552 9.6 7.2 9.248 7.2 8.8C7.2 8.352 7.552 8 8 8C8.448 8 8.8 8.352 8.8 8.8C8.8 9.248 8.448 9.6 8 9.6ZM1.6 12C1.152 12 0.8 11.648 0.8 11.2C0.8 10.752 1.152 10.4 1.6 10.4C2.048 10.4 2.4 10.752 2.4 11.2C2.4 11.648 2.048 12 1.6 12ZM3.2 12C2.752 12 2.4 11.648 2.4 11.2C2.4 10.752 2.752 10.4 3.2 10.4C3.648 10.4 4 10.752 4 11.2C4 11.648 3.648 12 3.2 12ZM4.8 12C4.352 12 4 11.648 4 11.2C4 10.752 4.352 10.4 4.8 10.4C5.248 10.4 5.6 10.752 5.6 11.2C5.6 11.648 5.248 12 4.8 12ZM6.4 12C5.952 12 5.6 11.648 5.6 11.2C5.6 10.752 5.952 10.4 6.4 10.4C6.848 10.4 7.2 10.752 7.2 11.2C7.2 11.648 6.848 12 6.4 12ZM11.1938 2.4C10.7458 2.4 10.3938 2.048 10.3938 1.6C10.3938 1.152 10.7458 0.799999 11.1938 0.799999C11.6418 0.799999 11.9938 1.152 11.9938 1.6C11.9938 2.048 11.6418 2.4 11.1938 2.4ZM12.7938 2.4C12.3458 2.4 11.9938 2.048 11.9938 1.6C11.9938 1.152 12.3458 0.799999 12.7938 0.799999C13.2418 0.799999 13.5938 1.152 13.5938 1.6C13.5938 2.048 13.2418 2.4 12.7938 2.4ZM14.3938 2.4C13.9458 2.4 13.5938 2.048 13.5938 1.6C13.5938 1.152 13.9458 0.799999 14.3938 0.799999C14.8418 0.799999 15.1938 1.152 15.1938 1.6C15.1938 2.048 14.8418 2.4 14.3938 2.4ZM15.9938 2.4C15.5458 2.4 15.1938 2.048 15.1938 1.6C15.1938 1.152 15.5458 0.799999 15.9938 0.799999C16.4418 0.799999 16.7938 1.152 16.7938 1.6C16.7938 2.048 16.4418 2.4 15.9938 2.4ZM17.5938 2.4C17.1458 2.4 16.7938 2.048 16.7938 1.6C16.7938 1.152 17.1458 0.799999 17.5938 0.799999C18.0417 0.799999 18.3938 1.152 18.3938 1.6C18.3938 2.048 18.0417 2.4 17.5938 2.4ZM11.1938 4.8C10.7458 4.8 10.3938 4.448 10.3938 4C10.3938 3.552 10.7458 3.2 11.1938 3.2C11.6418 3.2 11.9938 3.552 11.9938 4C11.9938 4.448 11.6418 4.8 11.1938 4.8ZM11.1938 7.2C10.7458 7.2 10.3938 6.848 10.3938 6.4C10.3938 5.952 10.7458 5.6 11.1938 5.6C11.6418 5.6 11.9938 5.952 11.9938 6.4C11.9938 6.848 11.6418 7.2 11.1938 7.2ZM12.7938 7.2C12.3458 7.2 11.9938 6.848 11.9938 6.4C11.9938 5.952 12.3458 5.6 12.7938 5.6C13.2418 5.6 13.5938 5.952 13.5938 6.4C13.5938 6.848 13.2418 7.2 12.7938 7.2ZM14.3938 7.2C13.9458 7.2 13.5938 6.848 13.5938 6.4C13.5938 5.952 13.9458 5.6 14.3938 5.6C14.8418 5.6 15.1938 5.952 15.1938 6.4C15.1938 6.848 14.8418 7.2 14.3938 7.2ZM15.9938 7.2C15.5458 7.2 15.1938 6.848 15.1938 6.4C15.1938 5.952 15.5458 5.6 15.9938 5.6C16.4418 5.6 16.7938 5.952 16.7938 6.4C16.7938 6.848 16.4418 7.2 15.9938 7.2ZM11.1938 9.6C10.7458 9.6 10.3938 9.248 10.3938 8.8C10.3938 8.352 10.7458 8 11.1938 8C11.6418 8 11.9938 8.352 11.9938 8.8C11.9938 9.248 11.6418 9.6 11.1938 9.6ZM11.1938 12C10.7458 12 10.3938 11.648 10.3938 11.2C10.3938 10.752 10.7458 10.4 11.1938 10.4C11.6418 10.4 11.9938 10.752 11.9938 11.2C11.9938 11.648 11.6418 12 11.1938 12ZM12.7938 12C12.3458 12 11.9938 11.648 11.9938 11.2C11.9938 10.752 12.3458 10.4 12.7938 10.4C13.2418 10.4 13.5938 10.752 13.5938 11.2C13.5938 11.648 13.2418 12 12.7938 12ZM14.3938 12C13.9458 12 13.5938 11.648 13.5938 11.2C13.5938 10.752 13.9458 10.4 14.3938 10.4C14.8418 10.4 15.1938 10.752 15.1938 11.2C15.1938 11.648 14.8418 12 14.3938 12ZM15.9938 12C15.5458 12 15.1938 11.648 15.1938 11.2C15.1938 10.752 15.5458 10.4 15.9938 10.4C16.4418 10.4 16.7938 10.752 16.7938 11.2C16.7938 11.648 16.4418 12 15.9938 12ZM17.5938 12C17.1458 12 16.7938 11.648 16.7938 11.2C16.7938 10.752 17.1458 10.4 17.5938 10.4C18.0417 10.4 18.3938 10.752 18.3938 11.2C18.3938 11.648 18.0417 12 17.5938 12ZM23.9875 2.4C23.5395 2.4 23.1875 2.048 23.1875 1.6C23.1875 1.152 23.5395 0.799999 23.9875 0.799999C24.4355 0.799999 24.7875 1.152 24.7875 1.6C24.7875 2.048 24.4355 2.4 23.9875 2.4ZM22.3875 4.8C21.9395 4.8 21.5875 4.448 21.5875 4C21.5875 3.552 21.9395 3.2 22.3875 3.2C22.8355 3.2 23.1875 3.552 23.1875 4C23.1875 4.448 22.8355 4.8 22.3875 4.8ZM25.5875 4.8C25.1395 4.8 24.7875 4.448 24.7875 4C24.7875 3.552 25.1395 3.2 25.5875 3.2C26.0355 3.2 26.3875 3.552 26.3875 4C26.3875 4.448 26.0355 4.8 25.5875 4.8ZM20.7875 7.2C20.3395 7.2 19.9875 6.848 19.9875 6.4C19.9875 5.952 20.3395 5.6 20.7875 5.6C21.2355 5.6 21.5875 5.952 21.5875 6.4C21.5875 6.848 21.2355 7.2 20.7875 7.2ZM27.1875 7.2C26.7395 7.2 26.3875 6.848 26.3875 6.4C26.3875 5.952 26.7395 5.6 27.1875 5.6C27.6355 5.6 27.9875 5.952 27.9875 6.4C27.9875 6.848 27.6355 7.2 27.1875 7.2ZM20.7875 9.6C20.3395 9.6 19.9875 9.248 19.9875 8.8C19.9875 8.352 20.3395 8 20.7875 8C21.2355 8 21.5875 8.352 21.5875 8.8C21.5875 9.248 21.2355 9.6 20.7875 9.6ZM22.3875 9.6C21.9395 9.6 21.5875 9.248 21.5875 8.8C21.5875 8.352 21.9395 8 22.3875 8C22.8355 8 23.1875 8.352 23.1875 8.8C23.1875 9.248 22.8355 9.6 22.3875 9.6ZM23.9875 9.6C23.5395 9.6 23.1875 9.248 23.1875 8.8C23.1875 8.352 23.5395 8 23.9875 8C24.4355 8 24.7875 8.352 24.7875 8.8C24.7875 9.248 24.4355 9.6 23.9875 9.6ZM25.5875 9.6C25.1395 9.6 24.7875 9.248 24.7875 8.8C24.7875 8.352 25.1395 8 25.5875 8C26.0355 8 26.3875 8.352 26.3875 8.8C26.3875 9.248 26.0355 9.6 25.5875 9.6ZM27.1875 9.6C26.7395 9.6 26.3875 9.248 26.3875 8.8C26.3875 8.352 26.7395 8 27.1875 8C27.6355 8 27.9875 8.352 27.9875 8.8C27.9875 9.248 27.6355 9.6 27.1875 9.6ZM20.7875 12C20.3395 12 19.9875 11.648 19.9875 11.2C19.9875 10.752 20.3395 10.4 20.7875 10.4C21.2355 10.4 21.5875 10.752 21.5875 11.2C21.5875 11.648 21.2355 12 20.7875 12ZM27.1875 12C26.7395 12 26.3875 11.648 26.3875 11.2C26.3875 10.752 26.7395 10.4 27.1875 10.4C27.6355 10.4 27.9875 10.752 27.9875 11.2C27.9875 11.648 27.6355 12 27.1875 12ZM31.9813 2.4C31.5333 2.4 31.1813 2.048 31.1813 1.6C31.1813 1.152 31.5333 0.799999 31.9813 0.799999C32.4293 0.799999 32.7812 1.152 32.7812 1.6C32.7812 2.048 32.4293 2.4 31.9813 2.4ZM33.5813 2.4C33.1333 2.4 32.7812 2.048 32.7812 1.6C32.7812 1.152 33.1333 0.799999 33.5813 0.799999C34.0293 0.799999 34.3813 1.152 34.3813 1.6C34.3813 2.048 34.0293 2.4 33.5813 2.4ZM35.1813 2.4C34.7333 2.4 34.3813 2.048 34.3813 1.6C34.3813 1.152 34.7333 0.799999 35.1813 0.799999C35.6293 0.799999 35.9813 1.152 35.9813 1.6C35.9813 2.048 35.6293 2.4 35.1813 2.4ZM30.3813 4.8C29.9333 4.8 29.5813 4.448 29.5813 4C29.5813 3.552 29.9333 3.2 30.3813 3.2C30.8293 3.2 31.1813 3.552 31.1813 4C31.1813 4.448 30.8293 4.8 30.3813 4.8ZM36.7812 4.8C36.3333 4.8 35.9813 4.448 35.9813 4C35.9813 3.552 36.3333 3.2 36.7812 3.2C37.2292 3.2 37.5813 3.552 37.5813 4C37.5813 4.448 37.2292 4.8 36.7812 4.8ZM30.3813 7.2C29.9333 7.2 29.5813 6.848 29.5813 6.4C29.5813 5.952 29.9333 5.6 30.3813 5.6C30.8293 5.6 31.1813 5.952 31.1813 6.4C31.1813 6.848 30.8293 7.2 30.3813 7.2ZM30.3813 9.6C29.9333 9.6 29.5813 9.248 29.5813 8.8C29.5813 8.352 29.9333 8 30.3813 8C30.8293 8 31.1813 8.352 31.1813 8.8C31.1813 9.248 30.8293 9.6 30.3813 9.6ZM36.7812 9.6C36.3333 9.6 35.9813 9.248 35.9813 8.8C35.9813 8.352 36.3333 8 36.7812 8C37.2292 8 37.5813 8.352 37.5813 8.8C37.5813 9.248 37.2292 9.6 36.7812 9.6ZM31.9813 12C31.5333 12 31.1813 11.648 31.1813 11.2C31.1813 10.752 31.5333 10.4 31.9813 10.4C32.4293 10.4 32.7812 10.752 32.7812 11.2C32.7812 11.648 32.4293 12 31.9813 12ZM33.5813 12C33.1333 12 32.7812 11.648 32.7812 11.2C32.7812 10.752 33.1333 10.4 33.5813 10.4C34.0293 10.4 34.3813 10.752 34.3813 11.2C34.3813 11.648 34.0293 12 33.5813 12ZM35.1813 12C34.7333 12 34.3813 11.648 34.3813 11.2C34.3813 10.752 34.7333 10.4 35.1813 10.4C35.6293 10.4 35.9813 10.752 35.9813 11.2C35.9813 11.648 35.6293 12 35.1813 12ZM39.975 2.4C39.527 2.4 39.175 2.048 39.175 1.6C39.175 1.152 39.527 0.799999 39.975 0.799999C40.423 0.799999 40.775 1.152 40.775 1.6C40.775 2.048 40.423 2.4 39.975 2.4ZM46.375 2.4C45.927 2.4 45.575 2.048 45.575 1.6C45.575 1.152 45.927 0.799999 46.375 0.799999C46.823 0.799999 47.175 1.152 47.175 1.6C47.175 2.048 46.823 2.4 46.375 2.4ZM39.975 4.8C39.527 4.8 39.175 4.448 39.175 4C39.175 3.552 39.527 3.2 39.975 3.2C40.423 3.2 40.775 3.552 40.775 4C40.775 4.448 40.423 4.8 39.975 4.8ZM46.375 4.8C45.927 4.8 45.575 4.448 45.575 4C45.575 3.552 45.927 3.2 46.375 3.2C46.823 3.2 47.175 3.552 47.175 4C47.175 4.448 46.823 4.8 46.375 4.8ZM39.975 7.2C39.527 7.2 39.175 6.848 39.175 6.4C39.175 5.952 39.527 5.6 39.975 5.6C40.423 5.6 40.775 5.952 40.775 6.4C40.775 6.848 40.423 7.2 39.975 7.2ZM41.575 7.2C41.127 7.2 40.775 6.848 40.775 6.4C40.775 5.952 41.127 5.6 41.575 5.6C42.023 5.6 42.375 5.952 42.375 6.4C42.375 6.848 42.023 7.2 41.575 7.2ZM43.175 7.2C42.727 7.2 42.375 6.848 42.375 6.4C42.375 5.952 42.727 5.6 43.175 5.6C43.623 5.6 43.975 5.952 43.975 6.4C43.975 6.848 43.623 7.2 43.175 7.2ZM44.775 7.2C44.327 7.2 43.975 6.848 43.975 6.4C43.975 5.952 44.327 5.6 44.775 5.6C45.223 5.6 45.575 5.952 45.575 6.4C45.575 6.848 45.223 7.2 44.775 7.2ZM46.375 7.2C45.927 7.2 45.575 6.848 45.575 6.4C45.575 5.952 45.927 5.6 46.375 5.6C46.823 5.6 47.175 5.952 47.175 6.4C47.175 6.848 46.823 7.2 46.375 7.2ZM39.975 9.6C39.527 9.6 39.175 9.248 39.175 8.8C39.175 8.352 39.527 8 39.975 8C40.423 8 40.775 8.352 40.775 8.8C40.775 9.248 40.423 9.6 39.975 9.6ZM46.375 9.6C45.927 9.6 45.575 9.248 45.575 8.8C45.575 8.352 45.927 8 46.375 8C46.823 8 47.175 8.352 47.175 8.8C47.175 9.248 46.823 9.6 46.375 9.6ZM39.975 12C39.527 12 39.175 11.648 39.175 11.2C39.175 10.752 39.527 10.4 39.975 10.4C40.423 10.4 40.775 10.752 40.775 11.2C40.775 11.648 40.423 12 39.975 12ZM46.375 12C45.927 12 45.575 11.648 45.575 11.2C45.575 10.752 45.927 10.4 46.375 10.4C46.823 10.4 47.175 10.752 47.175 11.2C47.175 11.648 46.823 12 46.375 12ZM52.7719 2.4C52.3239 2.4 51.9719 2.048 51.9719 1.6C51.9719 1.152 52.3239 0.799999 52.7719 0.799999C53.2199 0.799999 53.5719 1.152 53.5719 1.6C53.5719 2.048 53.2199 2.4 52.7719 2.4ZM54.3719 2.4C53.9239 2.4 53.5719 2.048 53.5719 1.6C53.5719 1.152 53.9239 0.799999 54.3719 0.799999C54.8199 0.799999 55.1719 1.152 55.1719 1.6C55.1719 2.048 54.8199 2.4 54.3719 2.4ZM55.9719 2.4C55.5239 2.4 55.1719 2.048 55.1719 1.6C55.1719 1.152 55.5239 0.799999 55.9719 0.799999C56.4199 0.799999 56.7719 1.152 56.7719 1.6C56.7719 2.048 56.4199 2.4 55.9719 2.4ZM57.5719 2.4C57.1239 2.4 56.7719 2.048 56.7719 1.6C56.7719 1.152 57.1239 0.799999 57.5719 0.799999C58.0199 0.799999 58.3719 1.152 58.3719 1.6C58.3719 2.048 58.0199 2.4 57.5719 2.4ZM59.1719 2.4C58.7239 2.4 58.3719 2.048 58.3719 1.6C58.3719 1.152 58.7239 0.799999 59.1719 0.799999C59.6199 0.799999 59.9719 1.152 59.9719 1.6C59.9719 2.048 59.6199 2.4 59.1719 2.4ZM52.7719 4.8C52.3239 4.8 51.9719 4.448 51.9719 4C51.9719 3.552 52.3239 3.2 52.7719 3.2C53.2199 3.2 53.5719 3.552 53.5719 4C53.5719 4.448 53.2199 4.8 52.7719 4.8ZM52.7719 7.2C52.3239 7.2 51.9719 6.848 51.9719 6.4C51.9719 5.952 52.3239 5.6 52.7719 5.6C53.2199 5.6 53.5719 5.952 53.5719 6.4C53.5719 6.848 53.2199 7.2 52.7719 7.2ZM54.3719 7.2C53.9239 7.2 53.5719 6.848 53.5719 6.4C53.5719 5.952 53.9239 5.6 54.3719 5.6C54.8199 5.6 55.1719 5.952 55.1719 6.4C55.1719 6.848 54.8199 7.2 54.3719 7.2ZM55.9719 7.2C55.5239 7.2 55.1719 6.848 55.1719 6.4C55.1719 5.952 55.5239 5.6 55.9719 5.6C56.4199 5.6 56.7719 5.952 56.7719 6.4C56.7719 6.848 56.4199 7.2 55.9719 7.2ZM57.5719 7.2C57.1239 7.2 56.7719 6.848 56.7719 6.4C56.7719 5.952 57.1239 5.6 57.5719 5.6C58.0199 5.6 58.3719 5.952 58.3719 6.4C58.3719 6.848 58.0199 7.2 57.5719 7.2ZM52.7719 9.6C52.3239 9.6 51.9719 9.248 51.9719 8.8C51.9719 8.352 52.3239 8 52.7719 8C53.2199 8 53.5719 8.352 53.5719 8.8C53.5719 9.248 53.2199 9.6 52.7719 9.6ZM52.7719 12C52.3239 12 51.9719 11.648 51.9719 11.2C51.9719 10.752 52.3239 10.4 52.7719 10.4C53.2199 10.4 53.5719 10.752 53.5719 11.2C53.5719 11.648 53.2199 12 52.7719 12ZM54.3719 12C53.9239 12 53.5719 11.648 53.5719 11.2C53.5719 10.752 53.9239 10.4 54.3719 10.4C54.8199 10.4 55.1719 10.752 55.1719 11.2C55.1719 11.648 54.8199 12 54.3719 12ZM55.9719 12C55.5239 12 55.1719 11.648 55.1719 11.2C55.1719 10.752 55.5239 10.4 55.9719 10.4C56.4199 10.4 56.7719 10.752 56.7719 11.2C56.7719 11.648 56.4199 12 55.9719 12ZM57.5719 12C57.1239 12 56.7719 11.648 56.7719 11.2C56.7719 10.752 57.1239 10.4 57.5719 10.4C58.0199 10.4 58.3719 10.752 58.3719 11.2C58.3719 11.648 58.0199 12 57.5719 12ZM59.1719 12C58.7239 12 58.3719 11.648 58.3719 11.2C58.3719 10.752 58.7239 10.4 59.1719 10.4C59.6199 10.4 59.9719 10.752 59.9719 11.2C59.9719 11.648 59.6199 12 59.1719 12ZM62.3656 2.4C61.9176 2.4 61.5656 2.048 61.5656 1.6C61.5656 1.152 61.9176 0.799999 62.3656 0.799999C62.8136 0.799999 63.1656 1.152 63.1656 1.6C63.1656 2.048 62.8136 2.4 62.3656 2.4ZM63.9656 2.4C63.5176 2.4 63.1656 2.048 63.1656 1.6C63.1656 1.152 63.5176 0.799999 63.9656 0.799999C64.4136 0.799999 64.7656 1.152 64.7656 1.6C64.7656 2.048 64.4136 2.4 63.9656 2.4ZM65.5656 2.4C65.1176 2.4 64.7656 2.048 64.7656 1.6C64.7656 1.152 65.1176 0.799999 65.5656 0.799999C66.0136 0.799999 66.3656 1.152 66.3656 1.6C66.3656 2.048 66.0136 2.4 65.5656 2.4ZM67.1656 2.4C66.7176 2.4 66.3656 2.048 66.3656 1.6C66.3656 1.152 66.7176 0.799999 67.1656 0.799999C67.6136 0.799999 67.9656 1.152 67.9656 1.6C67.9656 2.048 67.6136 2.4 67.1656 2.4ZM62.3656 4.8C61.9176 4.8 61.5656 4.448 61.5656 4C61.5656 3.552 61.9176 3.2 62.3656 3.2C62.8136 3.2 63.1656 3.552 63.1656 4C63.1656 4.448 62.8136 4.8 62.3656 4.8ZM68.7656 4.8C68.3176 4.8 67.9656 4.448 67.9656 4C67.9656 3.552 68.3176 3.2 68.7656 3.2C69.2136 3.2 69.5656 3.552 69.5656 4C69.5656 4.448 69.2136 4.8 68.7656 4.8ZM62.3656 7.2C61.9176 7.2 61.5656 6.848 61.5656 6.4C61.5656 5.952 61.9176 5.6 62.3656 5.6C62.8136 5.6 63.1656 5.952 63.1656 6.4C63.1656 6.848 62.8136 7.2 62.3656 7.2ZM63.9656 7.2C63.5176 7.2 63.1656 6.848 63.1656 6.4C63.1656 5.952 63.5176 5.6 63.9656 5.6C64.4136 5.6 64.7656 5.952 64.7656 6.4C64.7656 6.848 64.4136 7.2 63.9656 7.2ZM65.5656 7.2C65.1176 7.2 64.7656 6.848 64.7656 6.4C64.7656 5.952 65.1176 5.6 65.5656 5.6C66.0136 5.6 66.3656 5.952 66.3656 6.4C66.3656 6.848 66.0136 7.2 65.5656 7.2ZM67.1656 7.2C66.7176 7.2 66.3656 6.848 66.3656 6.4C66.3656 5.952 66.7176 5.6 67.1656 5.6C67.6136 5.6 67.9656 5.952 67.9656 6.4C67.9656 6.848 67.6136 7.2 67.1656 7.2ZM62.3656 9.6C61.9176 9.6 61.5656 9.248 61.5656 8.8C61.5656 8.352 61.9176 8 62.3656 8C62.8136 8 63.1656 8.352 63.1656 8.8C63.1656 9.248 62.8136 9.6 62.3656 9.6ZM62.3656 12C61.9176 12 61.5656 11.648 61.5656 11.2C61.5656 10.752 61.9176 10.4 62.3656 10.4C62.8136 10.4 63.1656 10.752 63.1656 11.2C63.1656 11.648 62.8136 12 62.3656 12ZM71.9594 2.4C71.5114 2.4 71.1594 2.048 71.1594 1.6C71.1594 1.152 71.5114 0.799999 71.9594 0.799999C72.4074 0.799999 72.7594 1.152 72.7594 1.6C72.7594 2.048 72.4074 2.4 71.9594 2.4ZM73.5594 2.4C73.1114 2.4 72.7594 2.048 72.7594 1.6C72.7594 1.152 73.1114 0.799999 73.5594 0.799999C74.0074 0.799999 74.3594 1.152 74.3594 1.6C74.3594 2.048 74.0074 2.4 73.5594 2.4ZM75.1594 2.4C74.7114 2.4 74.3594 2.048 74.3594 1.6C74.3594 1.152 74.7114 0.799999 75.1594 0.799999C75.6074 0.799999 75.9594 1.152 75.9594 1.6C75.9594 2.048 75.6074 2.4 75.1594 2.4ZM73.5594 4.8C73.1114 4.8 72.7594 4.448 72.7594 4C72.7594 3.552 73.1114 3.2 73.5594 3.2C74.0074 3.2 74.3594 3.552 74.3594 4C74.3594 4.448 74.0074 4.8 73.5594 4.8ZM73.5594 7.2C73.1114 7.2 72.7594 6.848 72.7594 6.4C72.7594 5.952 73.1114 5.6 73.5594 5.6C74.0074 5.6 74.3594 5.952 74.3594 6.4C74.3594 6.848 74.0074 7.2 73.5594 7.2ZM73.5594 9.6C73.1114 9.6 72.7594 9.248 72.7594 8.8C72.7594 8.352 73.1114 8 73.5594 8C74.0074 8 74.3594 8.352 74.3594 8.8C74.3594 9.248 74.0074 9.6 73.5594 9.6ZM71.9594 12C71.5114 12 71.1594 11.648 71.1594 11.2C71.1594 10.752 71.5114 10.4 71.9594 10.4C72.4074 10.4 72.7594 10.752 72.7594 11.2C72.7594 11.648 72.4074 12 71.9594 12ZM73.5594 12C73.1114 12 72.7594 11.648 72.7594 11.2C72.7594 10.752 73.1114 10.4 73.5594 10.4C74.0074 10.4 74.3594 10.752 74.3594 11.2C74.3594 11.648 74.0074 12 73.5594 12ZM75.1594 12C74.7114 12 74.3594 11.648 74.3594 11.2C74.3594 10.752 74.7114 10.4 75.1594 10.4C75.6074 10.4 75.9594 10.752 75.9594 11.2C75.9594 11.648 75.6074 12 75.1594 12ZM79.9656 2.4C79.5176 2.4 79.1656 2.048 79.1656 1.6C79.1656 1.152 79.5176 0.799999 79.9656 0.799999C80.4136 0.799999 80.7656 1.152 80.7656 1.6C80.7656 2.048 80.4136 2.4 79.9656 2.4ZM81.5656 2.4C81.1176 2.4 80.7656 2.048 80.7656 1.6C80.7656 1.152 81.1176 0.799999 81.5656 0.799999C82.0136 0.799999 82.3656 1.152 82.3656 1.6C82.3656 2.048 82.0136 2.4 81.5656 2.4ZM83.1656 2.4C82.7176 2.4 82.3656 2.048 82.3656 1.6C82.3656 1.152 82.7176 0.799999 83.1656 0.799999C83.6136 0.799999 83.9656 1.152 83.9656 1.6C83.9656 2.048 83.6136 2.4 83.1656 2.4ZM84.7656 2.4C84.3176 2.4 83.9656 2.048 83.9656 1.6C83.9656 1.152 84.3176 0.799999 84.7656 0.799999C85.2136 0.799999 85.5656 1.152 85.5656 1.6C85.5656 2.048 85.2136 2.4 84.7656 2.4ZM78.3656 4.8C77.9176 4.8 77.5656 4.448 77.5656 4C77.5656 3.552 77.9176 3.2 78.3656 3.2C78.8136 3.2 79.1656 3.552 79.1656 4C79.1656 4.448 78.8136 4.8 78.3656 4.8ZM79.9656 7.2C79.5176 7.2 79.1656 6.848 79.1656 6.4C79.1656 5.952 79.5176 5.6 79.9656 5.6C80.4136 5.6 80.7656 5.952 80.7656 6.4C80.7656 6.848 80.4136 7.2 79.9656 7.2ZM81.5656 7.2C81.1176 7.2 80.7656 6.848 80.7656 6.4C80.7656 5.952 81.1176 5.6 81.5656 5.6C82.0136 5.6 82.3656 5.952 82.3656 6.4C82.3656 6.848 82.0136 7.2 81.5656 7.2ZM83.1656 7.2C82.7176 7.2 82.3656 6.848 82.3656 6.4C82.3656 5.952 82.7176 5.6 83.1656 5.6C83.6136 5.6 83.9656 5.952 83.9656 6.4C83.9656 6.848 83.6136 7.2 83.1656 7.2ZM84.7656 9.6C84.3176 9.6 83.9656 9.248 83.9656 8.8C83.9656 8.352 84.3176 8 84.7656 8C85.2136 8 85.5656 8.352 85.5656 8.8C85.5656 9.248 85.2136 9.6 84.7656 9.6ZM78.3656 12C77.9176 12 77.5656 11.648 77.5656 11.2C77.5656 10.752 77.9176 10.4 78.3656 10.4C78.8136 10.4 79.1656 10.752 79.1656 11.2C79.1656 11.648 78.8136 12 78.3656 12ZM79.9656 12C79.5176 12 79.1656 11.648 79.1656 11.2C79.1656 10.752 79.5176 10.4 79.9656 10.4C80.4136 10.4 80.7656 10.752 80.7656 11.2C80.7656 11.648 80.4136 12 79.9656 12ZM81.5656 12C81.1176 12 80.7656 11.648 80.7656 11.2C80.7656 10.752 81.1176 10.4 81.5656 10.4C82.0136 10.4 82.3656 10.752 82.3656 11.2C82.3656 11.648 82.0136 12 81.5656 12ZM83.1656 12C82.7176 12 82.3656 11.648 82.3656 11.2C82.3656 10.752 82.7176 10.4 83.1656 10.4C83.6136 10.4 83.9656 10.752 83.9656 11.2C83.9656 11.648 83.6136 12 83.1656 12ZM89.5594 2.4C89.1114 2.4 88.7594 2.048 88.7594 1.6C88.7594 1.152 89.1114 0.799999 89.5594 0.799999C90.0074 0.799999 90.3594 1.152 90.3594 1.6C90.3594 2.048 90.0074 2.4 89.5594 2.4ZM91.1594 2.4C90.7114 2.4 90.3594 2.048 90.3594 1.6C90.3594 1.152 90.7114 0.799999 91.1594 0.799999C91.6074 0.799999 91.9594 1.152 91.9594 1.6C91.9594 2.048 91.6074 2.4 91.1594 2.4ZM92.7594 2.4C92.3114 2.4 91.9594 2.048 91.9594 1.6C91.9594 1.152 92.3114 0.799999 92.7594 0.799999C93.2074 0.799999 93.5594 1.152 93.5594 1.6C93.5594 2.048 93.2074 2.4 92.7594 2.4ZM87.9594 4.8C87.5114 4.8 87.1594 4.448 87.1594 4C87.1594 3.552 87.5114 3.2 87.9594 3.2C88.4074 3.2 88.7594 3.552 88.7594 4C88.7594 4.448 88.4074 4.8 87.9594 4.8ZM94.3594 4.8C93.9114 4.8 93.5594 4.448 93.5594 4C93.5594 3.552 93.9114 3.2 94.3594 3.2C94.8074 3.2 95.1594 3.552 95.1594 4C95.1594 4.448 94.8074 4.8 94.3594 4.8ZM87.9594 7.2C87.5114 7.2 87.1594 6.848 87.1594 6.4C87.1594 5.952 87.5114 5.6 87.9594 5.6C88.4074 5.6 88.7594 5.952 88.7594 6.4C88.7594 6.848 88.4074 7.2 87.9594 7.2ZM94.3594 7.2C93.9114 7.2 93.5594 6.848 93.5594 6.4C93.5594 5.952 93.9114 5.6 94.3594 5.6C94.8074 5.6 95.1594 5.952 95.1594 6.4C95.1594 6.848 94.8074 7.2 94.3594 7.2ZM87.9594 9.6C87.5114 9.6 87.1594 9.248 87.1594 8.8C87.1594 8.352 87.5114 8 87.9594 8C88.4074 8 88.7594 8.352 88.7594 8.8C88.7594 9.248 88.4074 9.6 87.9594 9.6ZM94.3594 9.6C93.9114 9.6 93.5594 9.248 93.5594 8.8C93.5594 8.352 93.9114 8 94.3594 8C94.8074 8 95.1594 8.352 95.1594 8.8C95.1594 9.248 94.8074 9.6 94.3594 9.6ZM89.5594 12C89.1114 12 88.7594 11.648 88.7594 11.2C88.7594 10.752 89.1114 10.4 89.5594 10.4C90.0074 10.4 90.3594 10.752 90.3594 11.2C90.3594 11.648 90.0074 12 89.5594 12ZM91.1594 12C90.7114 12 90.3594 11.648 90.3594 11.2C90.3594 10.752 90.7114 10.4 91.1594 10.4C91.6074 10.4 91.9594 10.752 91.9594 11.2C91.9594 11.648 91.6074 12 91.1594 12ZM92.7594 12C92.3114 12 91.9594 11.648 91.9594 11.2C91.9594 10.752 92.3114 10.4 92.7594 10.4C93.2074 10.4 93.5594 10.752 93.5594 11.2C93.5594 11.648 93.2074 12 92.7594 12ZM97.5531 2.4C97.1051 2.4 96.7531 2.048 96.7531 1.6C96.7531 1.152 97.1051 0.799999 97.5531 0.799999C98.0011 0.799999 98.3531 1.152 98.3531 1.6C98.3531 2.048 98.0011 2.4 97.5531 2.4ZM99.1531 2.4C98.7051 2.4 98.3531 2.048 98.3531 1.6C98.3531 1.152 98.7051 0.799999 99.1531 0.799999C99.6011 0.799999 99.9531 1.152 99.9531 1.6C99.9531 2.048 99.6011 2.4 99.1531 2.4ZM100.753 2.4C100.305 2.4 99.9531 2.048 99.9531 1.6C99.9531 1.152 100.305 0.799999 100.753 0.799999C101.201 0.799999 101.553 1.152 101.553 1.6C101.553 2.048 101.201 2.4 100.753 2.4ZM102.353 2.4C101.905 2.4 101.553 2.048 101.553 1.6C101.553 1.152 101.905 0.799999 102.353 0.799999C102.801 0.799999 103.153 1.152 103.153 1.6C103.153 2.048 102.801 2.4 102.353 2.4ZM97.5531 4.8C97.1051 4.8 96.7531 4.448 96.7531 4C96.7531 3.552 97.1051 3.2 97.5531 3.2C98.0011 3.2 98.3531 3.552 98.3531 4C98.3531 4.448 98.0011 4.8 97.5531 4.8ZM103.953 4.8C103.505 4.8 103.153 4.448 103.153 4C103.153 3.552 103.505 3.2 103.953 3.2C104.401 3.2 104.753 3.552 104.753 4C104.753 4.448 104.401 4.8 103.953 4.8ZM97.5531 7.2C97.1051 7.2 96.7531 6.848 96.7531 6.4C96.7531 5.952 97.1051 5.6 97.5531 5.6C98.0011 5.6 98.3531 5.952 98.3531 6.4C98.3531 6.848 98.0011 7.2 97.5531 7.2ZM103.953 7.2C103.505 7.2 103.153 6.848 103.153 6.4C103.153 5.952 103.505 5.6 103.953 5.6C104.401 5.6 104.753 5.952 104.753 6.4C104.753 6.848 104.401 7.2 103.953 7.2ZM97.5531 9.6C97.1051 9.6 96.7531 9.248 96.7531 8.8C96.7531 8.352 97.1051 8 97.5531 8C98.0011 8 98.3531 8.352 98.3531 8.8C98.3531 9.248 98.0011 9.6 97.5531 9.6ZM103.953 9.6C103.505 9.6 103.153 9.248 103.153 8.8C103.153 8.352 103.505 8 103.953 8C104.401 8 104.753 8.352 104.753 8.8C104.753 9.248 104.401 9.6 103.953 9.6ZM97.5531 12C97.1051 12 96.7531 11.648 96.7531 11.2C96.7531 10.752 97.1051 10.4 97.5531 10.4C98.0011 10.4 98.3531 10.752 98.3531 11.2C98.3531 11.648 98.0011 12 97.5531 12ZM99.1531 12C98.7051 12 98.3531 11.648 98.3531 11.2C98.3531 10.752 98.7051 10.4 99.1531 10.4C99.6011 10.4 99.9531 10.752 99.9531 11.2C99.9531 11.648 99.6011 12 99.1531 12ZM100.753 12C100.305 12 99.9531 11.648 99.9531 11.2C99.9531 10.752 100.305 10.4 100.753 10.4C101.201 10.4 101.553 10.752 101.553 11.2C101.553 11.648 101.201 12 100.753 12ZM102.353 12C101.905 12 101.553 11.648 101.553 11.2C101.553 10.752 101.905 10.4 102.353 10.4C102.801 10.4 103.153 10.752 103.153 11.2C103.153 11.648 102.801 12 102.353 12ZM107.147 2.4C106.699 2.4 106.347 2.048 106.347 1.6C106.347 1.152 106.699 0.799999 107.147 0.799999C107.595 0.799999 107.947 1.152 107.947 1.6C107.947 2.048 107.595 2.4 107.147 2.4ZM108.747 2.4C108.299 2.4 107.947 2.048 107.947 1.6C107.947 1.152 108.299 0.799999 108.747 0.799999C109.195 0.799999 109.547 1.152 109.547 1.6C109.547 2.048 109.195 2.4 108.747 2.4ZM110.347 2.4C109.899 2.4 109.547 2.048 109.547 1.6C109.547 1.152 109.899 0.799999 110.347 0.799999C110.795 0.799999 111.147 1.152 111.147 1.6C111.147 2.048 110.795 2.4 110.347 2.4ZM111.947 2.4C111.499 2.4 111.147 2.048 111.147 1.6C111.147 1.152 111.499 0.799999 111.947 0.799999C112.395 0.799999 112.747 1.152 112.747 1.6C112.747 2.048 112.395 2.4 111.947 2.4ZM113.547 2.4C113.099 2.4 112.747 2.048 112.747 1.6C112.747 1.152 113.099 0.799999 113.547 0.799999C113.995 0.799999 114.347 1.152 114.347 1.6C114.347 2.048 113.995 2.4 113.547 2.4ZM107.147 4.8C106.699 4.8 106.347 4.448 106.347 4C106.347 3.552 106.699 3.2 107.147 3.2C107.595 3.2 107.947 3.552 107.947 4C107.947 4.448 107.595 4.8 107.147 4.8ZM107.147 7.2C106.699 7.2 106.347 6.848 106.347 6.4C106.347 5.952 106.699 5.6 107.147 5.6C107.595 5.6 107.947 5.952 107.947 6.4C107.947 6.848 107.595 7.2 107.147 7.2ZM108.747 7.2C108.299 7.2 107.947 6.848 107.947 6.4C107.947 5.952 108.299 5.6 108.747 5.6C109.195 5.6 109.547 5.952 109.547 6.4C109.547 6.848 109.195 7.2 108.747 7.2ZM110.347 7.2C109.899 7.2 109.547 6.848 109.547 6.4C109.547 5.952 109.899 5.6 110.347 5.6C110.795 5.6 111.147 5.952 111.147 6.4C111.147 6.848 110.795 7.2 110.347 7.2ZM111.947 7.2C111.499 7.2 111.147 6.848 111.147 6.4C111.147 5.952 111.499 5.6 111.947 5.6C112.395 5.6 112.747 5.952 112.747 6.4C112.747 6.848 112.395 7.2 111.947 7.2ZM107.147 9.6C106.699 9.6 106.347 9.248 106.347 8.8C106.347 8.352 106.699 8 107.147 8C107.595 8 107.947 8.352 107.947 8.8C107.947 9.248 107.595 9.6 107.147 9.6ZM107.147 12C106.699 12 106.347 11.648 106.347 11.2C106.347 10.752 106.699 10.4 107.147 10.4C107.595 10.4 107.947 10.752 107.947 11.2C107.947 11.648 107.595 12 107.147 12ZM108.747 12C108.299 12 107.947 11.648 107.947 11.2C107.947 10.752 108.299 10.4 108.747 10.4C109.195 10.4 109.547 10.752 109.547 11.2C109.547 11.648 109.195 12 108.747 12ZM110.347 12C109.899 12 109.547 11.648 109.547 11.2C109.547 10.752 109.899 10.4 110.347 10.4C110.795 10.4 111.147 10.752 111.147 11.2C111.147 11.648 110.795 12 110.347 12ZM111.947 12C111.499 12 111.147 11.648 111.147 11.2C111.147 10.752 111.499 10.4 111.947 10.4C112.395 10.4 112.747 10.752 112.747 11.2C112.747 11.648 112.395 12 111.947 12ZM113.547 12C113.099 12 112.747 11.648 112.747 11.2C112.747 10.752 113.099 10.4 113.547 10.4C113.995 10.4 114.347 10.752 114.347 11.2C114.347 11.648 113.995 12 113.547 12ZM119.944 2.4C119.496 2.4 119.144 2.048 119.144 1.6C119.144 1.152 119.496 0.799999 119.944 0.799999C120.392 0.799999 120.744 1.152 120.744 1.6C120.744 2.048 120.392 2.4 119.944 2.4ZM121.544 2.4C121.096 2.4 120.744 2.048 120.744 1.6C120.744 1.152 121.096 0.799999 121.544 0.799999C121.992 0.799999 122.344 1.152 122.344 1.6C122.344 2.048 121.992 2.4 121.544 2.4ZM123.144 2.4C122.696 2.4 122.344 2.048 122.344 1.6C122.344 1.152 122.696 0.799999 123.144 0.799999C123.592 0.799999 123.944 1.152 123.944 1.6C123.944 2.048 123.592 2.4 123.144 2.4ZM124.744 2.4C124.296 2.4 123.944 2.048 123.944 1.6C123.944 1.152 124.296 0.799999 124.744 0.799999C125.192 0.799999 125.544 1.152 125.544 1.6C125.544 2.048 125.192 2.4 124.744 2.4ZM119.944 4.8C119.496 4.8 119.144 4.448 119.144 4C119.144 3.552 119.496 3.2 119.944 3.2C120.392 3.2 120.744 3.552 120.744 4C120.744 4.448 120.392 4.8 119.944 4.8ZM126.344 4.8C125.896 4.8 125.544 4.448 125.544 4C125.544 3.552 125.896 3.2 126.344 3.2C126.792 3.2 127.144 3.552 127.144 4C127.144 4.448 126.792 4.8 126.344 4.8ZM119.944 7.2C119.496 7.2 119.144 6.848 119.144 6.4C119.144 5.952 119.496 5.6 119.944 5.6C120.392 5.6 120.744 5.952 120.744 6.4C120.744 6.848 120.392 7.2 119.944 7.2ZM121.544 7.2C121.096 7.2 120.744 6.848 120.744 6.4C120.744 5.952 121.096 5.6 121.544 5.6C121.992 5.6 122.344 5.952 122.344 6.4C122.344 6.848 121.992 7.2 121.544 7.2ZM123.144 7.2C122.696 7.2 122.344 6.848 122.344 6.4C122.344 5.952 122.696 5.6 123.144 5.6C123.592 5.6 123.944 5.952 123.944 6.4C123.944 6.848 123.592 7.2 123.144 7.2ZM124.744 7.2C124.296 7.2 123.944 6.848 123.944 6.4C123.944 5.952 124.296 5.6 124.744 5.6C125.192 5.6 125.544 5.952 125.544 6.4C125.544 6.848 125.192 7.2 124.744 7.2ZM119.944 9.6C119.496 9.6 119.144 9.248 119.144 8.8C119.144 8.352 119.496 8 119.944 8C120.392 8 120.744 8.352 120.744 8.8C120.744 9.248 120.392 9.6 119.944 9.6ZM119.944 12C119.496 12 119.144 11.648 119.144 11.2C119.144 10.752 119.496 10.4 119.944 10.4C120.392 10.4 120.744 10.752 120.744 11.2C120.744 11.648 120.392 12 119.944 12ZM129.538 2.4C129.09 2.4 128.738 2.048 128.738 1.6C128.738 1.152 129.09 0.799999 129.538 0.799999C129.986 0.799999 130.338 1.152 130.338 1.6C130.338 2.048 129.986 2.4 129.538 2.4ZM131.138 2.4C130.69 2.4 130.338 2.048 130.338 1.6C130.338 1.152 130.69 0.799999 131.138 0.799999C131.586 0.799999 131.938 1.152 131.938 1.6C131.938 2.048 131.586 2.4 131.138 2.4ZM132.738 2.4C132.29 2.4 131.938 2.048 131.938 1.6C131.938 1.152 132.29 0.799999 132.738 0.799999C133.186 0.799999 133.538 1.152 133.538 1.6C133.538 2.048 133.186 2.4 132.738 2.4ZM134.338 2.4C133.89 2.4 133.538 2.048 133.538 1.6C133.538 1.152 133.89 0.799999 134.338 0.799999C134.786 0.799999 135.138 1.152 135.138 1.6C135.138 2.048 134.786 2.4 134.338 2.4ZM129.538 4.8C129.09 4.8 128.738 4.448 128.738 4C128.738 3.552 129.09 3.2 129.538 3.2C129.986 3.2 130.338 3.552 130.338 4C130.338 4.448 129.986 4.8 129.538 4.8ZM135.938 4.8C135.49 4.8 135.138 4.448 135.138 4C135.138 3.552 135.49 3.2 135.938 3.2C136.385 3.2 136.738 3.552 136.738 4C136.738 4.448 136.385 4.8 135.938 4.8ZM129.538 7.2C129.09 7.2 128.738 6.848 128.738 6.4C128.738 5.952 129.09 5.6 129.538 5.6C129.986 5.6 130.338 5.952 130.338 6.4C130.338 6.848 129.986 7.2 129.538 7.2ZM131.138 7.2C130.69 7.2 130.338 6.848 130.338 6.4C130.338 5.952 130.69 5.6 131.138 5.6C131.586 5.6 131.938 5.952 131.938 6.4C131.938 6.848 131.586 7.2 131.138 7.2ZM132.738 7.2C132.29 7.2 131.938 6.848 131.938 6.4C131.938 5.952 132.29 5.6 132.738 5.6C133.186 5.6 133.538 5.952 133.538 6.4C133.538 6.848 133.186 7.2 132.738 7.2ZM134.338 7.2C133.89 7.2 133.538 6.848 133.538 6.4C133.538 5.952 133.89 5.6 134.338 5.6C134.786 5.6 135.138 5.952 135.138 6.4C135.138 6.848 134.786 7.2 134.338 7.2ZM129.538 9.6C129.09 9.6 128.738 9.248 128.738 8.8C128.738 8.352 129.09 8 129.538 8C129.986 8 130.338 8.352 130.338 8.8C130.338 9.248 129.986 9.6 129.538 9.6ZM134.338 9.6C133.89 9.6 133.538 9.248 133.538 8.8C133.538 8.352 133.89 8 134.338 8C134.786 8 135.138 8.352 135.138 8.8C135.138 9.248 134.786 9.6 134.338 9.6ZM129.538 12C129.09 12 128.738 11.648 128.738 11.2C128.738 10.752 129.09 10.4 129.538 10.4C129.986 10.4 130.338 10.752 130.338 11.2C130.338 11.648 129.986 12 129.538 12ZM135.938 12C135.49 12 135.138 11.648 135.138 11.2C135.138 10.752 135.49 10.4 135.938 10.4C136.385 10.4 136.738 10.752 136.738 11.2C136.738 11.648 136.385 12 135.938 12ZM140.731 2.4C140.283 2.4 139.931 2.048 139.931 1.6C139.931 1.152 140.283 0.799999 140.731 0.799999C141.179 0.799999 141.531 1.152 141.531 1.6C141.531 2.048 141.179 2.4 140.731 2.4ZM142.331 2.4C141.883 2.4 141.531 2.048 141.531 1.6C141.531 1.152 141.883 0.799999 142.331 0.799999C142.779 0.799999 143.131 1.152 143.131 1.6C143.131 2.048 142.779 2.4 142.331 2.4ZM143.931 2.4C143.483 2.4 143.131 2.048 143.131 1.6C143.131 1.152 143.483 0.799999 143.931 0.799999C144.379 0.799999 144.731 1.152 144.731 1.6C144.731 2.048 144.379 2.4 143.931 2.4ZM139.131 4.8C138.683 4.8 138.331 4.448 138.331 4C138.331 3.552 138.683 3.2 139.131 3.2C139.579 3.2 139.931 3.552 139.931 4C139.931 4.448 139.579 4.8 139.131 4.8ZM145.531 4.8C145.083 4.8 144.731 4.448 144.731 4C144.731 3.552 145.083 3.2 145.531 3.2C145.979 3.2 146.331 3.552 146.331 4C146.331 4.448 145.979 4.8 145.531 4.8ZM139.131 7.2C138.683 7.2 138.331 6.848 138.331 6.4C138.331 5.952 138.683 5.6 139.131 5.6C139.579 5.6 139.931 5.952 139.931 6.4C139.931 6.848 139.579 7.2 139.131 7.2ZM145.531 7.2C145.083 7.2 144.731 6.848 144.731 6.4C144.731 5.952 145.083 5.6 145.531 5.6C145.979 5.6 146.331 5.952 146.331 6.4C146.331 6.848 145.979 7.2 145.531 7.2ZM139.131 9.6C138.683 9.6 138.331 9.248 138.331 8.8C138.331 8.352 138.683 8 139.131 8C139.579 8 139.931 8.352 139.931 8.8C139.931 9.248 139.579 9.6 139.131 9.6ZM145.531 9.6C145.083 9.6 144.731 9.248 144.731 8.8C144.731 8.352 145.083 8 145.531 8C145.979 8 146.331 8.352 146.331 8.8C146.331 9.248 145.979 9.6 145.531 9.6ZM140.731 12C140.283 12 139.931 11.648 139.931 11.2C139.931 10.752 140.283 10.4 140.731 10.4C141.179 10.4 141.531 10.752 141.531 11.2C141.531 11.648 141.179 12 140.731 12ZM142.331 12C141.883 12 141.531 11.648 141.531 11.2C141.531 10.752 141.883 10.4 142.331 10.4C142.779 10.4 143.131 10.752 143.131 11.2C143.131 11.648 142.779 12 142.331 12ZM143.931 12C143.483 12 143.131 11.648 143.131 11.2C143.131 10.752 143.483 10.4 143.931 10.4C144.379 10.4 144.731 10.752 144.731 11.2C144.731 11.648 144.379 12 143.931 12ZM150.325 2.4C149.877 2.4 149.525 2.048 149.525 1.6C149.525 1.152 149.877 0.799999 150.325 0.799999C150.773 0.799999 151.125 1.152 151.125 1.6C151.125 2.048 150.773 2.4 150.325 2.4ZM151.925 2.4C151.477 2.4 151.125 2.048 151.125 1.6C151.125 1.152 151.477 0.799999 151.925 0.799999C152.373 0.799999 152.725 1.152 152.725 1.6C152.725 2.048 152.373 2.4 151.925 2.4ZM153.525 2.4C153.077 2.4 152.725 2.048 152.725 1.6C152.725 1.152 153.077 0.799999 153.525 0.799999C153.973 0.799999 154.325 1.152 154.325 1.6C154.325 2.048 153.973 2.4 153.525 2.4ZM148.725 4.8C148.277 4.8 147.925 4.448 147.925 4C147.925 3.552 148.277 3.2 148.725 3.2C149.173 3.2 149.525 3.552 149.525 4C149.525 4.448 149.173 4.8 148.725 4.8ZM155.125 4.8C154.677 4.8 154.325 4.448 154.325 4C154.325 3.552 154.677 3.2 155.125 3.2C155.573 3.2 155.925 3.552 155.925 4C155.925 4.448 155.573 4.8 155.125 4.8ZM148.725 7.2C148.277 7.2 147.925 6.848 147.925 6.4C147.925 5.952 148.277 5.6 148.725 5.6C149.173 5.6 149.525 5.952 149.525 6.4C149.525 6.848 149.173 7.2 148.725 7.2ZM148.725 9.6C148.277 9.6 147.925 9.248 147.925 8.8C147.925 8.352 148.277 8 148.725 8C149.173 8 149.525 8.352 149.525 8.8C149.525 9.248 149.173 9.6 148.725 9.6ZM155.125 9.6C154.677 9.6 154.325 9.248 154.325 8.8C154.325 8.352 154.677 8 155.125 8C155.573 8 155.925 8.352 155.925 8.8C155.925 9.248 155.573 9.6 155.125 9.6ZM150.325 12C149.877 12 149.525 11.648 149.525 11.2C149.525 10.752 149.877 10.4 150.325 10.4C150.773 10.4 151.125 10.752 151.125 11.2C151.125 11.648 150.773 12 150.325 12ZM151.925 12C151.477 12 151.125 11.648 151.125 11.2C151.125 10.752 151.477 10.4 151.925 10.4C152.373 10.4 152.725 10.752 152.725 11.2C152.725 11.648 152.373 12 151.925 12ZM153.525 12C153.077 12 152.725 11.648 152.725 11.2C152.725 10.752 153.077 10.4 153.525 10.4C153.973 10.4 154.325 10.752 154.325 11.2C154.325 11.648 153.973 12 153.525 12ZM158.319 2.4C157.871 2.4 157.519 2.048 157.519 1.6C157.519 1.152 157.871 0.799999 158.319 0.799999C158.767 0.799999 159.119 1.152 159.119 1.6C159.119 2.048 158.767 2.4 158.319 2.4ZM159.919 2.4C159.471 2.4 159.119 2.048 159.119 1.6C159.119 1.152 159.471 0.799999 159.919 0.799999C160.367 0.799999 160.719 1.152 160.719 1.6C160.719 2.048 160.367 2.4 159.919 2.4ZM161.519 2.4C161.071 2.4 160.719 2.048 160.719 1.6C160.719 1.152 161.071 0.799999 161.519 0.799999C161.967 0.799999 162.319 1.152 162.319 1.6C162.319 2.048 161.967 2.4 161.519 2.4ZM163.119 2.4C162.671 2.4 162.319 2.048 162.319 1.6C162.319 1.152 162.671 0.799999 163.119 0.799999C163.567 0.799999 163.919 1.152 163.919 1.6C163.919 2.048 163.567 2.4 163.119 2.4ZM164.719 2.4C164.271 2.4 163.919 2.048 163.919 1.6C163.919 1.152 164.271 0.799999 164.719 0.799999C165.167 0.799999 165.519 1.152 165.519 1.6C165.519 2.048 165.167 2.4 164.719 2.4ZM158.319 4.8C157.871 4.8 157.519 4.448 157.519 4C157.519 3.552 157.871 3.2 158.319 3.2C158.767 3.2 159.119 3.552 159.119 4C159.119 4.448 158.767 4.8 158.319 4.8ZM158.319 7.2C157.871 7.2 157.519 6.848 157.519 6.4C157.519 5.952 157.871 5.6 158.319 5.6C158.767 5.6 159.119 5.952 159.119 6.4C159.119 6.848 158.767 7.2 158.319 7.2ZM159.919 7.2C159.471 7.2 159.119 6.848 159.119 6.4C159.119 5.952 159.471 5.6 159.919 5.6C160.367 5.6 160.719 5.952 160.719 6.4C160.719 6.848 160.367 7.2 159.919 7.2ZM161.519 7.2C161.071 7.2 160.719 6.848 160.719 6.4C160.719 5.952 161.071 5.6 161.519 5.6C161.967 5.6 162.319 5.952 162.319 6.4C162.319 6.848 161.967 7.2 161.519 7.2ZM163.119 7.2C162.671 7.2 162.319 6.848 162.319 6.4C162.319 5.952 162.671 5.6 163.119 5.6C163.567 5.6 163.919 5.952 163.919 6.4C163.919 6.848 163.567 7.2 163.119 7.2ZM158.319 9.6C157.871 9.6 157.519 9.248 157.519 8.8C157.519 8.352 157.871 8 158.319 8C158.767 8 159.119 8.352 159.119 8.8C159.119 9.248 158.767 9.6 158.319 9.6ZM158.319 12C157.871 12 157.519 11.648 157.519 11.2C157.519 10.752 157.871 10.4 158.319 10.4C158.767 10.4 159.119 10.752 159.119 11.2C159.119 11.648 158.767 12 158.319 12ZM159.919 12C159.471 12 159.119 11.648 159.119 11.2C159.119 10.752 159.471 10.4 159.919 10.4C160.367 10.4 160.719 10.752 160.719 11.2C160.719 11.648 160.367 12 159.919 12ZM161.519 12C161.071 12 160.719 11.648 160.719 11.2C160.719 10.752 161.071 10.4 161.519 10.4C161.967 10.4 162.319 10.752 162.319 11.2C162.319 11.648 161.967 12 161.519 12ZM163.119 12C162.671 12 162.319 11.648 162.319 11.2C162.319 10.752 162.671 10.4 163.119 10.4C163.567 10.4 163.919 10.752 163.919 11.2C163.919 11.648 163.567 12 163.119 12ZM164.719 12C164.271 12 163.919 11.648 163.919 11.2C163.919 10.752 164.271 10.4 164.719 10.4C165.167 10.4 165.519 10.752 165.519 11.2C165.519 11.648 165.167 12 164.719 12ZM169.513 2.4C169.065 2.4 168.713 2.048 168.713 1.6C168.713 1.152 169.065 0.799999 169.513 0.799999C169.961 0.799999 170.312 1.152 170.312 1.6C170.312 2.048 169.961 2.4 169.513 2.4ZM171.113 2.4C170.665 2.4 170.312 2.048 170.312 1.6C170.312 1.152 170.665 0.799999 171.113 0.799999C171.561 0.799999 171.913 1.152 171.913 1.6C171.913 2.048 171.561 2.4 171.113 2.4ZM172.713 2.4C172.265 2.4 171.913 2.048 171.913 1.6C171.913 1.152 172.265 0.799999 172.713 0.799999C173.161 0.799999 173.513 1.152 173.513 1.6C173.513 2.048 173.161 2.4 172.713 2.4ZM174.312 2.4C173.865 2.4 173.513 2.048 173.513 1.6C173.513 1.152 173.865 0.799999 174.312 0.799999C174.76 0.799999 175.113 1.152 175.113 1.6C175.113 2.048 174.76 2.4 174.312 2.4ZM167.913 4.8C167.465 4.8 167.113 4.448 167.113 4C167.113 3.552 167.465 3.2 167.913 3.2C168.361 3.2 168.713 3.552 168.713 4C168.713 4.448 168.361 4.8 167.913 4.8ZM169.513 7.2C169.065 7.2 168.713 6.848 168.713 6.4C168.713 5.952 169.065 5.6 169.513 5.6C169.961 5.6 170.312 5.952 170.312 6.4C170.312 6.848 169.961 7.2 169.513 7.2ZM171.113 7.2C170.665 7.2 170.312 6.848 170.312 6.4C170.312 5.952 170.665 5.6 171.113 5.6C171.561 5.6 171.913 5.952 171.913 6.4C171.913 6.848 171.561 7.2 171.113 7.2ZM172.713 7.2C172.265 7.2 171.913 6.848 171.913 6.4C171.913 5.952 172.265 5.6 172.713 5.6C173.161 5.6 173.513 5.952 173.513 6.4C173.513 6.848 173.161 7.2 172.713 7.2ZM174.312 9.6C173.865 9.6 173.513 9.248 173.513 8.8C173.513 8.352 173.865 8 174.312 8C174.76 8 175.113 8.352 175.113 8.8C175.113 9.248 174.76 9.6 174.312 9.6ZM167.913 12C167.465 12 167.113 11.648 167.113 11.2C167.113 10.752 167.465 10.4 167.913 10.4C168.361 10.4 168.713 10.752 168.713 11.2C168.713 11.648 168.361 12 167.913 12ZM169.513 12C169.065 12 168.713 11.648 168.713 11.2C168.713 10.752 169.065 10.4 169.513 10.4C169.961 10.4 170.312 10.752 170.312 11.2C170.312 11.648 169.961 12 169.513 12ZM171.113 12C170.665 12 170.312 11.648 170.312 11.2C170.312 10.752 170.665 10.4 171.113 10.4C171.561 10.4 171.913 10.752 171.913 11.2C171.913 11.648 171.561 12 171.113 12ZM172.713 12C172.265 12 171.913 11.648 171.913 11.2C171.913 10.752 172.265 10.4 172.713 10.4C173.161 10.4 173.513 10.752 173.513 11.2C173.513 11.648 173.161 12 172.713 12ZM179.106 2.4C178.658 2.4 178.306 2.048 178.306 1.6C178.306 1.152 178.658 0.799999 179.106 0.799999C179.554 0.799999 179.906 1.152 179.906 1.6C179.906 2.048 179.554 2.4 179.106 2.4ZM180.706 2.4C180.258 2.4 179.906 2.048 179.906 1.6C179.906 1.152 180.258 0.799999 180.706 0.799999C181.154 0.799999 181.506 1.152 181.506 1.6C181.506 2.048 181.154 2.4 180.706 2.4ZM182.306 2.4C181.858 2.4 181.506 2.048 181.506 1.6C181.506 1.152 181.858 0.799999 182.306 0.799999C182.754 0.799999 183.106 1.152 183.106 1.6C183.106 2.048 182.754 2.4 182.306 2.4ZM183.906 2.4C183.458 2.4 183.106 2.048 183.106 1.6C183.106 1.152 183.458 0.799999 183.906 0.799999C184.354 0.799999 184.706 1.152 184.706 1.6C184.706 2.048 184.354 2.4 183.906 2.4ZM177.506 4.8C177.058 4.8 176.706 4.448 176.706 4C176.706 3.552 177.058 3.2 177.506 3.2C177.954 3.2 178.306 3.552 178.306 4C178.306 4.448 177.954 4.8 177.506 4.8ZM179.106 7.2C178.658 7.2 178.306 6.848 178.306 6.4C178.306 5.952 178.658 5.6 179.106 5.6C179.554 5.6 179.906 5.952 179.906 6.4C179.906 6.848 179.554 7.2 179.106 7.2ZM180.706 7.2C180.258 7.2 179.906 6.848 179.906 6.4C179.906 5.952 180.258 5.6 180.706 5.6C181.154 5.6 181.506 5.952 181.506 6.4C181.506 6.848 181.154 7.2 180.706 7.2ZM182.306 7.2C181.858 7.2 181.506 6.848 181.506 6.4C181.506 5.952 181.858 5.6 182.306 5.6C182.754 5.6 183.106 5.952 183.106 6.4C183.106 6.848 182.754 7.2 182.306 7.2ZM183.906 9.6C183.458 9.6 183.106 9.248 183.106 8.8C183.106 8.352 183.458 8 183.906 8C184.354 8 184.706 8.352 184.706 8.8C184.706 9.248 184.354 9.6 183.906 9.6ZM177.506 12C177.058 12 176.706 11.648 176.706 11.2C176.706 10.752 177.058 10.4 177.506 10.4C177.954 10.4 178.306 10.752 178.306 11.2C178.306 11.648 177.954 12 177.506 12ZM179.106 12C178.658 12 178.306 11.648 178.306 11.2C178.306 10.752 178.658 10.4 179.106 10.4C179.554 10.4 179.906 10.752 179.906 11.2C179.906 11.648 179.554 12 179.106 12ZM180.706 12C180.258 12 179.906 11.648 179.906 11.2C179.906 10.752 180.258 10.4 180.706 10.4C181.154 10.4 181.506 10.752 181.506 11.2C181.506 11.648 181.154 12 180.706 12ZM182.306 12C181.858 12 181.506 11.648 181.506 11.2C181.506 10.752 181.858 10.4 182.306 10.4C182.754 10.4 183.106 10.752 183.106 11.2C183.106 11.648 182.754 12 182.306 12ZM187.1 2.4C186.652 2.4 186.3 2.048 186.3 1.6C186.3 1.152 186.652 0.799999 187.1 0.799999C187.548 0.799999 187.9 1.152 187.9 1.6C187.9 2.048 187.548 2.4 187.1 2.4ZM188.7 2.4C188.252 2.4 187.9 2.048 187.9 1.6C187.9 1.152 188.252 0.799999 188.7 0.799999C189.148 0.799999 189.5 1.152 189.5 1.6C189.5 2.048 189.148 2.4 188.7 2.4ZM190.3 2.4C189.852 2.4 189.5 2.048 189.5 1.6C189.5 1.152 189.852 0.799999 190.3 0.799999C190.748 0.799999 191.1 1.152 191.1 1.6C191.1 2.048 190.748 2.4 190.3 2.4ZM188.7 4.8C188.252 4.8 187.9 4.448 187.9 4C187.9 3.552 188.252 3.2 188.7 3.2C189.148 3.2 189.5 3.552 189.5 4C189.5 4.448 189.148 4.8 188.7 4.8ZM188.7 7.2C188.252 7.2 187.9 6.848 187.9 6.4C187.9 5.952 188.252 5.6 188.7 5.6C189.148 5.6 189.5 5.952 189.5 6.4C189.5 6.848 189.148 7.2 188.7 7.2ZM188.7 9.6C188.252 9.6 187.9 9.248 187.9 8.8C187.9 8.352 188.252 8 188.7 8C189.148 8 189.5 8.352 189.5 8.8C189.5 9.248 189.148 9.6 188.7 9.6ZM187.1 12C186.652 12 186.3 11.648 186.3 11.2C186.3 10.752 186.652 10.4 187.1 10.4C187.548 10.4 187.9 10.752 187.9 11.2C187.9 11.648 187.548 12 187.1 12ZM188.7 12C188.252 12 187.9 11.648 187.9 11.2C187.9 10.752 188.252 10.4 188.7 10.4C189.148 10.4 189.5 10.752 189.5 11.2C189.5 11.648 189.148 12 188.7 12ZM190.3 12C189.852 12 189.5 11.648 189.5 11.2C189.5 10.752 189.852 10.4 190.3 10.4C190.748 10.4 191.1 10.752 191.1 11.2C191.1 11.648 190.748 12 190.3 12ZM193.506 2.4C193.058 2.4 192.706 2.048 192.706 1.6C192.706 1.152 193.058 0.799999 193.506 0.799999C193.954 0.799999 194.306 1.152 194.306 1.6C194.306 2.048 193.954 2.4 193.506 2.4ZM199.906 2.4C199.458 2.4 199.106 2.048 199.106 1.6C199.106 1.152 199.458 0.799999 199.906 0.799999C200.354 0.799999 200.706 1.152 200.706 1.6C200.706 2.048 200.354 2.4 199.906 2.4ZM193.506 4.8C193.058 4.8 192.706 4.448 192.706 4C192.706 3.552 193.058 3.2 193.506 3.2C193.954 3.2 194.306 3.552 194.306 4C194.306 4.448 193.954 4.8 193.506 4.8ZM195.106 4.8C194.658 4.8 194.306 4.448 194.306 4C194.306 3.552 194.658 3.2 195.106 3.2C195.554 3.2 195.906 3.552 195.906 4C195.906 4.448 195.554 4.8 195.106 4.8ZM199.906 4.8C199.458 4.8 199.106 4.448 199.106 4C199.106 3.552 199.458 3.2 199.906 3.2C200.354 3.2 200.706 3.552 200.706 4C200.706 4.448 200.354 4.8 199.906 4.8ZM193.506 7.2C193.058 7.2 192.706 6.848 192.706 6.4C192.706 5.952 193.058 5.6 193.506 5.6C193.954 5.6 194.306 5.952 194.306 6.4C194.306 6.848 193.954 7.2 193.506 7.2ZM196.706 7.2C196.258 7.2 195.906 6.848 195.906 6.4C195.906 5.952 196.258 5.6 196.706 5.6C197.154 5.6 197.506 5.952 197.506 6.4C197.506 6.848 197.154 7.2 196.706 7.2ZM199.906 7.2C199.458 7.2 199.106 6.848 199.106 6.4C199.106 5.952 199.458 5.6 199.906 5.6C200.354 5.6 200.706 5.952 200.706 6.4C200.706 6.848 200.354 7.2 199.906 7.2ZM193.506 9.6C193.058 9.6 192.706 9.248 192.706 8.8C192.706 8.352 193.058 8 193.506 8C193.954 8 194.306 8.352 194.306 8.8C194.306 9.248 193.954 9.6 193.506 9.6ZM198.306 9.6C197.858 9.6 197.506 9.248 197.506 8.8C197.506 8.352 197.858 8 198.306 8C198.754 8 199.106 8.352 199.106 8.8C199.106 9.248 198.754 9.6 198.306 9.6ZM199.906 9.6C199.458 9.6 199.106 9.248 199.106 8.8C199.106 8.352 199.458 8 199.906 8C200.354 8 200.706 8.352 200.706 8.8C200.706 9.248 200.354 9.6 199.906 9.6ZM193.506 12C193.058 12 192.706 11.648 192.706 11.2C192.706 10.752 193.058 10.4 193.506 10.4C193.954 10.4 194.306 10.752 194.306 11.2C194.306 11.648 193.954 12 193.506 12ZM199.906 12C199.458 12 199.106 11.648 199.106 11.2C199.106 10.752 199.458 10.4 199.906 10.4C200.354 10.4 200.706 10.752 200.706 11.2C200.706 11.648 200.354 12 199.906 12ZM204.7 2.4C204.252 2.4 203.9 2.048 203.9 1.6C203.9 1.152 204.252 0.799999 204.7 0.799999C205.148 0.799999 205.5 1.152 205.5 1.6C205.5 2.048 205.148 2.4 204.7 2.4ZM206.3 2.4C205.852 2.4 205.5 2.048 205.5 1.6C205.5 1.152 205.852 0.799999 206.3 0.799999C206.748 0.799999 207.1 1.152 207.1 1.6C207.1 2.048 206.748 2.4 206.3 2.4ZM207.9 2.4C207.452 2.4 207.1 2.048 207.1 1.6C207.1 1.152 207.452 0.799999 207.9 0.799999C208.348 0.799999 208.7 1.152 208.7 1.6C208.7 2.048 208.348 2.4 207.9 2.4ZM209.5 2.4C209.052 2.4 208.7 2.048 208.7 1.6C208.7 1.152 209.052 0.799999 209.5 0.799999C209.948 0.799999 210.3 1.152 210.3 1.6C210.3 2.048 209.948 2.4 209.5 2.4ZM203.1 4.8C202.652 4.8 202.3 4.448 202.3 4C202.3 3.552 202.652 3.2 203.1 3.2C203.548 3.2 203.9 3.552 203.9 4C203.9 4.448 203.548 4.8 203.1 4.8ZM203.1 7.2C202.652 7.2 202.3 6.848 202.3 6.4C202.3 5.952 202.652 5.6 203.1 5.6C203.548 5.6 203.9 5.952 203.9 6.4C203.9 6.848 203.548 7.2 203.1 7.2ZM206.3 7.2C205.852 7.2 205.5 6.848 205.5 6.4C205.5 5.952 205.852 5.6 206.3 5.6C206.748 5.6 207.1 5.952 207.1 6.4C207.1 6.848 206.748 7.2 206.3 7.2ZM207.9 7.2C207.452 7.2 207.1 6.848 207.1 6.4C207.1 5.952 207.452 5.6 207.9 5.6C208.348 5.6 208.7 5.952 208.7 6.4C208.7 6.848 208.348 7.2 207.9 7.2ZM209.5 7.2C209.052 7.2 208.7 6.848 208.7 6.4C208.7 5.952 209.052 5.6 209.5 5.6C209.948 5.6 210.3 5.952 210.3 6.4C210.3 6.848 209.948 7.2 209.5 7.2ZM203.1 9.6C202.652 9.6 202.3 9.248 202.3 8.8C202.3 8.352 202.652 8 203.1 8C203.548 8 203.9 8.352 203.9 8.8C203.9 9.248 203.548 9.6 203.1 9.6ZM209.5 9.6C209.052 9.6 208.7 9.248 208.7 8.8C208.7 8.352 209.052 8 209.5 8C209.948 8 210.3 8.352 210.3 8.8C210.3 9.248 209.948 9.6 209.5 9.6ZM204.7 12C204.252 12 203.9 11.648 203.9 11.2C203.9 10.752 204.252 10.4 204.7 10.4C205.148 10.4 205.5 10.752 205.5 11.2C205.5 11.648 205.148 12 204.7 12ZM206.3 12C205.852 12 205.5 11.648 205.5 11.2C205.5 10.752 205.852 10.4 206.3 10.4C206.748 10.4 207.1 10.752 207.1 11.2C207.1 11.648 206.748 12 206.3 12ZM207.9 12C207.452 12 207.1 11.648 207.1 11.2C207.1 10.752 207.452 10.4 207.9 10.4C208.348 10.4 208.7 10.752 208.7 11.2C208.7 11.648 208.348 12 207.9 12ZM212.694 12.016C212.246 12.016 211.894 11.664 211.894 11.216C211.894 10.768 212.246 10.416 212.694 10.416C213.142 10.416 213.494 10.768 213.494 11.216C213.494 11.664 213.142 12.016 212.694 12.016ZM215.897 12.016C215.449 12.016 215.097 11.664 215.097 11.216C215.097 10.768 215.449 10.416 215.897 10.416C216.345 10.416 216.697 10.768 216.697 11.216C216.697 11.664 216.345 12.016 215.897 12.016ZM219.1 12.016C218.652 12.016 218.3 11.664 218.3 11.216C218.3 10.768 218.652 10.416 219.1 10.416C219.548 10.416 219.9 10.768 219.9 11.216C219.9 11.664 219.548 12.016 219.1 12.016Z" fill="white"/>
</svg>
