<svg width="443" height="34" viewBox="0 0 443 34" fill="none" xmlns="http://www.w3.org/2000/svg">
<path d="M7.6 12.4C6.256 12.4 5.2 11.344 5.2 10C5.2 8.656 6.256 7.6 7.6 7.6C8.944 7.6 10 8.656 10 10C10 11.344 8.944 12.4 7.6 12.4ZM12.4 12.4C11.056 12.4 10 11.344 10 10C10 8.656 11.056 7.6 12.4 7.6C13.744 7.6 14.8 8.656 14.8 10C14.8 11.344 13.744 12.4 12.4 12.4ZM2.8 19.6C1.456 19.6 0.4 18.544 0.4 17.2C0.4 15.856 1.456 14.8 2.8 14.8C4.144 14.8 5.2 15.856 5.2 17.2C5.2 18.544 4.144 19.6 2.8 19.6ZM17.2 19.6C15.856 19.6 14.8 18.544 14.8 17.2C14.8 15.856 15.856 14.8 17.2 14.8C18.544 14.8 19.6 15.856 19.6 17.2C19.6 18.544 18.544 19.6 17.2 19.6ZM2.8 26.8C1.456 26.8 0.4 25.744 0.4 24.4C0.4 23.056 1.456 22 2.8 22C4.144 22 5.2 23.056 5.2 24.4C5.2 25.744 4.144 26.8 2.8 26.8ZM7.6 26.8C6.256 26.8 5.2 25.744 5.2 24.4C5.2 23.056 6.256 22 7.6 22C8.944 22 10 23.056 10 24.4C10 25.744 8.944 26.8 7.6 26.8ZM12.4 26.8C11.056 26.8 10 25.744 10 24.4C10 23.056 11.056 22 12.4 22C13.744 22 14.8 23.056 14.8 24.4C14.8 25.744 13.744 26.8 12.4 26.8ZM7.6 34C6.256 34 5.2 32.944 5.2 31.6C5.2 30.256 6.256 29.2 7.6 29.2C8.944 29.2 10 30.256 10 31.6C10 32.944 8.944 34 7.6 34ZM12.4 34C11.056 34 10 32.944 10 31.6C10 30.256 11.056 29.2 12.4 29.2C13.744 29.2 14.8 30.256 14.8 31.6C14.8 32.944 13.744 34 12.4 34ZM17.2 34C15.856 34 14.8 32.944 14.8 31.6C14.8 30.256 15.856 29.2 17.2 29.2C18.544 29.2 19.6 30.256 19.6 31.6C19.6 32.944 18.544 34 17.2 34ZM26.8 12.4C25.456 12.4 24.4 11.344 24.4 10C24.4 8.656 25.456 7.6 26.8 7.6C28.144 7.6 29.2 8.656 29.2 10C29.2 11.344 28.144 12.4 26.8 12.4ZM36.4 12.4C35.056 12.4 34 11.344 34 10C34 8.656 35.056 7.6 36.4 7.6C37.744 7.6 38.8 8.656 38.8 10C38.8 11.344 37.744 12.4 36.4 12.4ZM41.2 12.4C39.856 12.4 38.8 11.344 38.8 10C38.8 8.656 39.856 7.6 41.2 7.6C42.544 7.6 43.6 8.656 43.6 10C43.6 11.344 42.544 12.4 41.2 12.4ZM26.8 19.6C25.456 19.6 24.4 18.544 24.4 17.2C24.4 15.856 25.456 14.8 26.8 14.8C28.144 14.8 29.2 15.856 29.2 17.2C29.2 18.544 28.144 19.6 26.8 19.6ZM31.6 19.6C30.256 19.6 29.2 18.544 29.2 17.2C29.2 15.856 30.256 14.8 31.6 14.8C32.944 14.8 34 15.856 34 17.2C34 18.544 32.944 19.6 31.6 19.6ZM26.8 26.8C25.456 26.8 24.4 25.744 24.4 24.4C24.4 23.056 25.456 22 26.8 22C28.144 22 29.2 23.056 29.2 24.4C29.2 25.744 28.144 26.8 26.8 26.8ZM26.8 34C25.456 34 24.4 32.944 24.4 31.6C24.4 30.256 25.456 29.2 26.8 29.2C28.144 29.2 29.2 30.256 29.2 31.6C29.2 32.944 28.144 34 26.8 34ZM50.8 12.4C49.456 12.4 48.4 11.344 48.4 10C48.4 8.656 49.456 7.6 50.8 7.6C52.144 7.6 53.2 8.656 53.2 10C53.2 11.344 52.144 12.4 50.8 12.4ZM60.4 12.4C59.056 12.4 58 11.344 58 10C58 8.656 59.056 7.6 60.4 7.6C61.744 7.6 62.8 8.656 62.8 10C62.8 11.344 61.744 12.4 60.4 12.4ZM65.2 12.4C63.856 12.4 62.8 11.344 62.8 10C62.8 8.656 63.856 7.6 65.2 7.6C66.544 7.6 67.6 8.656 67.6 10C67.6 11.344 66.544 12.4 65.2 12.4ZM50.8 19.6C49.456 19.6 48.4 18.544 48.4 17.2C48.4 15.856 49.456 14.8 50.8 14.8C52.144 14.8 53.2 15.856 53.2 17.2C53.2 18.544 52.144 19.6 50.8 19.6ZM55.6 19.6C54.256 19.6 53.2 18.544 53.2 17.2C53.2 15.856 54.256 14.8 55.6 14.8C56.944 14.8 58 15.856 58 17.2C58 18.544 56.944 19.6 55.6 19.6ZM50.8 26.8C49.456 26.8 48.4 25.744 48.4 24.4C48.4 23.056 49.456 22 50.8 22C52.144 22 53.2 23.056 53.2 24.4C53.2 25.744 52.144 26.8 50.8 26.8ZM50.8 34C49.456 34 48.4 32.944 48.4 31.6C48.4 30.256 49.456 29.2 50.8 29.2C52.144 29.2 53.2 30.256 53.2 31.6C53.2 32.944 52.144 34 50.8 34ZM79.6 12.4C78.256 12.4 77.2 11.344 77.2 10C77.2 8.656 78.256 7.6 79.6 7.6C80.944 7.6 82 8.656 82 10C82 11.344 80.944 12.4 79.6 12.4ZM84.4 12.4C83.056 12.4 82 11.344 82 10C82 8.656 83.056 7.6 84.4 7.6C85.744 7.6 86.8 8.656 86.8 10C86.8 11.344 85.744 12.4 84.4 12.4ZM74.8 19.6C73.456 19.6 72.4 18.544 72.4 17.2C72.4 15.856 73.456 14.8 74.8 14.8C76.144 14.8 77.2 15.856 77.2 17.2C77.2 18.544 76.144 19.6 74.8 19.6ZM89.2 19.6C87.856 19.6 86.8 18.544 86.8 17.2C86.8 15.856 87.856 14.8 89.2 14.8C90.544 14.8 91.6 15.856 91.6 17.2C91.6 18.544 90.544 19.6 89.2 19.6ZM74.8 26.8C73.456 26.8 72.4 25.744 72.4 24.4C72.4 23.056 73.456 22 74.8 22C76.144 22 77.2 23.056 77.2 24.4C77.2 25.744 76.144 26.8 74.8 26.8ZM89.2 26.8C87.856 26.8 86.8 25.744 86.8 24.4C86.8 23.056 87.856 22 89.2 22C90.544 22 91.6 23.056 91.6 24.4C91.6 25.744 90.544 26.8 89.2 26.8ZM79.6 34C78.256 34 77.2 32.944 77.2 31.6C77.2 30.256 78.256 29.2 79.6 29.2C80.944 29.2 82 30.256 82 31.6C82 32.944 80.944 34 79.6 34ZM84.4 34C83.056 34 82 32.944 82 31.6C82 30.256 83.056 29.2 84.4 29.2C85.744 29.2 86.8 30.256 86.8 31.6C86.8 32.944 85.744 34 84.4 34ZM98.8 12.4C97.456 12.4 96.4 11.344 96.4 10C96.4 8.656 97.456 7.6 98.8 7.6C100.144 7.6 101.2 8.656 101.2 10C101.2 11.344 100.144 12.4 98.8 12.4ZM108.4 12.4C107.056 12.4 106 11.344 106 10C106 8.656 107.056 7.6 108.4 7.6C109.744 7.6 110.8 8.656 110.8 10C110.8 11.344 109.744 12.4 108.4 12.4ZM113.2 12.4C111.856 12.4 110.8 11.344 110.8 10C110.8 8.656 111.856 7.6 113.2 7.6C114.544 7.6 115.6 8.656 115.6 10C115.6 11.344 114.544 12.4 113.2 12.4ZM98.8 19.6C97.456 19.6 96.4 18.544 96.4 17.2C96.4 15.856 97.456 14.8 98.8 14.8C100.144 14.8 101.2 15.856 101.2 17.2C101.2 18.544 100.144 19.6 98.8 19.6ZM103.6 19.6C102.256 19.6 101.2 18.544 101.2 17.2C101.2 15.856 102.256 14.8 103.6 14.8C104.944 14.8 106 15.856 106 17.2C106 18.544 104.944 19.6 103.6 19.6ZM98.8 26.8C97.456 26.8 96.4 25.744 96.4 24.4C96.4 23.056 97.456 22 98.8 22C100.144 22 101.2 23.056 101.2 24.4C101.2 25.744 100.144 26.8 98.8 26.8ZM98.8 34C97.456 34 96.4 32.944 96.4 31.6C96.4 30.256 97.456 29.2 98.8 29.2C100.144 29.2 101.2 30.256 101.2 31.6C101.2 32.944 100.144 34 98.8 34ZM142.009 5.2C140.665 5.2 139.609 4.144 139.609 2.8C139.609 1.456 140.665 0.399998 142.009 0.399998C143.353 0.399998 144.409 1.456 144.409 2.8C144.409 4.144 143.353 5.2 142.009 5.2ZM137.209 12.4C135.865 12.4 134.809 11.344 134.809 10C134.809 8.656 135.865 7.6 137.209 7.6C138.553 7.6 139.609 8.656 139.609 10C139.609 11.344 138.553 12.4 137.209 12.4ZM142.009 12.4C140.665 12.4 139.609 11.344 139.609 10C139.609 8.656 140.665 7.6 142.009 7.6C143.353 7.6 144.409 8.656 144.409 10C144.409 11.344 143.353 12.4 142.009 12.4ZM132.409 19.6C131.065 19.6 130.009 18.544 130.009 17.2C130.009 15.856 131.065 14.8 132.409 14.8C133.753 14.8 134.809 15.856 134.809 17.2C134.809 18.544 133.753 19.6 132.409 19.6ZM142.009 19.6C140.665 19.6 139.609 18.544 139.609 17.2C139.609 15.856 140.665 14.8 142.009 14.8C143.353 14.8 144.409 15.856 144.409 17.2C144.409 18.544 143.353 19.6 142.009 19.6ZM132.409 26.8C131.065 26.8 130.009 25.744 130.009 24.4C130.009 23.056 131.065 22 132.409 22C133.753 22 134.809 23.056 134.809 24.4C134.809 25.744 133.753 26.8 132.409 26.8ZM137.209 26.8C135.865 26.8 134.809 25.744 134.809 24.4C134.809 23.056 135.865 22 137.209 22C138.553 22 139.609 23.056 139.609 24.4C139.609 25.744 138.553 26.8 137.209 26.8ZM142.009 26.8C140.665 26.8 139.609 25.744 139.609 24.4C139.609 23.056 140.665 22 142.009 22C143.353 22 144.409 23.056 144.409 24.4C144.409 25.744 143.353 26.8 142.009 26.8ZM146.809 26.8C145.465 26.8 144.409 25.744 144.409 24.4C144.409 23.056 145.465 22 146.809 22C148.153 22 149.209 23.056 149.209 24.4C149.209 25.744 148.153 26.8 146.809 26.8ZM142.009 34C140.665 34 139.609 32.944 139.609 31.6C139.609 30.256 140.665 29.2 142.009 29.2C143.353 29.2 144.409 30.256 144.409 31.6C144.409 32.944 143.353 34 142.009 34ZM161.209 5.2C159.865 5.2 158.809 4.144 158.809 2.8C158.809 1.456 159.865 0.399998 161.209 0.399998C162.553 0.399998 163.609 1.456 163.609 2.8C163.609 4.144 162.553 5.2 161.209 5.2ZM166.009 5.2C164.665 5.2 163.609 4.144 163.609 2.8C163.609 1.456 164.665 0.399998 166.009 0.399998C167.353 0.399998 168.409 1.456 168.409 2.8C168.409 4.144 167.353 5.2 166.009 5.2ZM170.809 5.2C169.465 5.2 168.409 4.144 168.409 2.8C168.409 1.456 169.465 0.399998 170.809 0.399998C172.153 0.399998 173.209 1.456 173.209 2.8C173.209 4.144 172.153 5.2 170.809 5.2ZM156.409 12.4C155.065 12.4 154.009 11.344 154.009 10C154.009 8.656 155.065 7.6 156.409 7.6C157.753 7.6 158.809 8.656 158.809 10C158.809 11.344 157.753 12.4 156.409 12.4ZM175.609 12.4C174.265 12.4 173.209 11.344 173.209 10C173.209 8.656 174.265 7.6 175.609 7.6C176.953 7.6 178.009 8.656 178.009 10C178.009 11.344 176.953 12.4 175.609 12.4ZM156.409 19.6C155.065 19.6 154.009 18.544 154.009 17.2C154.009 15.856 155.065 14.8 156.409 14.8C157.753 14.8 158.809 15.856 158.809 17.2C158.809 18.544 157.753 19.6 156.409 19.6ZM175.609 19.6C174.265 19.6 173.209 18.544 173.209 17.2C173.209 15.856 174.265 14.8 175.609 14.8C176.953 14.8 178.009 15.856 178.009 17.2C178.009 18.544 176.953 19.6 175.609 19.6ZM156.409 26.8C155.065 26.8 154.009 25.744 154.009 24.4C154.009 23.056 155.065 22 156.409 22C157.753 22 158.809 23.056 158.809 24.4C158.809 25.744 157.753 26.8 156.409 26.8ZM175.609 26.8C174.265 26.8 173.209 25.744 173.209 24.4C173.209 23.056 174.265 22 175.609 22C176.953 22 178.009 23.056 178.009 24.4C178.009 25.744 176.953 26.8 175.609 26.8ZM161.209 34C159.865 34 158.809 32.944 158.809 31.6C158.809 30.256 159.865 29.2 161.209 29.2C162.553 29.2 163.609 30.256 163.609 31.6C163.609 32.944 162.553 34 161.209 34ZM166.009 34C164.665 34 163.609 32.944 163.609 31.6C163.609 30.256 164.665 29.2 166.009 29.2C167.353 29.2 168.409 30.256 168.409 31.6C168.409 32.944 167.353 34 166.009 34ZM170.809 34C169.465 34 168.409 32.944 168.409 31.6C168.409 30.256 169.465 29.2 170.809 29.2C172.153 29.2 173.209 30.256 173.209 31.6C173.209 32.944 172.153 34 170.809 34ZM194.791 5.2C193.447 5.2 192.391 4.144 192.391 2.8C192.391 1.456 193.447 0.399998 194.791 0.399998C196.135 0.399998 197.191 1.456 197.191 2.8C197.191 4.144 196.135 5.2 194.791 5.2ZM189.991 12.4C188.647 12.4 187.591 11.344 187.591 10C187.591 8.656 188.647 7.6 189.991 7.6C191.335 7.6 192.391 8.656 192.391 10C192.391 11.344 191.335 12.4 189.991 12.4ZM194.791 12.4C193.447 12.4 192.391 11.344 192.391 10C192.391 8.656 193.447 7.6 194.791 7.6C196.135 7.6 197.191 8.656 197.191 10C197.191 11.344 196.135 12.4 194.791 12.4ZM185.191 19.6C183.847 19.6 182.791 18.544 182.791 17.2C182.791 15.856 183.847 14.8 185.191 14.8C186.535 14.8 187.591 15.856 187.591 17.2C187.591 18.544 186.535 19.6 185.191 19.6ZM194.791 19.6C193.447 19.6 192.391 18.544 192.391 17.2C192.391 15.856 193.447 14.8 194.791 14.8C196.135 14.8 197.191 15.856 197.191 17.2C197.191 18.544 196.135 19.6 194.791 19.6ZM185.191 26.8C183.847 26.8 182.791 25.744 182.791 24.4C182.791 23.056 183.847 22 185.191 22C186.535 22 187.591 23.056 187.591 24.4C187.591 25.744 186.535 26.8 185.191 26.8ZM189.991 26.8C188.647 26.8 187.591 25.744 187.591 24.4C187.591 23.056 188.647 22 189.991 22C191.335 22 192.391 23.056 192.391 24.4C192.391 25.744 191.335 26.8 189.991 26.8ZM194.791 26.8C193.447 26.8 192.391 25.744 192.391 24.4C192.391 23.056 193.447 22 194.791 22C196.135 22 197.191 23.056 197.191 24.4C197.191 25.744 196.135 26.8 194.791 26.8ZM199.591 26.8C198.247 26.8 197.191 25.744 197.191 24.4C197.191 23.056 198.247 22 199.591 22C200.935 22 201.991 23.056 201.991 24.4C201.991 25.744 200.935 26.8 199.591 26.8ZM194.791 34C193.447 34 192.391 32.944 192.391 31.6C192.391 30.256 193.447 29.2 194.791 29.2C196.135 29.2 197.191 30.256 197.191 31.6C197.191 32.944 196.135 34 194.791 34ZM218.8 19.6C217.456 19.6 216.4 18.544 216.4 17.2C216.4 15.856 217.456 14.8 218.8 14.8C220.144 14.8 221.2 15.856 221.2 17.2C221.2 18.544 220.144 19.6 218.8 19.6ZM223.6 19.6C222.256 19.6 221.2 18.544 221.2 17.2C221.2 15.856 222.256 14.8 223.6 14.8C224.944 14.8 226 15.856 226 17.2C226 18.544 224.944 19.6 223.6 19.6ZM228.4 19.6C227.056 19.6 226 18.544 226 17.2C226 15.856 227.056 14.8 228.4 14.8C229.744 14.8 230.8 15.856 230.8 17.2C230.8 18.544 229.744 19.6 228.4 19.6ZM247.628 12.4C246.284 12.4 245.228 11.344 245.228 10C245.228 8.656 246.284 7.6 247.628 7.6C248.972 7.6 250.028 8.656 250.028 10C250.028 11.344 248.972 12.4 247.628 12.4ZM257.228 12.4C255.884 12.4 254.828 11.344 254.828 10C254.828 8.656 255.884 7.6 257.228 7.6C258.572 7.6 259.628 8.656 259.628 10C259.628 11.344 258.572 12.4 257.228 12.4ZM247.628 19.6C246.284 19.6 245.228 18.544 245.228 17.2C245.228 15.856 246.284 14.8 247.628 14.8C248.972 14.8 250.028 15.856 250.028 17.2C250.028 18.544 248.972 19.6 247.628 19.6ZM252.428 19.6C251.084 19.6 250.028 18.544 250.028 17.2C250.028 15.856 251.084 14.8 252.428 14.8C253.772 14.8 254.828 15.856 254.828 17.2C254.828 18.544 253.772 19.6 252.428 19.6ZM262.028 19.6C260.684 19.6 259.628 18.544 259.628 17.2C259.628 15.856 260.684 14.8 262.028 14.8C263.372 14.8 264.428 15.856 264.428 17.2C264.428 18.544 263.372 19.6 262.028 19.6ZM247.628 26.8C246.284 26.8 245.228 25.744 245.228 24.4C245.228 23.056 246.284 22 247.628 22C248.972 22 250.028 23.056 250.028 24.4C250.028 25.744 248.972 26.8 247.628 26.8ZM262.028 26.8C260.684 26.8 259.628 25.744 259.628 24.4C259.628 23.056 260.684 22 262.028 22C263.372 22 264.428 23.056 264.428 24.4C264.428 25.744 263.372 26.8 262.028 26.8ZM247.628 34C246.284 34 245.228 32.944 245.228 31.6C245.228 30.256 246.284 29.2 247.628 29.2C248.972 29.2 250.028 30.256 250.028 31.6C250.028 32.944 248.972 34 247.628 34ZM262.028 34C260.684 34 259.628 32.944 259.628 31.6C259.628 30.256 260.684 29.2 262.028 29.2C263.372 29.2 264.428 30.256 264.428 31.6C264.428 32.944 263.372 34 262.028 34ZM276.428 12.4C275.084 12.4 274.028 11.344 274.028 10C274.028 8.656 275.084 7.6 276.428 7.6C277.772 7.6 278.828 8.656 278.828 10C278.828 11.344 277.772 12.4 276.428 12.4ZM281.228 12.4C279.884 12.4 278.828 11.344 278.828 10C278.828 8.656 279.884 7.6 281.228 7.6C282.572 7.6 283.628 8.656 283.628 10C283.628 11.344 282.572 12.4 281.228 12.4ZM271.628 19.6C270.284 19.6 269.228 18.544 269.228 17.2C269.228 15.856 270.284 14.8 271.628 14.8C272.972 14.8 274.028 15.856 274.028 17.2C274.028 18.544 272.972 19.6 271.628 19.6ZM286.028 19.6C284.684 19.6 283.628 18.544 283.628 17.2C283.628 15.856 284.684 14.8 286.028 14.8C287.372 14.8 288.428 15.856 288.428 17.2C288.428 18.544 287.372 19.6 286.028 19.6ZM271.628 26.8C270.284 26.8 269.228 25.744 269.228 24.4C269.228 23.056 270.284 22 271.628 22C272.972 22 274.028 23.056 274.028 24.4C274.028 25.744 272.972 26.8 271.628 26.8ZM286.028 26.8C284.684 26.8 283.628 25.744 283.628 24.4C283.628 23.056 284.684 22 286.028 22C287.372 22 288.428 23.056 288.428 24.4C288.428 25.744 287.372 26.8 286.028 26.8ZM276.428 34C275.084 34 274.028 32.944 274.028 31.6C274.028 30.256 275.084 29.2 276.428 29.2C277.772 29.2 278.828 30.256 278.828 31.6C278.828 32.944 277.772 34 276.428 34ZM281.228 34C279.884 34 278.828 32.944 278.828 31.6C278.828 30.256 279.884 29.2 281.228 29.2C282.572 29.2 283.628 30.256 283.628 31.6C283.628 32.944 282.572 34 281.228 34ZM300.428 5.2C299.084 5.2 298.028 4.144 298.028 2.8C298.028 1.456 299.084 0.399998 300.428 0.399998C301.772 0.399998 302.828 1.456 302.828 2.8C302.828 4.144 301.772 5.2 300.428 5.2ZM295.628 12.4C294.284 12.4 293.228 11.344 293.228 10C293.228 8.656 294.284 7.6 295.628 7.6C296.972 7.6 298.028 8.656 298.028 10C298.028 11.344 296.972 12.4 295.628 12.4ZM300.428 12.4C299.084 12.4 298.028 11.344 298.028 10C298.028 8.656 299.084 7.6 300.428 7.6C301.772 7.6 302.828 8.656 302.828 10C302.828 11.344 301.772 12.4 300.428 12.4ZM305.228 12.4C303.884 12.4 302.828 11.344 302.828 10C302.828 8.656 303.884 7.6 305.228 7.6C306.572 7.6 307.628 8.656 307.628 10C307.628 11.344 306.572 12.4 305.228 12.4ZM300.428 19.6C299.084 19.6 298.028 18.544 298.028 17.2C298.028 15.856 299.084 14.8 300.428 14.8C301.772 14.8 302.828 15.856 302.828 17.2C302.828 18.544 301.772 19.6 300.428 19.6ZM300.428 26.8C299.084 26.8 298.028 25.744 298.028 24.4C298.028 23.056 299.084 22 300.428 22C301.772 22 302.828 23.056 302.828 24.4C302.828 25.744 301.772 26.8 300.428 26.8ZM305.228 34C303.884 34 302.828 32.944 302.828 31.6C302.828 30.256 303.884 29.2 305.228 29.2C306.572 29.2 307.628 30.256 307.628 31.6C307.628 32.944 306.572 34 305.228 34ZM310.028 34C308.684 34 307.628 32.944 307.628 31.6C307.628 30.256 308.684 29.2 310.028 29.2C311.372 29.2 312.428 30.256 312.428 31.6C312.428 32.944 311.372 34 310.028 34ZM338.838 5.2C337.494 5.2 336.438 4.144 336.438 2.8C336.438 1.456 337.494 0.399998 338.838 0.399998C340.182 0.399998 341.238 1.456 341.238 2.8C341.238 4.144 340.182 5.2 338.838 5.2ZM343.638 5.2C342.294 5.2 341.238 4.144 341.238 2.8C341.238 1.456 342.294 0.399998 343.638 0.399998C344.982 0.399998 346.038 1.456 346.038 2.8C346.038 4.144 344.982 5.2 343.638 5.2ZM329.238 12.4C327.894 12.4 326.838 11.344 326.838 10C326.838 8.656 327.894 7.6 329.238 7.6C330.582 7.6 331.638 8.656 331.638 10C331.638 11.344 330.582 12.4 329.238 12.4ZM334.038 12.4C332.694 12.4 331.638 11.344 331.638 10C331.638 8.656 332.694 7.6 334.038 7.6C335.382 7.6 336.438 8.656 336.438 10C336.438 11.344 335.382 12.4 334.038 12.4ZM338.838 12.4C337.494 12.4 336.438 11.344 336.438 10C336.438 8.656 337.494 7.6 338.838 7.6C340.182 7.6 341.238 8.656 341.238 10C341.238 11.344 340.182 12.4 338.838 12.4ZM343.638 12.4C342.294 12.4 341.238 11.344 341.238 10C341.238 8.656 342.294 7.6 343.638 7.6C344.982 7.6 346.038 8.656 346.038 10C346.038 11.344 344.982 12.4 343.638 12.4ZM334.038 19.6C332.694 19.6 331.638 18.544 331.638 17.2C331.638 15.856 332.694 14.8 334.038 14.8C335.382 14.8 336.438 15.856 336.438 17.2C336.438 18.544 335.382 19.6 334.038 19.6ZM334.038 26.8C332.694 26.8 331.638 25.744 331.638 24.4C331.638 23.056 332.694 22 334.038 22C335.382 22 336.438 23.056 336.438 24.4C336.438 25.744 335.382 26.8 334.038 26.8ZM334.038 34C332.694 34 331.638 32.944 331.638 31.6C331.638 30.256 332.694 29.2 334.038 29.2C335.382 29.2 336.438 30.256 336.438 31.6C336.438 32.944 335.382 34 334.038 34ZM358.038 12.4C356.694 12.4 355.638 11.344 355.638 10C355.638 8.656 356.694 7.6 358.038 7.6C359.382 7.6 360.438 8.656 360.438 10C360.438 11.344 359.382 12.4 358.038 12.4ZM362.838 12.4C361.494 12.4 360.438 11.344 360.438 10C360.438 8.656 361.494 7.6 362.838 7.6C364.182 7.6 365.238 8.656 365.238 10C365.238 11.344 364.182 12.4 362.838 12.4ZM353.238 19.6C351.894 19.6 350.838 18.544 350.838 17.2C350.838 15.856 351.894 14.8 353.238 14.8C354.582 14.8 355.638 15.856 355.638 17.2C355.638 18.544 354.582 19.6 353.238 19.6ZM367.638 19.6C366.294 19.6 365.238 18.544 365.238 17.2C365.238 15.856 366.294 14.8 367.638 14.8C368.982 14.8 370.038 15.856 370.038 17.2C370.038 18.544 368.982 19.6 367.638 19.6ZM353.238 26.8C351.894 26.8 350.838 25.744 350.838 24.4C350.838 23.056 351.894 22 353.238 22C354.582 22 355.638 23.056 355.638 24.4C355.638 25.744 354.582 26.8 353.238 26.8ZM367.638 26.8C366.294 26.8 365.238 25.744 365.238 24.4C365.238 23.056 366.294 22 367.638 22C368.982 22 370.038 23.056 370.038 24.4C370.038 25.744 368.982 26.8 367.638 26.8ZM358.038 34C356.694 34 355.638 32.944 355.638 31.6C355.638 30.256 356.694 29.2 358.038 29.2C359.382 29.2 360.438 30.256 360.438 31.6C360.438 32.944 359.382 34 358.038 34ZM362.838 34C361.494 34 360.438 32.944 360.438 31.6C360.438 30.256 361.494 29.2 362.838 29.2C364.182 29.2 365.238 30.256 365.238 31.6C365.238 32.944 364.182 34 362.838 34ZM377.238 12.4C375.894 12.4 374.838 11.344 374.838 10C374.838 8.656 375.894 7.6 377.238 7.6C378.582 7.6 379.638 8.656 379.638 10C379.638 11.344 378.582 12.4 377.238 12.4ZM391.638 12.4C390.294 12.4 389.238 11.344 389.238 10C389.238 8.656 390.294 7.6 391.638 7.6C392.982 7.6 394.038 8.656 394.038 10C394.038 11.344 392.982 12.4 391.638 12.4ZM377.238 19.6C375.894 19.6 374.838 18.544 374.838 17.2C374.838 15.856 375.894 14.8 377.238 14.8C378.582 14.8 379.638 15.856 379.638 17.2C379.638 18.544 378.582 19.6 377.238 19.6ZM391.638 19.6C390.294 19.6 389.238 18.544 389.238 17.2C389.238 15.856 390.294 14.8 391.638 14.8C392.982 14.8 394.038 15.856 394.038 17.2C394.038 18.544 392.982 19.6 391.638 19.6ZM377.238 26.8C375.894 26.8 374.838 25.744 374.838 24.4C374.838 23.056 375.894 22 377.238 22C378.582 22 379.638 23.056 379.638 24.4C379.638 25.744 378.582 26.8 377.238 26.8ZM391.638 26.8C390.294 26.8 389.238 25.744 389.238 24.4C389.238 23.056 390.294 22 391.638 22C392.982 22 394.038 23.056 394.038 24.4C394.038 25.744 392.982 26.8 391.638 26.8ZM382.038 34C380.694 34 379.638 32.944 379.638 31.6C379.638 30.256 380.694 29.2 382.038 29.2C383.382 29.2 384.438 30.256 384.438 31.6C384.438 32.944 383.382 34 382.038 34ZM386.838 34C385.494 34 384.438 32.944 384.438 31.6C384.438 30.256 385.494 29.2 386.838 29.2C388.182 29.2 389.238 30.256 389.238 31.6C389.238 32.944 388.182 34 386.838 34ZM401.238 12.4C399.894 12.4 398.838 11.344 398.838 10C398.838 8.656 399.894 7.6 401.238 7.6C402.582 7.6 403.638 8.656 403.638 10C403.638 11.344 402.582 12.4 401.238 12.4ZM410.838 12.4C409.494 12.4 408.438 11.344 408.438 10C408.438 8.656 409.494 7.6 410.838 7.6C412.182 7.6 413.238 8.656 413.238 10C413.238 11.344 412.182 12.4 410.838 12.4ZM401.238 19.6C399.894 19.6 398.838 18.544 398.838 17.2C398.838 15.856 399.894 14.8 401.238 14.8C402.582 14.8 403.638 15.856 403.638 17.2C403.638 18.544 402.582 19.6 401.238 19.6ZM406.038 19.6C404.694 19.6 403.638 18.544 403.638 17.2C403.638 15.856 404.694 14.8 406.038 14.8C407.382 14.8 408.438 15.856 408.438 17.2C408.438 18.544 407.382 19.6 406.038 19.6ZM415.638 19.6C414.294 19.6 413.238 18.544 413.238 17.2C413.238 15.856 414.294 14.8 415.638 14.8C416.982 14.8 418.038 15.856 418.038 17.2C418.038 18.544 416.982 19.6 415.638 19.6ZM401.238 26.8C399.894 26.8 398.838 25.744 398.838 24.4C398.838 23.056 399.894 22 401.238 22C402.582 22 403.638 23.056 403.638 24.4C403.638 25.744 402.582 26.8 401.238 26.8ZM415.638 26.8C414.294 26.8 413.238 25.744 413.238 24.4C413.238 23.056 414.294 22 415.638 22C416.982 22 418.038 23.056 418.038 24.4C418.038 25.744 416.982 26.8 415.638 26.8ZM401.238 34C399.894 34 398.838 32.944 398.838 31.6C398.838 30.256 399.894 29.2 401.238 29.2C402.582 29.2 403.638 30.256 403.638 31.6C403.638 32.944 402.582 34 401.238 34ZM415.638 34C414.294 34 413.238 32.944 413.238 31.6C413.238 30.256 414.294 29.2 415.638 29.2C416.982 29.2 418.038 30.256 418.038 31.6C418.038 32.944 416.982 34 415.638 34ZM439.638 5.2C438.294 5.2 437.238 4.144 437.238 2.8C437.238 1.456 438.294 0.399998 439.638 0.399998C440.982 0.399998 442.038 1.456 442.038 2.8C442.038 4.144 440.982 5.2 439.638 5.2ZM430.038 12.4C428.694 12.4 427.638 11.344 427.638 10C427.638 8.656 428.694 7.6 430.038 7.6C431.382 7.6 432.438 8.656 432.438 10C432.438 11.344 431.382 12.4 430.038 12.4ZM434.838 12.4C433.494 12.4 432.438 11.344 432.438 10C432.438 8.656 433.494 7.6 434.838 7.6C436.182 7.6 437.238 8.656 437.238 10C437.238 11.344 436.182 12.4 434.838 12.4ZM439.638 12.4C438.294 12.4 437.238 11.344 437.238 10C437.238 8.656 438.294 7.6 439.638 7.6C440.982 7.6 442.038 8.656 442.038 10C442.038 11.344 440.982 12.4 439.638 12.4ZM425.238 19.6C423.894 19.6 422.838 18.544 422.838 17.2C422.838 15.856 423.894 14.8 425.238 14.8C426.582 14.8 427.638 15.856 427.638 17.2C427.638 18.544 426.582 19.6 425.238 19.6ZM439.638 19.6C438.294 19.6 437.238 18.544 437.238 17.2C437.238 15.856 438.294 14.8 439.638 14.8C440.982 14.8 442.038 15.856 442.038 17.2C442.038 18.544 440.982 19.6 439.638 19.6ZM425.238 26.8C423.894 26.8 422.838 25.744 422.838 24.4C422.838 23.056 423.894 22 425.238 22C426.582 22 427.638 23.056 427.638 24.4C427.638 25.744 426.582 26.8 425.238 26.8ZM439.638 26.8C438.294 26.8 437.238 25.744 437.238 24.4C437.238 23.056 438.294 22 439.638 22C440.982 22 442.038 23.056 442.038 24.4C442.038 25.744 440.982 26.8 439.638 26.8ZM430.038 34C428.694 34 427.638 32.944 427.638 31.6C427.638 30.256 428.694 29.2 430.038 29.2C431.382 29.2 432.438 30.256 432.438 31.6C432.438 32.944 431.382 34 430.038 34ZM434.838 34C433.494 34 432.438 32.944 432.438 31.6C432.438 30.256 433.494 29.2 434.838 29.2C436.182 29.2 437.238 30.256 437.238 31.6C437.238 32.944 436.182 34 434.838 34Z" fill="#DD2C40"/>
</svg>
