<svg width="169" height="12" viewBox="0 0 169 12" fill="none" xmlns="http://www.w3.org/2000/svg">
<path d="M1.6 2.4C1.152 2.4 0.8 2.048 0.8 1.6C0.8 1.152 1.152 0.799999 1.6 0.799999C2.048 0.799999 2.4 1.152 2.4 1.6C2.4 2.048 2.048 2.4 1.6 2.4ZM3.2 2.4C2.752 2.4 2.4 2.048 2.4 1.6C2.4 1.152 2.752 0.799999 3.2 0.799999C3.648 0.799999 4 1.152 4 1.6C4 2.048 3.648 2.4 3.2 2.4ZM4.8 2.4C4.352 2.4 4 2.048 4 1.6C4 1.152 4.352 0.799999 4.8 0.799999C5.248 0.799999 5.6 1.152 5.6 1.6C5.6 2.048 5.248 2.4 4.8 2.4ZM6.4 2.4C5.952 2.4 5.6 2.048 5.6 1.6C5.6 1.152 5.952 0.799999 6.4 0.799999C6.848 0.799999 7.2 1.152 7.2 1.6C7.2 2.048 6.848 2.4 6.4 2.4ZM8 2.4C7.552 2.4 7.2 2.048 7.2 1.6C7.2 1.152 7.552 0.799999 8 0.799999C8.448 0.799999 8.8 1.152 8.8 1.6C8.8 2.048 8.448 2.4 8 2.4ZM1.6 4.8C1.152 4.8 0.8 4.448 0.8 4C0.8 3.552 1.152 3.2 1.6 3.2C2.048 3.2 2.4 3.552 2.4 4C2.4 4.448 2.048 4.8 1.6 4.8ZM1.6 7.2C1.152 7.2 0.8 6.848 0.8 6.4C0.8 5.952 1.152 5.6 1.6 5.6C2.048 5.6 2.4 5.952 2.4 6.4C2.4 6.848 2.048 7.2 1.6 7.2ZM3.2 7.2C2.752 7.2 2.4 6.848 2.4 6.4C2.4 5.952 2.752 5.6 3.2 5.6C3.648 5.6 4 5.952 4 6.4C4 6.848 3.648 7.2 3.2 7.2ZM4.8 7.2C4.352 7.2 4 6.848 4 6.4C4 5.952 4.352 5.6 4.8 5.6C5.248 5.6 5.6 5.952 5.6 6.4C5.6 6.848 5.248 7.2 4.8 7.2ZM6.4 7.2C5.952 7.2 5.6 6.848 5.6 6.4C5.6 5.952 5.952 5.6 6.4 5.6C6.848 5.6 7.2 5.952 7.2 6.4C7.2 6.848 6.848 7.2 6.4 7.2ZM1.6 9.6C1.152 9.6 0.8 9.248 0.8 8.8C0.8 8.352 1.152 8 1.6 8C2.048 8 2.4 8.352 2.4 8.8C2.4 9.248 2.048 9.6 1.6 9.6ZM1.6 12C1.152 12 0.8 11.648 0.8 11.2C0.8 10.752 1.152 10.4 1.6 10.4C2.048 10.4 2.4 10.752 2.4 11.2C2.4 11.648 2.048 12 1.6 12ZM14.3938 2.4C13.9458 2.4 13.5938 2.048 13.5938 1.6C13.5938 1.152 13.9458 0.799999 14.3938 0.799999C14.8418 0.799999 15.1938 1.152 15.1938 1.6C15.1938 2.048 14.8418 2.4 14.3938 2.4ZM12.7938 4.8C12.3458 4.8 11.9938 4.448 11.9938 4C11.9938 3.552 12.3458 3.2 12.7938 3.2C13.2418 3.2 13.5938 3.552 13.5938 4C13.5938 4.448 13.2418 4.8 12.7938 4.8ZM15.9938 4.8C15.5458 4.8 15.1938 4.448 15.1938 4C15.1938 3.552 15.5458 3.2 15.9938 3.2C16.4418 3.2 16.7938 3.552 16.7938 4C16.7938 4.448 16.4418 4.8 15.9938 4.8ZM11.1938 7.2C10.7458 7.2 10.3938 6.848 10.3938 6.4C10.3938 5.952 10.7458 5.6 11.1938 5.6C11.6418 5.6 11.9938 5.952 11.9938 6.4C11.9938 6.848 11.6418 7.2 11.1938 7.2ZM17.5938 7.2C17.1458 7.2 16.7938 6.848 16.7938 6.4C16.7938 5.952 17.1458 5.6 17.5938 5.6C18.0417 5.6 18.3938 5.952 18.3938 6.4C18.3938 6.848 18.0417 7.2 17.5938 7.2ZM11.1938 9.6C10.7458 9.6 10.3938 9.248 10.3938 8.8C10.3938 8.352 10.7458 8 11.1938 8C11.6418 8 11.9938 8.352 11.9938 8.8C11.9938 9.248 11.6418 9.6 11.1938 9.6ZM12.7938 9.6C12.3458 9.6 11.9938 9.248 11.9938 8.8C11.9938 8.352 12.3458 8 12.7938 8C13.2418 8 13.5938 8.352 13.5938 8.8C13.5938 9.248 13.2418 9.6 12.7938 9.6ZM14.3938 9.6C13.9458 9.6 13.5938 9.248 13.5938 8.8C13.5938 8.352 13.9458 8 14.3938 8C14.8418 8 15.1938 8.352 15.1938 8.8C15.1938 9.248 14.8418 9.6 14.3938 9.6ZM15.9938 9.6C15.5458 9.6 15.1938 9.248 15.1938 8.8C15.1938 8.352 15.5458 8 15.9938 8C16.4418 8 16.7938 8.352 16.7938 8.8C16.7938 9.248 16.4418 9.6 15.9938 9.6ZM17.5938 9.6C17.1458 9.6 16.7938 9.248 16.7938 8.8C16.7938 8.352 17.1458 8 17.5938 8C18.0417 8 18.3938 8.352 18.3938 8.8C18.3938 9.248 18.0417 9.6 17.5938 9.6ZM11.1938 12C10.7458 12 10.3938 11.648 10.3938 11.2C10.3938 10.752 10.7458 10.4 11.1938 10.4C11.6418 10.4 11.9938 10.752 11.9938 11.2C11.9938 11.648 11.6418 12 11.1938 12ZM17.5938 12C17.1458 12 16.7938 11.648 16.7938 11.2C16.7938 10.752 17.1458 10.4 17.5938 10.4C18.0417 10.4 18.3938 10.752 18.3938 11.2C18.3938 11.648 18.0417 12 17.5938 12ZM20.7875 2.4C20.3395 2.4 19.9875 2.048 19.9875 1.6C19.9875 1.152 20.3395 0.799999 20.7875 0.799999C21.2355 0.799999 21.5875 1.152 21.5875 1.6C21.5875 2.048 21.2355 2.4 20.7875 2.4ZM27.1875 2.4C26.7395 2.4 26.3875 2.048 26.3875 1.6C26.3875 1.152 26.7395 0.799999 27.1875 0.799999C27.6355 0.799999 27.9875 1.152 27.9875 1.6C27.9875 2.048 27.6355 2.4 27.1875 2.4ZM20.7875 4.8C20.3395 4.8 19.9875 4.448 19.9875 4C19.9875 3.552 20.3395 3.2 20.7875 3.2C21.2355 3.2 21.5875 3.552 21.5875 4C21.5875 4.448 21.2355 4.8 20.7875 4.8ZM22.3875 4.8C21.9395 4.8 21.5875 4.448 21.5875 4C21.5875 3.552 21.9395 3.2 22.3875 3.2C22.8355 3.2 23.1875 3.552 23.1875 4C23.1875 4.448 22.8355 4.8 22.3875 4.8ZM27.1875 4.8C26.7395 4.8 26.3875 4.448 26.3875 4C26.3875 3.552 26.7395 3.2 27.1875 3.2C27.6355 3.2 27.9875 3.552 27.9875 4C27.9875 4.448 27.6355 4.8 27.1875 4.8ZM20.7875 7.2C20.3395 7.2 19.9875 6.848 19.9875 6.4C19.9875 5.952 20.3395 5.6 20.7875 5.6C21.2355 5.6 21.5875 5.952 21.5875 6.4C21.5875 6.848 21.2355 7.2 20.7875 7.2ZM23.9875 7.2C23.5395 7.2 23.1875 6.848 23.1875 6.4C23.1875 5.952 23.5395 5.6 23.9875 5.6C24.4355 5.6 24.7875 5.952 24.7875 6.4C24.7875 6.848 24.4355 7.2 23.9875 7.2ZM27.1875 7.2C26.7395 7.2 26.3875 6.848 26.3875 6.4C26.3875 5.952 26.7395 5.6 27.1875 5.6C27.6355 5.6 27.9875 5.952 27.9875 6.4C27.9875 6.848 27.6355 7.2 27.1875 7.2ZM20.7875 9.6C20.3395 9.6 19.9875 9.248 19.9875 8.8C19.9875 8.352 20.3395 8 20.7875 8C21.2355 8 21.5875 8.352 21.5875 8.8C21.5875 9.248 21.2355 9.6 20.7875 9.6ZM25.5875 9.6C25.1395 9.6 24.7875 9.248 24.7875 8.8C24.7875 8.352 25.1395 8 25.5875 8C26.0355 8 26.3875 8.352 26.3875 8.8C26.3875 9.248 26.0355 9.6 25.5875 9.6ZM27.1875 9.6C26.7395 9.6 26.3875 9.248 26.3875 8.8C26.3875 8.352 26.7395 8 27.1875 8C27.6355 8 27.9875 8.352 27.9875 8.8C27.9875 9.248 27.6355 9.6 27.1875 9.6ZM20.7875 12C20.3395 12 19.9875 11.648 19.9875 11.2C19.9875 10.752 20.3395 10.4 20.7875 10.4C21.2355 10.4 21.5875 10.752 21.5875 11.2C21.5875 11.648 21.2355 12 20.7875 12ZM27.1875 12C26.7395 12 26.3875 11.648 26.3875 11.2C26.3875 10.752 26.7395 10.4 27.1875 10.4C27.6355 10.4 27.9875 10.752 27.9875 11.2C27.9875 11.648 27.6355 12 27.1875 12ZM35.1844 2.4C34.7364 2.4 34.3844 2.048 34.3844 1.6C34.3844 1.152 34.7364 0.799999 35.1844 0.799999C35.6324 0.799999 35.9844 1.152 35.9844 1.6C35.9844 2.048 35.6324 2.4 35.1844 2.4ZM36.7844 2.4C36.3364 2.4 35.9844 2.048 35.9844 1.6C35.9844 1.152 36.3364 0.799999 36.7844 0.799999C37.2324 0.799999 37.5844 1.152 37.5844 1.6C37.5844 2.048 37.2324 2.4 36.7844 2.4ZM38.3844 2.4C37.9364 2.4 37.5844 2.048 37.5844 1.6C37.5844 1.152 37.9364 0.799999 38.3844 0.799999C38.8324 0.799999 39.1844 1.152 39.1844 1.6C39.1844 2.048 38.8324 2.4 38.3844 2.4ZM39.9844 2.4C39.5364 2.4 39.1844 2.048 39.1844 1.6C39.1844 1.152 39.5364 0.799999 39.9844 0.799999C40.4324 0.799999 40.7844 1.152 40.7844 1.6C40.7844 2.048 40.4324 2.4 39.9844 2.4ZM33.5844 4.8C33.1364 4.8 32.7844 4.448 32.7844 4C32.7844 3.552 33.1364 3.2 33.5844 3.2C34.0324 3.2 34.3844 3.552 34.3844 4C34.3844 4.448 34.0324 4.8 33.5844 4.8ZM35.1844 7.2C34.7364 7.2 34.3844 6.848 34.3844 6.4C34.3844 5.952 34.7364 5.6 35.1844 5.6C35.6324 5.6 35.9844 5.952 35.9844 6.4C35.9844 6.848 35.6324 7.2 35.1844 7.2ZM36.7844 7.2C36.3364 7.2 35.9844 6.848 35.9844 6.4C35.9844 5.952 36.3364 5.6 36.7844 5.6C37.2324 5.6 37.5844 5.952 37.5844 6.4C37.5844 6.848 37.2324 7.2 36.7844 7.2ZM38.3844 7.2C37.9364 7.2 37.5844 6.848 37.5844 6.4C37.5844 5.952 37.9364 5.6 38.3844 5.6C38.8324 5.6 39.1844 5.952 39.1844 6.4C39.1844 6.848 38.8324 7.2 38.3844 7.2ZM39.9844 9.6C39.5364 9.6 39.1844 9.248 39.1844 8.8C39.1844 8.352 39.5364 8 39.9844 8C40.4324 8 40.7844 8.352 40.7844 8.8C40.7844 9.248 40.4324 9.6 39.9844 9.6ZM33.5844 12C33.1364 12 32.7844 11.648 32.7844 11.2C32.7844 10.752 33.1364 10.4 33.5844 10.4C34.0324 10.4 34.3844 10.752 34.3844 11.2C34.3844 11.648 34.0324 12 33.5844 12ZM35.1844 12C34.7364 12 34.3844 11.648 34.3844 11.2C34.3844 10.752 34.7364 10.4 35.1844 10.4C35.6324 10.4 35.9844 10.752 35.9844 11.2C35.9844 11.648 35.6324 12 35.1844 12ZM36.7844 12C36.3364 12 35.9844 11.648 35.9844 11.2C35.9844 10.752 36.3364 10.4 36.7844 10.4C37.2324 10.4 37.5844 10.752 37.5844 11.2C37.5844 11.648 37.2324 12 36.7844 12ZM38.3844 12C37.9364 12 37.5844 11.648 37.5844 11.2C37.5844 10.752 37.9364 10.4 38.3844 10.4C38.8324 10.4 39.1844 10.752 39.1844 11.2C39.1844 11.648 38.8324 12 38.3844 12ZM43.1781 2.4C42.7301 2.4 42.3781 2.048 42.3781 1.6C42.3781 1.152 42.7301 0.799999 43.1781 0.799999C43.6261 0.799999 43.9781 1.152 43.9781 1.6C43.9781 2.048 43.6261 2.4 43.1781 2.4ZM44.7781 2.4C44.3301 2.4 43.9781 2.048 43.9781 1.6C43.9781 1.152 44.3301 0.799999 44.7781 0.799999C45.2261 0.799999 45.5781 1.152 45.5781 1.6C45.5781 2.048 45.2261 2.4 44.7781 2.4ZM46.3781 2.4C45.9301 2.4 45.5781 2.048 45.5781 1.6C45.5781 1.152 45.9301 0.799999 46.3781 0.799999C46.8261 0.799999 47.1781 1.152 47.1781 1.6C47.1781 2.048 46.8261 2.4 46.3781 2.4ZM47.9781 2.4C47.5301 2.4 47.1781 2.048 47.1781 1.6C47.1781 1.152 47.5301 0.799999 47.9781 0.799999C48.4261 0.799999 48.7781 1.152 48.7781 1.6C48.7781 2.048 48.4261 2.4 47.9781 2.4ZM49.5781 2.4C49.1301 2.4 48.7781 2.048 48.7781 1.6C48.7781 1.152 49.1301 0.799999 49.5781 0.799999C50.0261 0.799999 50.3781 1.152 50.3781 1.6C50.3781 2.048 50.0261 2.4 49.5781 2.4ZM43.1781 4.8C42.7301 4.8 42.3781 4.448 42.3781 4C42.3781 3.552 42.7301 3.2 43.1781 3.2C43.6261 3.2 43.9781 3.552 43.9781 4C43.9781 4.448 43.6261 4.8 43.1781 4.8ZM43.1781 7.2C42.7301 7.2 42.3781 6.848 42.3781 6.4C42.3781 5.952 42.7301 5.6 43.1781 5.6C43.6261 5.6 43.9781 5.952 43.9781 6.4C43.9781 6.848 43.6261 7.2 43.1781 7.2ZM44.7781 7.2C44.3301 7.2 43.9781 6.848 43.9781 6.4C43.9781 5.952 44.3301 5.6 44.7781 5.6C45.2261 5.6 45.5781 5.952 45.5781 6.4C45.5781 6.848 45.2261 7.2 44.7781 7.2ZM46.3781 7.2C45.9301 7.2 45.5781 6.848 45.5781 6.4C45.5781 5.952 45.9301 5.6 46.3781 5.6C46.8261 5.6 47.1781 5.952 47.1781 6.4C47.1781 6.848 46.8261 7.2 46.3781 7.2ZM47.9781 7.2C47.5301 7.2 47.1781 6.848 47.1781 6.4C47.1781 5.952 47.5301 5.6 47.9781 5.6C48.4261 5.6 48.7781 5.952 48.7781 6.4C48.7781 6.848 48.4261 7.2 47.9781 7.2ZM43.1781 9.6C42.7301 9.6 42.3781 9.248 42.3781 8.8C42.3781 8.352 42.7301 8 43.1781 8C43.6261 8 43.9781 8.352 43.9781 8.8C43.9781 9.248 43.6261 9.6 43.1781 9.6ZM43.1781 12C42.7301 12 42.3781 11.648 42.3781 11.2C42.3781 10.752 42.7301 10.4 43.1781 10.4C43.6261 10.4 43.9781 10.752 43.9781 11.2C43.9781 11.648 43.6261 12 43.1781 12ZM44.7781 12C44.3301 12 43.9781 11.648 43.9781 11.2C43.9781 10.752 44.3301 10.4 44.7781 10.4C45.2261 10.4 45.5781 10.752 45.5781 11.2C45.5781 11.648 45.2261 12 44.7781 12ZM46.3781 12C45.9301 12 45.5781 11.648 45.5781 11.2C45.5781 10.752 45.9301 10.4 46.3781 10.4C46.8261 10.4 47.1781 10.752 47.1781 11.2C47.1781 11.648 46.8261 12 46.3781 12ZM47.9781 12C47.5301 12 47.1781 11.648 47.1781 11.2C47.1781 10.752 47.5301 10.4 47.9781 10.4C48.4261 10.4 48.7781 10.752 48.7781 11.2C48.7781 11.648 48.4261 12 47.9781 12ZM49.5781 12C49.1301 12 48.7781 11.648 48.7781 11.2C48.7781 10.752 49.1301 10.4 49.5781 10.4C50.0261 10.4 50.3781 10.752 50.3781 11.2C50.3781 11.648 50.0261 12 49.5781 12ZM52.7719 2.4C52.3239 2.4 51.9719 2.048 51.9719 1.6C51.9719 1.152 52.3239 0.799999 52.7719 0.799999C53.2199 0.799999 53.5719 1.152 53.5719 1.6C53.5719 2.048 53.2199 2.4 52.7719 2.4ZM54.3719 2.4C53.9239 2.4 53.5719 2.048 53.5719 1.6C53.5719 1.152 53.9239 0.799999 54.3719 0.799999C54.8199 0.799999 55.1719 1.152 55.1719 1.6C55.1719 2.048 54.8199 2.4 54.3719 2.4ZM55.9719 2.4C55.5239 2.4 55.1719 2.048 55.1719 1.6C55.1719 1.152 55.5239 0.799999 55.9719 0.799999C56.4199 0.799999 56.7719 1.152 56.7719 1.6C56.7719 2.048 56.4199 2.4 55.9719 2.4ZM57.5719 2.4C57.1239 2.4 56.7719 2.048 56.7719 1.6C56.7719 1.152 57.1239 0.799999 57.5719 0.799999C58.0199 0.799999 58.3719 1.152 58.3719 1.6C58.3719 2.048 58.0199 2.4 57.5719 2.4ZM52.7719 4.8C52.3239 4.8 51.9719 4.448 51.9719 4C51.9719 3.552 52.3239 3.2 52.7719 3.2C53.2199 3.2 53.5719 3.552 53.5719 4C53.5719 4.448 53.2199 4.8 52.7719 4.8ZM59.1719 4.8C58.7239 4.8 58.3719 4.448 58.3719 4C58.3719 3.552 58.7239 3.2 59.1719 3.2C59.6199 3.2 59.9719 3.552 59.9719 4C59.9719 4.448 59.6199 4.8 59.1719 4.8ZM52.7719 7.2C52.3239 7.2 51.9719 6.848 51.9719 6.4C51.9719 5.952 52.3239 5.6 52.7719 5.6C53.2199 5.6 53.5719 5.952 53.5719 6.4C53.5719 6.848 53.2199 7.2 52.7719 7.2ZM54.3719 7.2C53.9239 7.2 53.5719 6.848 53.5719 6.4C53.5719 5.952 53.9239 5.6 54.3719 5.6C54.8199 5.6 55.1719 5.952 55.1719 6.4C55.1719 6.848 54.8199 7.2 54.3719 7.2ZM55.9719 7.2C55.5239 7.2 55.1719 6.848 55.1719 6.4C55.1719 5.952 55.5239 5.6 55.9719 5.6C56.4199 5.6 56.7719 5.952 56.7719 6.4C56.7719 6.848 56.4199 7.2 55.9719 7.2ZM57.5719 7.2C57.1239 7.2 56.7719 6.848 56.7719 6.4C56.7719 5.952 57.1239 5.6 57.5719 5.6C58.0199 5.6 58.3719 5.952 58.3719 6.4C58.3719 6.848 58.0199 7.2 57.5719 7.2ZM52.7719 9.6C52.3239 9.6 51.9719 9.248 51.9719 8.8C51.9719 8.352 52.3239 8 52.7719 8C53.2199 8 53.5719 8.352 53.5719 8.8C53.5719 9.248 53.2199 9.6 52.7719 9.6ZM57.5719 9.6C57.1239 9.6 56.7719 9.248 56.7719 8.8C56.7719 8.352 57.1239 8 57.5719 8C58.0199 8 58.3719 8.352 58.3719 8.8C58.3719 9.248 58.0199 9.6 57.5719 9.6ZM52.7719 12C52.3239 12 51.9719 11.648 51.9719 11.2C51.9719 10.752 52.3239 10.4 52.7719 10.4C53.2199 10.4 53.5719 10.752 53.5719 11.2C53.5719 11.648 53.2199 12 52.7719 12ZM59.1719 12C58.7239 12 58.3719 11.648 58.3719 11.2C58.3719 10.752 58.7239 10.4 59.1719 10.4C59.6199 10.4 59.9719 10.752 59.9719 11.2C59.9719 11.648 59.6199 12 59.1719 12ZM62.3656 2.4C61.9176 2.4 61.5656 2.048 61.5656 1.6C61.5656 1.152 61.9176 0.799999 62.3656 0.799999C62.8136 0.799999 63.1656 1.152 63.1656 1.6C63.1656 2.048 62.8136 2.4 62.3656 2.4ZM68.7656 2.4C68.3176 2.4 67.9656 2.048 67.9656 1.6C67.9656 1.152 68.3176 0.799999 68.7656 0.799999C69.2136 0.799999 69.5656 1.152 69.5656 1.6C69.5656 2.048 69.2136 2.4 68.7656 2.4ZM62.3656 4.8C61.9176 4.8 61.5656 4.448 61.5656 4C61.5656 3.552 61.9176 3.2 62.3656 3.2C62.8136 3.2 63.1656 3.552 63.1656 4C63.1656 4.448 62.8136 4.8 62.3656 4.8ZM68.7656 4.8C68.3176 4.8 67.9656 4.448 67.9656 4C67.9656 3.552 68.3176 3.2 68.7656 3.2C69.2136 3.2 69.5656 3.552 69.5656 4C69.5656 4.448 69.2136 4.8 68.7656 4.8ZM62.3656 7.2C61.9176 7.2 61.5656 6.848 61.5656 6.4C61.5656 5.952 61.9176 5.6 62.3656 5.6C62.8136 5.6 63.1656 5.952 63.1656 6.4C63.1656 6.848 62.8136 7.2 62.3656 7.2ZM68.7656 7.2C68.3176 7.2 67.9656 6.848 67.9656 6.4C67.9656 5.952 68.3176 5.6 68.7656 5.6C69.2136 5.6 69.5656 5.952 69.5656 6.4C69.5656 6.848 69.2136 7.2 68.7656 7.2ZM63.9656 9.6C63.5176 9.6 63.1656 9.248 63.1656 8.8C63.1656 8.352 63.5176 8 63.9656 8C64.4136 8 64.7656 8.352 64.7656 8.8C64.7656 9.248 64.4136 9.6 63.9656 9.6ZM67.1656 9.6C66.7176 9.6 66.3656 9.248 66.3656 8.8C66.3656 8.352 66.7176 8 67.1656 8C67.6136 8 67.9656 8.352 67.9656 8.8C67.9656 9.248 67.6136 9.6 67.1656 9.6ZM65.5656 12C65.1176 12 64.7656 11.648 64.7656 11.2C64.7656 10.752 65.1176 10.4 65.5656 10.4C66.0136 10.4 66.3656 10.752 66.3656 11.2C66.3656 11.648 66.0136 12 65.5656 12ZM71.9594 2.4C71.5114 2.4 71.1594 2.048 71.1594 1.6C71.1594 1.152 71.5114 0.799999 71.9594 0.799999C72.4074 0.799999 72.7594 1.152 72.7594 1.6C72.7594 2.048 72.4074 2.4 71.9594 2.4ZM73.5594 2.4C73.1114 2.4 72.7594 2.048 72.7594 1.6C72.7594 1.152 73.1114 0.799999 73.5594 0.799999C74.0074 0.799999 74.3594 1.152 74.3594 1.6C74.3594 2.048 74.0074 2.4 73.5594 2.4ZM75.1594 2.4C74.7114 2.4 74.3594 2.048 74.3594 1.6C74.3594 1.152 74.7114 0.799999 75.1594 0.799999C75.6074 0.799999 75.9594 1.152 75.9594 1.6C75.9594 2.048 75.6074 2.4 75.1594 2.4ZM73.5594 4.8C73.1114 4.8 72.7594 4.448 72.7594 4C72.7594 3.552 73.1114 3.2 73.5594 3.2C74.0074 3.2 74.3594 3.552 74.3594 4C74.3594 4.448 74.0074 4.8 73.5594 4.8ZM73.5594 7.2C73.1114 7.2 72.7594 6.848 72.7594 6.4C72.7594 5.952 73.1114 5.6 73.5594 5.6C74.0074 5.6 74.3594 5.952 74.3594 6.4C74.3594 6.848 74.0074 7.2 73.5594 7.2ZM73.5594 9.6C73.1114 9.6 72.7594 9.248 72.7594 8.8C72.7594 8.352 73.1114 8 73.5594 8C74.0074 8 74.3594 8.352 74.3594 8.8C74.3594 9.248 74.0074 9.6 73.5594 9.6ZM71.9594 12C71.5114 12 71.1594 11.648 71.1594 11.2C71.1594 10.752 71.5114 10.4 71.9594 10.4C72.4074 10.4 72.7594 10.752 72.7594 11.2C72.7594 11.648 72.4074 12 71.9594 12ZM73.5594 12C73.1114 12 72.7594 11.648 72.7594 11.2C72.7594 10.752 73.1114 10.4 73.5594 10.4C74.0074 10.4 74.3594 10.752 74.3594 11.2C74.3594 11.648 74.0074 12 73.5594 12ZM75.1594 12C74.7114 12 74.3594 11.648 74.3594 11.2C74.3594 10.752 74.7114 10.4 75.1594 10.4C75.6074 10.4 75.9594 10.752 75.9594 11.2C75.9594 11.648 75.6074 12 75.1594 12ZM79.9656 2.4C79.5176 2.4 79.1656 2.048 79.1656 1.6C79.1656 1.152 79.5176 0.799999 79.9656 0.799999C80.4136 0.799999 80.7656 1.152 80.7656 1.6C80.7656 2.048 80.4136 2.4 79.9656 2.4ZM81.5656 2.4C81.1176 2.4 80.7656 2.048 80.7656 1.6C80.7656 1.152 81.1176 0.799999 81.5656 0.799999C82.0136 0.799999 82.3656 1.152 82.3656 1.6C82.3656 2.048 82.0136 2.4 81.5656 2.4ZM83.1656 2.4C82.7176 2.4 82.3656 2.048 82.3656 1.6C82.3656 1.152 82.7176 0.799999 83.1656 0.799999C83.6136 0.799999 83.9656 1.152 83.9656 1.6C83.9656 2.048 83.6136 2.4 83.1656 2.4ZM78.3656 4.8C77.9176 4.8 77.5656 4.448 77.5656 4C77.5656 3.552 77.9176 3.2 78.3656 3.2C78.8136 3.2 79.1656 3.552 79.1656 4C79.1656 4.448 78.8136 4.8 78.3656 4.8ZM84.7656 4.8C84.3176 4.8 83.9656 4.448 83.9656 4C83.9656 3.552 84.3176 3.2 84.7656 3.2C85.2136 3.2 85.5656 3.552 85.5656 4C85.5656 4.448 85.2136 4.8 84.7656 4.8ZM78.3656 7.2C77.9176 7.2 77.5656 6.848 77.5656 6.4C77.5656 5.952 77.9176 5.6 78.3656 5.6C78.8136 5.6 79.1656 5.952 79.1656 6.4C79.1656 6.848 78.8136 7.2 78.3656 7.2ZM78.3656 9.6C77.9176 9.6 77.5656 9.248 77.5656 8.8C77.5656 8.352 77.9176 8 78.3656 8C78.8136 8 79.1656 8.352 79.1656 8.8C79.1656 9.248 78.8136 9.6 78.3656 9.6ZM84.7656 9.6C84.3176 9.6 83.9656 9.248 83.9656 8.8C83.9656 8.352 84.3176 8 84.7656 8C85.2136 8 85.5656 8.352 85.5656 8.8C85.5656 9.248 85.2136 9.6 84.7656 9.6ZM79.9656 12C79.5176 12 79.1656 11.648 79.1656 11.2C79.1656 10.752 79.5176 10.4 79.9656 10.4C80.4136 10.4 80.7656 10.752 80.7656 11.2C80.7656 11.648 80.4136 12 79.9656 12ZM81.5656 12C81.1176 12 80.7656 11.648 80.7656 11.2C80.7656 10.752 81.1176 10.4 81.5656 10.4C82.0136 10.4 82.3656 10.752 82.3656 11.2C82.3656 11.648 82.0136 12 81.5656 12ZM83.1656 12C82.7176 12 82.3656 11.648 82.3656 11.2C82.3656 10.752 82.7176 10.4 83.1656 10.4C83.6136 10.4 83.9656 10.752 83.9656 11.2C83.9656 11.648 83.6136 12 83.1656 12ZM87.9594 2.4C87.5114 2.4 87.1594 2.048 87.1594 1.6C87.1594 1.152 87.5114 0.799999 87.9594 0.799999C88.4074 0.799999 88.7594 1.152 88.7594 1.6C88.7594 2.048 88.4074 2.4 87.9594 2.4ZM89.5594 2.4C89.1114 2.4 88.7594 2.048 88.7594 1.6C88.7594 1.152 89.1114 0.799999 89.5594 0.799999C90.0074 0.799999 90.3594 1.152 90.3594 1.6C90.3594 2.048 90.0074 2.4 89.5594 2.4ZM91.1594 2.4C90.7114 2.4 90.3594 2.048 90.3594 1.6C90.3594 1.152 90.7114 0.799999 91.1594 0.799999C91.6074 0.799999 91.9594 1.152 91.9594 1.6C91.9594 2.048 91.6074 2.4 91.1594 2.4ZM92.7594 2.4C92.3114 2.4 91.9594 2.048 91.9594 1.6C91.9594 1.152 92.3114 0.799999 92.7594 0.799999C93.2074 0.799999 93.5594 1.152 93.5594 1.6C93.5594 2.048 93.2074 2.4 92.7594 2.4ZM94.3594 2.4C93.9114 2.4 93.5594 2.048 93.5594 1.6C93.5594 1.152 93.9114 0.799999 94.3594 0.799999C94.8074 0.799999 95.1594 1.152 95.1594 1.6C95.1594 2.048 94.8074 2.4 94.3594 2.4ZM87.9594 4.8C87.5114 4.8 87.1594 4.448 87.1594 4C87.1594 3.552 87.5114 3.2 87.9594 3.2C88.4074 3.2 88.7594 3.552 88.7594 4C88.7594 4.448 88.4074 4.8 87.9594 4.8ZM87.9594 7.2C87.5114 7.2 87.1594 6.848 87.1594 6.4C87.1594 5.952 87.5114 5.6 87.9594 5.6C88.4074 5.6 88.7594 5.952 88.7594 6.4C88.7594 6.848 88.4074 7.2 87.9594 7.2ZM89.5594 7.2C89.1114 7.2 88.7594 6.848 88.7594 6.4C88.7594 5.952 89.1114 5.6 89.5594 5.6C90.0074 5.6 90.3594 5.952 90.3594 6.4C90.3594 6.848 90.0074 7.2 89.5594 7.2ZM91.1594 7.2C90.7114 7.2 90.3594 6.848 90.3594 6.4C90.3594 5.952 90.7114 5.6 91.1594 5.6C91.6074 5.6 91.9594 5.952 91.9594 6.4C91.9594 6.848 91.6074 7.2 91.1594 7.2ZM92.7594 7.2C92.3114 7.2 91.9594 6.848 91.9594 6.4C91.9594 5.952 92.3114 5.6 92.7594 5.6C93.2074 5.6 93.5594 5.952 93.5594 6.4C93.5594 6.848 93.2074 7.2 92.7594 7.2ZM87.9594 9.6C87.5114 9.6 87.1594 9.248 87.1594 8.8C87.1594 8.352 87.5114 8 87.9594 8C88.4074 8 88.7594 8.352 88.7594 8.8C88.7594 9.248 88.4074 9.6 87.9594 9.6ZM87.9594 12C87.5114 12 87.1594 11.648 87.1594 11.2C87.1594 10.752 87.5114 10.4 87.9594 10.4C88.4074 10.4 88.7594 10.752 88.7594 11.2C88.7594 11.648 88.4074 12 87.9594 12ZM89.5594 12C89.1114 12 88.7594 11.648 88.7594 11.2C88.7594 10.752 89.1114 10.4 89.5594 10.4C90.0074 10.4 90.3594 10.752 90.3594 11.2C90.3594 11.648 90.0074 12 89.5594 12ZM91.1594 12C90.7114 12 90.3594 11.648 90.3594 11.2C90.3594 10.752 90.7114 10.4 91.1594 10.4C91.6074 10.4 91.9594 10.752 91.9594 11.2C91.9594 11.648 91.6074 12 91.1594 12ZM92.7594 12C92.3114 12 91.9594 11.648 91.9594 11.2C91.9594 10.752 92.3114 10.4 92.7594 10.4C93.2074 10.4 93.5594 10.752 93.5594 11.2C93.5594 11.648 93.2074 12 92.7594 12ZM94.3594 12C93.9114 12 93.5594 11.648 93.5594 11.2C93.5594 10.752 93.9114 10.4 94.3594 10.4C94.8074 10.4 95.1594 10.752 95.1594 11.2C95.1594 11.648 94.8074 12 94.3594 12ZM102.356 2.4C101.908 2.4 101.556 2.048 101.556 1.6C101.556 1.152 101.908 0.799999 102.356 0.799999C102.804 0.799999 103.156 1.152 103.156 1.6C103.156 2.048 102.804 2.4 102.356 2.4ZM103.956 2.4C103.508 2.4 103.156 2.048 103.156 1.6C103.156 1.152 103.508 0.799999 103.956 0.799999C104.404 0.799999 104.756 1.152 104.756 1.6C104.756 2.048 104.404 2.4 103.956 2.4ZM102.356 4.8C101.908 4.8 101.556 4.448 101.556 4C101.556 3.552 101.908 3.2 102.356 3.2C102.804 3.2 103.156 3.552 103.156 4C103.156 4.448 102.804 4.8 102.356 4.8ZM100.756 7.2C100.308 7.2 99.9563 6.848 99.9563 6.4C99.9563 5.952 100.308 5.6 100.756 5.6C101.204 5.6 101.556 5.952 101.556 6.4C101.556 6.848 101.204 7.2 100.756 7.2ZM102.356 7.2C101.908 7.2 101.556 6.848 101.556 6.4C101.556 5.952 101.908 5.6 102.356 5.6C102.804 5.6 103.156 5.952 103.156 6.4C103.156 6.848 102.804 7.2 102.356 7.2ZM102.356 9.6C101.908 9.6 101.556 9.248 101.556 8.8C101.556 8.352 101.908 8 102.356 8C102.804 8 103.156 8.352 103.156 8.8C103.156 9.248 102.804 9.6 102.356 9.6ZM102.356 12C101.908 12 101.556 11.648 101.556 11.2C101.556 10.752 101.908 10.4 102.356 10.4C102.804 10.4 103.156 10.752 103.156 11.2C103.156 11.648 102.804 12 102.356 12ZM103.956 12C103.508 12 103.156 11.648 103.156 11.2C103.156 10.752 103.508 10.4 103.956 10.4C104.404 10.4 104.756 10.752 104.756 11.2C104.756 11.648 104.404 12 103.956 12ZM107.163 2.4C106.715 2.4 106.363 2.048 106.363 1.6C106.363 1.152 106.715 0.799999 107.163 0.799999C107.611 0.799999 107.963 1.152 107.963 1.6C107.963 2.048 107.611 2.4 107.163 2.4ZM107.163 4.8C106.715 4.8 106.363 4.448 106.363 4C106.363 3.552 106.715 3.2 107.163 3.2C107.611 3.2 107.963 3.552 107.963 4C107.963 4.448 107.611 4.8 107.163 4.8ZM107.163 7.2C106.715 7.2 106.363 6.848 106.363 6.4C106.363 5.952 106.715 5.6 107.163 5.6C107.611 5.6 107.963 5.952 107.963 6.4C107.963 6.848 107.611 7.2 107.163 7.2ZM107.163 9.6C106.715 9.6 106.363 9.248 106.363 8.8C106.363 8.352 106.715 8 107.163 8C107.611 8 107.963 8.352 107.963 8.8C107.963 9.248 107.611 9.6 107.163 9.6ZM107.163 12C106.715 12 106.363 11.648 106.363 11.2C106.363 10.752 106.715 10.4 107.163 10.4C107.611 10.4 107.963 10.752 107.963 11.2C107.963 11.648 107.611 12 107.163 12ZM108.763 12C108.315 12 107.963 11.648 107.963 11.2C107.963 10.752 108.315 10.4 108.763 10.4C109.211 10.4 109.562 10.752 109.562 11.2C109.562 11.648 109.211 12 108.763 12ZM110.363 12C109.915 12 109.562 11.648 109.562 11.2C109.562 10.752 109.915 10.4 110.363 10.4C110.811 10.4 111.163 10.752 111.163 11.2C111.163 11.648 110.811 12 110.363 12ZM111.963 12C111.515 12 111.163 11.648 111.163 11.2C111.163 10.752 111.515 10.4 111.963 10.4C112.411 10.4 112.763 10.752 112.763 11.2C112.763 11.648 112.411 12 111.963 12ZM113.562 12C113.115 12 112.763 11.648 112.763 11.2C112.763 10.752 113.115 10.4 113.562 10.4C114.01 10.4 114.363 10.752 114.363 11.2C114.363 11.648 114.01 12 113.562 12ZM118.356 2.4C117.908 2.4 117.556 2.048 117.556 1.6C117.556 1.152 117.908 0.799999 118.356 0.799999C118.804 0.799999 119.156 1.152 119.156 1.6C119.156 2.048 118.804 2.4 118.356 2.4ZM119.956 2.4C119.508 2.4 119.156 2.048 119.156 1.6C119.156 1.152 119.508 0.799999 119.956 0.799999C120.404 0.799999 120.756 1.152 120.756 1.6C120.756 2.048 120.404 2.4 119.956 2.4ZM121.556 2.4C121.108 2.4 120.756 2.048 120.756 1.6C120.756 1.152 121.108 0.799999 121.556 0.799999C122.004 0.799999 122.356 1.152 122.356 1.6C122.356 2.048 122.004 2.4 121.556 2.4ZM116.756 4.8C116.308 4.8 115.956 4.448 115.956 4C115.956 3.552 116.308 3.2 116.756 3.2C117.204 3.2 117.556 3.552 117.556 4C117.556 4.448 117.204 4.8 116.756 4.8ZM123.156 4.8C122.708 4.8 122.356 4.448 122.356 4C122.356 3.552 122.708 3.2 123.156 3.2C123.604 3.2 123.956 3.552 123.956 4C123.956 4.448 123.604 4.8 123.156 4.8ZM116.756 7.2C116.308 7.2 115.956 6.848 115.956 6.4C115.956 5.952 116.308 5.6 116.756 5.6C117.204 5.6 117.556 5.952 117.556 6.4C117.556 6.848 117.204 7.2 116.756 7.2ZM123.156 7.2C122.708 7.2 122.356 6.848 122.356 6.4C122.356 5.952 122.708 5.6 123.156 5.6C123.604 5.6 123.956 5.952 123.956 6.4C123.956 6.848 123.604 7.2 123.156 7.2ZM116.756 9.6C116.308 9.6 115.956 9.248 115.956 8.8C115.956 8.352 116.308 8 116.756 8C117.204 8 117.556 8.352 117.556 8.8C117.556 9.248 117.204 9.6 116.756 9.6ZM123.156 9.6C122.708 9.6 122.356 9.248 122.356 8.8C122.356 8.352 122.708 8 123.156 8C123.604 8 123.956 8.352 123.956 8.8C123.956 9.248 123.604 9.6 123.156 9.6ZM118.356 12C117.908 12 117.556 11.648 117.556 11.2C117.556 10.752 117.908 10.4 118.356 10.4C118.804 10.4 119.156 10.752 119.156 11.2C119.156 11.648 118.804 12 118.356 12ZM119.956 12C119.508 12 119.156 11.648 119.156 11.2C119.156 10.752 119.508 10.4 119.956 10.4C120.404 10.4 120.756 10.752 120.756 11.2C120.756 11.648 120.404 12 119.956 12ZM121.556 12C121.108 12 120.756 11.648 120.756 11.2C120.756 10.752 121.108 10.4 121.556 10.4C122.004 10.4 122.356 10.752 122.356 11.2C122.356 11.648 122.004 12 121.556 12ZM129.55 2.4C129.102 2.4 128.75 2.048 128.75 1.6C128.75 1.152 129.102 0.799999 129.55 0.799999C129.998 0.799999 130.35 1.152 130.35 1.6C130.35 2.048 129.998 2.4 129.55 2.4ZM127.95 4.8C127.502 4.8 127.15 4.448 127.15 4C127.15 3.552 127.502 3.2 127.95 3.2C128.398 3.2 128.75 3.552 128.75 4C128.75 4.448 128.398 4.8 127.95 4.8ZM131.15 4.8C130.702 4.8 130.35 4.448 130.35 4C130.35 3.552 130.702 3.2 131.15 3.2C131.598 3.2 131.95 3.552 131.95 4C131.95 4.448 131.598 4.8 131.15 4.8ZM126.35 7.2C125.902 7.2 125.55 6.848 125.55 6.4C125.55 5.952 125.902 5.6 126.35 5.6C126.798 5.6 127.15 5.952 127.15 6.4C127.15 6.848 126.798 7.2 126.35 7.2ZM132.75 7.2C132.302 7.2 131.95 6.848 131.95 6.4C131.95 5.952 132.302 5.6 132.75 5.6C133.198 5.6 133.55 5.952 133.55 6.4C133.55 6.848 133.198 7.2 132.75 7.2ZM126.35 9.6C125.902 9.6 125.55 9.248 125.55 8.8C125.55 8.352 125.902 8 126.35 8C126.798 8 127.15 8.352 127.15 8.8C127.15 9.248 126.798 9.6 126.35 9.6ZM127.95 9.6C127.502 9.6 127.15 9.248 127.15 8.8C127.15 8.352 127.502 8 127.95 8C128.398 8 128.75 8.352 128.75 8.8C128.75 9.248 128.398 9.6 127.95 9.6ZM129.55 9.6C129.102 9.6 128.75 9.248 128.75 8.8C128.75 8.352 129.102 8 129.55 8C129.998 8 130.35 8.352 130.35 8.8C130.35 9.248 129.998 9.6 129.55 9.6ZM131.15 9.6C130.702 9.6 130.35 9.248 130.35 8.8C130.35 8.352 130.702 8 131.15 8C131.598 8 131.95 8.352 131.95 8.8C131.95 9.248 131.598 9.6 131.15 9.6ZM132.75 9.6C132.302 9.6 131.95 9.248 131.95 8.8C131.95 8.352 132.302 8 132.75 8C133.198 8 133.55 8.352 133.55 8.8C133.55 9.248 133.198 9.6 132.75 9.6ZM126.35 12C125.902 12 125.55 11.648 125.55 11.2C125.55 10.752 125.902 10.4 126.35 10.4C126.798 10.4 127.15 10.752 127.15 11.2C127.15 11.648 126.798 12 126.35 12ZM132.75 12C132.302 12 131.95 11.648 131.95 11.2C131.95 10.752 132.302 10.4 132.75 10.4C133.198 10.4 133.55 10.752 133.55 11.2C133.55 11.648 133.198 12 132.75 12ZM135.944 2.4C135.496 2.4 135.144 2.048 135.144 1.6C135.144 1.152 135.496 0.799999 135.944 0.799999C136.392 0.799999 136.744 1.152 136.744 1.6C136.744 2.048 136.392 2.4 135.944 2.4ZM137.544 2.4C137.096 2.4 136.744 2.048 136.744 1.6C136.744 1.152 137.096 0.799999 137.544 0.799999C137.992 0.799999 138.344 1.152 138.344 1.6C138.344 2.048 137.992 2.4 137.544 2.4ZM139.144 2.4C138.696 2.4 138.344 2.048 138.344 1.6C138.344 1.152 138.696 0.799999 139.144 0.799999C139.592 0.799999 139.944 1.152 139.944 1.6C139.944 2.048 139.592 2.4 139.144 2.4ZM140.744 2.4C140.296 2.4 139.944 2.048 139.944 1.6C139.944 1.152 140.296 0.799999 140.744 0.799999C141.192 0.799999 141.544 1.152 141.544 1.6C141.544 2.048 141.192 2.4 140.744 2.4ZM135.944 4.8C135.496 4.8 135.144 4.448 135.144 4C135.144 3.552 135.496 3.2 135.944 3.2C136.392 3.2 136.744 3.552 136.744 4C136.744 4.448 136.392 4.8 135.944 4.8ZM142.344 4.8C141.896 4.8 141.544 4.448 141.544 4C141.544 3.552 141.896 3.2 142.344 3.2C142.792 3.2 143.144 3.552 143.144 4C143.144 4.448 142.792 4.8 142.344 4.8ZM135.944 7.2C135.496 7.2 135.144 6.848 135.144 6.4C135.144 5.952 135.496 5.6 135.944 5.6C136.392 5.6 136.744 5.952 136.744 6.4C136.744 6.848 136.392 7.2 135.944 7.2ZM142.344 7.2C141.896 7.2 141.544 6.848 141.544 6.4C141.544 5.952 141.896 5.6 142.344 5.6C142.792 5.6 143.144 5.952 143.144 6.4C143.144 6.848 142.792 7.2 142.344 7.2ZM135.944 9.6C135.496 9.6 135.144 9.248 135.144 8.8C135.144 8.352 135.496 8 135.944 8C136.392 8 136.744 8.352 136.744 8.8C136.744 9.248 136.392 9.6 135.944 9.6ZM142.344 9.6C141.896 9.6 141.544 9.248 141.544 8.8C141.544 8.352 141.896 8 142.344 8C142.792 8 143.144 8.352 143.144 8.8C143.144 9.248 142.792 9.6 142.344 9.6ZM135.944 12C135.496 12 135.144 11.648 135.144 11.2C135.144 10.752 135.496 10.4 135.944 10.4C136.392 10.4 136.744 10.752 136.744 11.2C136.744 11.648 136.392 12 135.944 12ZM137.544 12C137.096 12 136.744 11.648 136.744 11.2C136.744 10.752 137.096 10.4 137.544 10.4C137.992 10.4 138.344 10.752 138.344 11.2C138.344 11.648 137.992 12 137.544 12ZM139.144 12C138.696 12 138.344 11.648 138.344 11.2C138.344 10.752 138.696 10.4 139.144 10.4C139.592 10.4 139.944 10.752 139.944 11.2C139.944 11.648 139.592 12 139.144 12ZM140.744 12C140.296 12 139.944 11.648 139.944 11.2C139.944 10.752 140.296 10.4 140.744 10.4C141.192 10.4 141.544 10.752 141.544 11.2C141.544 11.648 141.192 12 140.744 12ZM145.538 2.4C145.09 2.4 144.738 2.048 144.738 1.6C144.738 1.152 145.09 0.799999 145.538 0.799999C145.986 0.799999 146.338 1.152 146.338 1.6C146.338 2.048 145.986 2.4 145.538 2.4ZM147.138 2.4C146.69 2.4 146.338 2.048 146.338 1.6C146.338 1.152 146.69 0.799999 147.138 0.799999C147.586 0.799999 147.938 1.152 147.938 1.6C147.938 2.048 147.586 2.4 147.138 2.4ZM148.738 2.4C148.29 2.4 147.938 2.048 147.938 1.6C147.938 1.152 148.29 0.799999 148.738 0.799999C149.186 0.799999 149.538 1.152 149.538 1.6C149.538 2.048 149.186 2.4 148.738 2.4ZM150.338 2.4C149.89 2.4 149.538 2.048 149.538 1.6C149.538 1.152 149.89 0.799999 150.338 0.799999C150.786 0.799999 151.138 1.152 151.138 1.6C151.138 2.048 150.786 2.4 150.338 2.4ZM151.938 2.4C151.49 2.4 151.138 2.048 151.138 1.6C151.138 1.152 151.49 0.799999 151.938 0.799999C152.385 0.799999 152.738 1.152 152.738 1.6C152.738 2.048 152.385 2.4 151.938 2.4ZM145.538 4.8C145.09 4.8 144.738 4.448 144.738 4C144.738 3.552 145.09 3.2 145.538 3.2C145.986 3.2 146.338 3.552 146.338 4C146.338 4.448 145.986 4.8 145.538 4.8ZM145.538 7.2C145.09 7.2 144.738 6.848 144.738 6.4C144.738 5.952 145.09 5.6 145.538 5.6C145.986 5.6 146.338 5.952 146.338 6.4C146.338 6.848 145.986 7.2 145.538 7.2ZM147.138 7.2C146.69 7.2 146.338 6.848 146.338 6.4C146.338 5.952 146.69 5.6 147.138 5.6C147.586 5.6 147.938 5.952 147.938 6.4C147.938 6.848 147.586 7.2 147.138 7.2ZM148.738 7.2C148.29 7.2 147.938 6.848 147.938 6.4C147.938 5.952 148.29 5.6 148.738 5.6C149.186 5.6 149.538 5.952 149.538 6.4C149.538 6.848 149.186 7.2 148.738 7.2ZM150.338 7.2C149.89 7.2 149.538 6.848 149.538 6.4C149.538 5.952 149.89 5.6 150.338 5.6C150.786 5.6 151.138 5.952 151.138 6.4C151.138 6.848 150.786 7.2 150.338 7.2ZM145.538 9.6C145.09 9.6 144.738 9.248 144.738 8.8C144.738 8.352 145.09 8 145.538 8C145.986 8 146.338 8.352 146.338 8.8C146.338 9.248 145.986 9.6 145.538 9.6ZM145.538 12C145.09 12 144.738 11.648 144.738 11.2C144.738 10.752 145.09 10.4 145.538 10.4C145.986 10.4 146.338 10.752 146.338 11.2C146.338 11.648 145.986 12 145.538 12ZM147.138 12C146.69 12 146.338 11.648 146.338 11.2C146.338 10.752 146.69 10.4 147.138 10.4C147.586 10.4 147.938 10.752 147.938 11.2C147.938 11.648 147.586 12 147.138 12ZM148.738 12C148.29 12 147.938 11.648 147.938 11.2C147.938 10.752 148.29 10.4 148.738 10.4C149.186 10.4 149.538 10.752 149.538 11.2C149.538 11.648 149.186 12 148.738 12ZM150.338 12C149.89 12 149.538 11.648 149.538 11.2C149.538 10.752 149.89 10.4 150.338 10.4C150.786 10.4 151.138 10.752 151.138 11.2C151.138 11.648 150.786 12 150.338 12ZM151.938 12C151.49 12 151.138 11.648 151.138 11.2C151.138 10.752 151.49 10.4 151.938 10.4C152.385 10.4 152.738 10.752 152.738 11.2C152.738 11.648 152.385 12 151.938 12ZM155.131 2.4C154.683 2.4 154.331 2.048 154.331 1.6C154.331 1.152 154.683 0.799999 155.131 0.799999C155.579 0.799999 155.931 1.152 155.931 1.6C155.931 2.048 155.579 2.4 155.131 2.4ZM156.731 2.4C156.283 2.4 155.931 2.048 155.931 1.6C155.931 1.152 156.283 0.799999 156.731 0.799999C157.179 0.799999 157.531 1.152 157.531 1.6C157.531 2.048 157.179 2.4 156.731 2.4ZM158.331 2.4C157.883 2.4 157.531 2.048 157.531 1.6C157.531 1.152 157.883 0.799999 158.331 0.799999C158.779 0.799999 159.131 1.152 159.131 1.6C159.131 2.048 158.779 2.4 158.331 2.4ZM159.931 2.4C159.483 2.4 159.131 2.048 159.131 1.6C159.131 1.152 159.483 0.799999 159.931 0.799999C160.379 0.799999 160.731 1.152 160.731 1.6C160.731 2.048 160.379 2.4 159.931 2.4ZM155.131 4.8C154.683 4.8 154.331 4.448 154.331 4C154.331 3.552 154.683 3.2 155.131 3.2C155.579 3.2 155.931 3.552 155.931 4C155.931 4.448 155.579 4.8 155.131 4.8ZM161.531 4.8C161.083 4.8 160.731 4.448 160.731 4C160.731 3.552 161.083 3.2 161.531 3.2C161.979 3.2 162.331 3.552 162.331 4C162.331 4.448 161.979 4.8 161.531 4.8ZM155.131 7.2C154.683 7.2 154.331 6.848 154.331 6.4C154.331 5.952 154.683 5.6 155.131 5.6C155.579 5.6 155.931 5.952 155.931 6.4C155.931 6.848 155.579 7.2 155.131 7.2ZM161.531 7.2C161.083 7.2 160.731 6.848 160.731 6.4C160.731 5.952 161.083 5.6 161.531 5.6C161.979 5.6 162.331 5.952 162.331 6.4C162.331 6.848 161.979 7.2 161.531 7.2ZM155.131 9.6C154.683 9.6 154.331 9.248 154.331 8.8C154.331 8.352 154.683 8 155.131 8C155.579 8 155.931 8.352 155.931 8.8C155.931 9.248 155.579 9.6 155.131 9.6ZM161.531 9.6C161.083 9.6 160.731 9.248 160.731 8.8C160.731 8.352 161.083 8 161.531 8C161.979 8 162.331 8.352 162.331 8.8C162.331 9.248 161.979 9.6 161.531 9.6ZM155.131 12C154.683 12 154.331 11.648 154.331 11.2C154.331 10.752 154.683 10.4 155.131 10.4C155.579 10.4 155.931 10.752 155.931 11.2C155.931 11.648 155.579 12 155.131 12ZM156.731 12C156.283 12 155.931 11.648 155.931 11.2C155.931 10.752 156.283 10.4 156.731 10.4C157.179 10.4 157.531 10.752 157.531 11.2C157.531 11.648 157.179 12 156.731 12ZM158.331 12C157.883 12 157.531 11.648 157.531 11.2C157.531 10.752 157.883 10.4 158.331 10.4C158.779 10.4 159.131 10.752 159.131 11.2C159.131 11.648 158.779 12 158.331 12ZM159.931 12C159.483 12 159.131 11.648 159.131 11.2C159.131 10.752 159.483 10.4 159.931 10.4C160.379 10.4 160.731 10.752 160.731 11.2C160.731 11.648 160.379 12 159.931 12ZM164.725 2.4C164.277 2.4 163.925 2.048 163.925 1.6C163.925 1.152 164.277 0.799999 164.725 0.799999C165.173 0.799999 165.525 1.152 165.525 1.6C165.525 2.048 165.173 2.4 164.725 2.4ZM166.325 2.4C165.877 2.4 165.525 2.048 165.525 1.6C165.525 1.152 165.877 0.799999 166.325 0.799999C166.773 0.799999 167.125 1.152 167.125 1.6C167.125 2.048 166.773 2.4 166.325 2.4ZM166.325 4.8C165.877 4.8 165.525 4.448 165.525 4C165.525 3.552 165.877 3.2 166.325 3.2C166.773 3.2 167.125 3.552 167.125 4C167.125 4.448 166.773 4.8 166.325 4.8ZM166.325 7.2C165.877 7.2 165.525 6.848 165.525 6.4C165.525 5.952 165.877 5.6 166.325 5.6C166.773 5.6 167.125 5.952 167.125 6.4C167.125 6.848 166.773 7.2 166.325 7.2ZM167.925 7.2C167.477 7.2 167.125 6.848 167.125 6.4C167.125 5.952 167.477 5.6 167.925 5.6C168.373 5.6 168.725 5.952 168.725 6.4C168.725 6.848 168.373 7.2 167.925 7.2ZM166.325 9.6C165.877 9.6 165.525 9.248 165.525 8.8C165.525 8.352 165.877 8 166.325 8C166.773 8 167.125 8.352 167.125 8.8C167.125 9.248 166.773 9.6 166.325 9.6ZM164.725 12C164.277 12 163.925 11.648 163.925 11.2C163.925 10.752 164.277 10.4 164.725 10.4C165.173 10.4 165.525 10.752 165.525 11.2C165.525 11.648 165.173 12 164.725 12ZM166.325 12C165.877 12 165.525 11.648 165.525 11.2C165.525 10.752 165.877 10.4 166.325 10.4C166.773 10.4 167.125 10.752 167.125 11.2C167.125 11.648 166.773 12 166.325 12Z" fill="white"/>
</svg>
