<svg width="22" height="16" viewBox="0 0 22 16" fill="none" xmlns="http://www.w3.org/2000/svg">
<path d="M4 14C4 15.12 3.12 16 2 16C0.88 16 0 15.12 0 14C0 12.88 0.88 12 2 12C3.12 12 4 12.88 4 14ZM4 2C4 3.12 3.12 4 2 4C0.88 4 0 3.12 0 2C0 0.879999 0.88 0 2 0C3.12 0 4 0.879999 4 2ZM10 10C10 11.12 9.12 12 8 12C6.88 12 6 11.12 6 10C6 8.88 6.88 8 8 8C9.12 8 10 8.88 10 10ZM10 6C10 7.12 9.12 8 8 8C6.88 8 6 7.12 6 6C6 4.88 6.88 4 8 4C9.12 4 10 4.88 10 6ZM16 10C16 11.12 15.12 12 14 12C12.88 12 12 11.12 12 10C12 8.88 12.88 8 14 8C15.12 8 16 8.88 16 10ZM16 6C16 7.12 15.12 8 14 8C12.88 8 12 7.12 12 6C12 4.88 12.88 4 14 4C15.12 4 16 4.88 16 6ZM22 14C22 15.12 21.12 16 20 16C18.88 16 18 15.12 18 14C18 12.88 18.88 12 20 12C21.12 12 22 12.88 22 14ZM22 2C22 3.12 21.12 4 20 4C18.88 4 18 3.12 18 2C18 0.879999 18.88 0 20 0C21.12 0 22 0.879999 22 2Z" fill="white"/>
</svg>
