<svg width="130" height="19" viewBox="0 0 130 19" fill="none" xmlns="http://www.w3.org/2000/svg">
<path d="M10.0148 19V14.44H3.75081L0.822813 11.392V5.272L3.75081 2.2H6.96681L10.0148 5.248H3.75081V11.392H10.0148V0.399999H13.0628V2.2H19.3268L22.2548 5.272V11.392L19.3268 14.44H16.5188L13.0628 11.392H19.3268V5.248H13.0628V19H10.0148ZM28.1811 19H25.1331V2.2H28.1811V19ZM28.1811 19L34.2771 2.2H37.3251L31.2291 19H28.1811ZM37.3251 19V2.2H40.3731V19H37.3251ZM54.9985 19L50.5105 2.2H53.6305L58.1185 19H54.9985ZM42.9025 19L47.3905 2.2H50.5105L46.0225 19H42.9025ZM60.6409 19V2.2H63.6889V8.296H72.8569L75.9049 11.344V19H63.6889L66.7369 15.952H72.8569V11.344H63.6889V19H60.6409ZM81.4851 19V5.248H75.2931V2.2H90.5811V5.248H84.5331V19H81.4851ZM93.1019 19V2.2H96.1499V9.808H105.318V5.248H96.1499L99.1979 2.2H108.366V9.808L105.318 12.856H96.1499V19H93.1019ZM110.047 19V2.2H113.095V8.296H122.263L125.311 11.344V19H113.095L116.143 15.952H122.263V11.344H113.095V19H110.047ZM126.847 19V2.2H129.943V19H126.847Z" fill="white"/>
</svg>
